<svg xmlns="http://www.w3.org/2000/svg" viewBox="0 0 211.69 180.65"><defs><style>.cls-1{isolation:isolate;}.cls-2{opacity:0.72;}.cls-3{mix-blend-mode:multiply;}.cls-4{fill:#0a90aa;}.cls-5{opacity:0.5;}.cls-6{opacity:0.64;}.cls-7{fill:#06b6d4;}.cls-8{opacity:0.18;}.cls-9{fill:#606060;}</style></defs><g class="cls-1"><g id="Layer_2" data-name="Layer 2"><g id="Layer_1-2" data-name="Layer 1"><g class="cls-2"><g class="cls-3"><path class="cls-4" d="M33.31,135.09h-.88l-.12-.87c-.39-2.87-.76-5.37-1.1-7.58-1.51-10.11-2.14-14.3.95-19.17s7.61-8.16,11.89-11.2c4.51-3.22,9.18-6.55,12.38-12.1C59.49,78.84,59.34,73,56,68.8c-4-5-11.4-6.36-19.88-3.73a63.23,63.23,0,0,0-10.76,4.47c-7.09,3.6-7.61,2.8-16.22-10.55-.9-1.38-1.88-2.91-3-4.58l-.48-.74.68-.57c17.75-14.88,39.5-19.48,58.18-12.3C78.24,46.06,87.44,56.65,89.2,69.15c2,14.2-5.93,28.82-22.3,41.15-10.64,8-10.17,13.48-9.86,17.1.15,1.77.29,3.44-.92,4.76C54.08,134.38,48.54,135.09,33.31,135.09ZM44.17,61.77c5.63,0,10.37,2,13.41,5.78,3.84,4.81,4.07,11.56.58,17.62S49.9,94.55,45.21,97.9c-4.31,3.07-8.38,6-11.36,10.65-2.69,4.23-2.14,7.93-.66,17.8.3,2,.64,4.21,1,6.74,13.23,0,19-.68,20.46-2.28.6-.65.55-1.56.4-3.24-.34-4.06-.86-10.18,10.66-18.87C81.46,96.83,89.1,82.88,87.21,69.43,85.57,57.66,76.83,47.66,63.86,42.67,46.1,35.84,25.42,40.11,8.35,54.06l2.49,3.84c4.11,6.37,6.37,9.88,8.07,11,1.32.9,2.38.43,5.56-1.18a64.38,64.38,0,0,1,11.08-4.6A29.42,29.42,0,0,1,44.17,61.77Z"/></g><g class="cls-3"><path class="cls-4" d="M42.81,176.33c-7.81,0-16.21-4.94-16.21-15.78s8.4-15.74,16.21-15.74c8.11,0,16.31,5.41,16.31,15.74A15.07,15.07,0,0,1,54,172.39,17.12,17.12,0,0,1,42.81,176.33Zm0-29.52c-6.84,0-14.21,4.3-14.21,13.74S36,174.33,42.81,174.33,57.12,170,57.12,160.55,49.7,146.81,42.81,146.81Z"/></g><g class="cls-3"><path class="cls-4" d="M33.31,139.41H28.67l-.63-4.6c-.38-2.73-.74-5.12-1.05-7.24l0-.29c-1.59-10.58-2.39-15.9,1.58-22.13.3-.46.6-.91.91-1.35L31.06,105c-.29.41-.58.83-.85,1.27-3.57,5.6-2.8,10.66-1.29,20.75l0,.29c.32,2.13.68,4.53,1.06,7.27l.39,2.87h2.9c16.4,0,21.9-.83,24.52-3.68a6.21,6.21,0,0,0,1.61-4l2,.11a8.13,8.13,0,0,1-2.13,5.29C56.14,138.52,50.8,139.41,33.31,139.41Z"/><path class="cls-4" d="M56.25,77.62l-2-.22a8.39,8.39,0,0,0,.06-1,7.83,7.83,0,0,0-1-4c-1.76-3-5.62-4.62-10.37-4.3l-.14-2c5.56-.38,10.09,1.58,12.24,5.29a9.8,9.8,0,0,1,1.31,5C56.32,76.8,56.29,77.21,56.25,77.62Z"/><path class="cls-4" d="M20.24,75.72c-5.43,0-7.95-3.92-14.71-14.38l-.06-.09c-.87-1.35-1.83-2.85-2.9-4.49L0,52.81l3.61-3A70.75,70.75,0,0,1,31.35,35.12l.5,1.94A68.7,68.7,0,0,0,4.9,51.32L2.64,53.21l1.61,2.46,2.91,4.5-.79.62.84-.54c6.5,10.08,8.69,13.47,13,13.47a10.45,10.45,0,0,0,4.58-1.31l.86,1.8A12.13,12.13,0,0,1,20.24,75.72Z"/><path class="cls-4" d="M82.46,101.62l-1.53-1.28c7.14-8.53,10.91-17.81,10.91-26.83a33,33,0,0,0-.76-7.06L93,66a35.06,35.06,0,0,1,.81,7.49C93.84,83,89.91,92.73,82.46,101.62Z"/></g><g class="cls-3"><path class="cls-4" d="M42.91,180.65h-.1c-10.2,0-20.53-6.9-20.53-20.1a21.84,21.84,0,0,1,1.06-6.85l1.9.63a19.63,19.63,0,0,0-1,6.22c0,11.88,9.32,18.1,18.53,18.1ZM61.3,170l-1.78-.91a18.7,18.7,0,0,0,1.92-8.52,17.75,17.75,0,0,0-3.25-10.67l1.62-1.18a19.76,19.76,0,0,1,3.63,11.85A20.63,20.63,0,0,1,61.3,170Z"/></g></g><g class="cls-5"><g class="cls-3"><path class="cls-4" d="M173.56,141h-.87l-.12-.86c-.23-1.71-.45-3.19-.65-4.5-.92-6.12-1.3-8.65.62-11.67s4.6-4.93,7.17-6.77c2.77-2,5.38-3.83,7.24-7.05,1.73-3,1.65-6.35-.21-8.68-2.25-2.81-6.5-3.59-11.37-2.08A36.53,36.53,0,0,0,169,102c-4.54,2.31-5.07,1.48-10.16-6.41-.53-.82-1.12-1.72-1.76-2.72l-.49-.74.68-.57c10.66-8.94,23.74-11.69,35-7.37,8.25,3.17,13.82,9.59,14.88,17.16,1.2,8.59-3.56,17.41-13.4,24.83-6.14,4.63-5.89,7.61-5.7,9.79a3.79,3.79,0,0,1-.65,3.14C186.1,140.55,182.86,141,173.56,141ZM180,96.61a10.21,10.21,0,0,1,8.28,3.59c2.39,3,2.54,7.18.38,10.92s-5,5.68-7.81,7.69c-2.53,1.8-4.91,3.5-6.64,6.22-1.52,2.39-1.2,4.54-.33,10.29l.54,3.66c5.28,0,10.56-.2,11.5-1.22.24-.26.21-.73.13-1.62-.19-2.34-.53-6.27,6.49-11.56,9.24-7,13.73-15.11,12.63-23-1-6.84-6.05-12.66-13.62-15.57-10.31-4-22.32-1.54-32.29,6.47l1.28,2c2.41,3.74,3.74,5.8,4.68,6.45.57.39,1,.23,2.89-.73a38,38,0,0,1,6.65-2.76A17.72,17.72,0,0,1,180,96.61Z"/></g><g class="cls-3"><path class="cls-4" d="M179.21,165.48c-5,0-10-3.36-10-9.78s5.05-9.75,10-9.75,10.1,3.35,10.1,9.75S184.23,165.48,179.21,165.48Zm0-17.53c-3.87,0-8,2.43-8,7.75s4.17,7.78,8,7.78,8.1-2.43,8.1-7.78S183.11,148,179.21,148Z"/></g><g class="cls-3"><path class="cls-4" d="M173.56,145.3h-4.64l-.63-4.6c-.22-1.65-.44-3.09-.63-4.37-1-6.46-1.55-10.31,1.24-14.69,2.39-3.76,5.53-6,8.3-8l1-.69,1.17,1.63-1,.69c-2.63,1.87-5.61,4-7.78,7.41-2.39,3.75-1.91,6.93-1,13.26.2,1.35.42,2.8.65,4.46l.39,2.87h2.89c9.28,0,13.49-.36,15.56-2.62a5.92,5.92,0,0,0,1.26-4.9c-.18-2.09,0-4.09,4.49-7.52l1.22,1.58c-4,3-3.83,4.43-3.72,5.77A7.85,7.85,0,0,1,190.6,142C188.05,144.81,183.92,145.3,173.56,145.3Z"/><path class="cls-4" d="M185.67,107.24l-1.93-.53a3.48,3.48,0,0,0,.14-1,2.6,2.6,0,0,0-.32-1.29,2.52,2.52,0,0,0-.7-.76L184,102a4.43,4.43,0,0,1,1.27,1.39,4.54,4.54,0,0,1,.59,2.29A5.8,5.8,0,0,1,185.67,107.24Z"/><path class="cls-4" d="M165.8,107.47c-4.4,0-6.33-3-10.55-9.54l-4.32-6.65,3.61-3c8.83-7.4,19.11-11,29.42-10.27l-.14,2c-9.8-.69-19.57,2.75-28,9.81l-2.25,1.89,3.36,5.18c4,6.27,5.56,8.62,8.87,8.62a9.45,9.45,0,0,0,4.29-1.4,33.9,33.9,0,0,1,6-2.48,14.34,14.34,0,0,1,2.86-.6l.2,2a12.61,12.61,0,0,0-2.46.52,31.78,31.78,0,0,0-5.65,2.35A11.21,11.21,0,0,1,165.8,107.47Z"/><path class="cls-4" d="M208.24,116.6l-1.75-1a23.6,23.6,0,0,0,3.2-11.59,21.1,21.1,0,0,0-.54-4.75l1.95-.45a23.36,23.36,0,0,1,.59,5.2A25.68,25.68,0,0,1,208.24,116.6Z"/></g><g class="cls-3"><path class="cls-4" d="M179.21,169.8c-7.13,0-14.35-4.84-14.35-14.1s7.22-14.07,14.35-14.07,14.42,4.93,14.42,14.07a14,14,0,0,1-2,7.4l-1.71-1a12,12,0,0,0,1.7-6.36c0-7.84-6.4-12.07-12.42-12.07s-12.35,4.15-12.35,12.07,6.21,12.1,12.35,12.1Z"/></g></g><g class="cls-6"><g class="cls-3"><path class="cls-7" d="M116,114.06h-.88l-.12-.86c-.4-2.93-.78-5.49-1.12-7.74-1.55-10.32-2.19-14.59,1-19.55s7.76-8.33,12.12-11.44c4.61-3.28,9.38-6.68,12.65-12.35,3.13-5.45,3-11.48-.42-15.72-4.06-5.07-11.65-6.5-20.32-3.81a64.29,64.29,0,0,0-11,4.56c-7.22,3.67-7.74,2.86-16.53-10.76-.91-1.41-1.91-3-3-4.68L87.88,31l.68-.57c18.12-15.18,40.32-19.88,59.38-12.55,13.94,5.36,23.33,16.18,25.12,28.92,2,14.5-6.05,29.41-22.75,42-10.87,8.2-10.39,13.78-10.08,17.48.15,1.8.3,3.5-.93,4.84C137.23,113.34,131.57,114.06,116,114.06Zm11.09-74.8c5.74,0,10.57,2,13.67,5.89,3.92,4.9,4.15,11.78.59,18s-8.43,9.58-13.22,13c-4.4,3.14-8.55,6.1-11.6,10.88-2.75,4.33-2.19,8.1-.67,18.18.31,2,.65,4.32,1,6.9,13.52,0,19.41-.69,20.92-2.33.61-.66.57-1.6.42-3.32-.35-4.14-.88-10.38,10.87-19.24C165.2,75,173,60.79,171.08,47.05c-1.69-12-10.6-22.23-23.86-27.33-18.14-7-39.27-2.61-56.69,11.65l2.54,3.93c4.2,6.51,6.51,10.09,8.25,11.28,1.35.92,2.44.44,5.69-1.21a66.26,66.26,0,0,1,11.31-4.69A29.66,29.66,0,0,1,127.12,39.26Z"/></g><g class="cls-3"><path class="cls-7" d="M125.73,156.17c-8,0-16.53-5-16.53-16.09s8.57-16,16.53-16c8.26,0,16.63,5.51,16.63,16S134,156.17,125.73,156.17Zm0-30.13c-7,0-14.53,4.39-14.53,14s7.53,14.09,14.53,14.09,14.63-4.41,14.63-14.09S132.78,126,125.73,126Z"/></g><g class="cls-3"><path class="cls-7" d="M116,118.69h-4.91l-.67-4.86c-.4-2.91-.78-5.45-1.11-7.68-1.63-10.86-2.45-16.31,1.63-22.73l.3-.46,1.67,1.1-.28.43c-3.68,5.8-2.9,11-1.34,21.36.33,2.24.71,4.79,1.11,7.7l.43,3.14H116c16.82,0,22.47-.86,25.2-3.83a6.28,6.28,0,0,0,1.58-3.17l2,.37a8.24,8.24,0,0,1-2.08,4.15C139.48,117.73,133.74,118.69,116,118.69Z"/><path class="cls-7" d="M139.2,55.5l-2-.23a8.19,8.19,0,0,0,.07-1.09,7.79,7.79,0,0,0-1-4c-1.83-3.17-6-4.76-11.08-4.23l-.2-2c5.93-.61,10.78,1.35,13,5.21a9.8,9.8,0,0,1,1.31,5A11.83,11.83,0,0,1,139.2,55.5Z"/><path class="cls-7" d="M102.69,53.67c-5.65,0-8.25-4-15.19-14.77-.9-1.41-1.9-3-3-4.67l-2.72-4.17,3.82-3.21A73,73,0,0,1,113,12.11l.53,1.93A70.81,70.81,0,0,0,86.87,28.39l-2.46,2.06,1.75,2.69,3,4.67c6.69,10.37,8.95,13.86,13.51,13.86a9.19,9.19,0,0,0,3.69-.86l.78,1.84A11.08,11.08,0,0,1,102.69,53.67Z"/><path class="cls-7" d="M166.07,80.39l-1.53-1.29C172.06,70.25,176,60.61,176,51.23a33.87,33.87,0,0,0-.8-7.3l2-.43a36,36,0,0,1,.85,7.73C178,61.09,173.89,71.18,166.07,80.39Z"/></g><g class="cls-3"><path class="cls-7" d="M125.83,160.8h-.1c-10.51,0-21.16-7.12-21.16-20.72a22.22,22.22,0,0,1,1.1-7.06l1.9.64a20.18,20.18,0,0,0-1,6.42c0,12.29,9.64,18.72,19.16,18.72Zm19-11-1.78-.9a19.26,19.26,0,0,0,2-8.81,18.35,18.35,0,0,0-3.37-11l1.62-1.17A20.32,20.32,0,0,1,147,140.08,21.28,21.28,0,0,1,144.78,149.79Z"/></g></g><g class="cls-8"><g class="cls-3"><path class="cls-9" d="M50.29,58.68h-.87l-.12-.86c-.21-1.58-.42-3-.6-4.16-.83-5.51-1.21-8,.59-10.85s4.26-4.58,6.65-6.28c2.55-1.82,5-3.54,6.67-6.51,1.59-2.76,1.52-5.8-.19-7.94-2.06-2.57-6-3.28-10.43-1.9a35.44,35.44,0,0,0-5.85,2.43c-4.26,2.17-4.75,1.4-9.49-5.95L35,14.14l-.49-.74.68-.57C45.1,4.55,57.22,2,67.64,6c7.66,2.94,12.83,8.9,13.81,15.93,1.12,8-3.29,16.16-12.42,23-5.65,4.26-5.42,7-5.24,9a3.59,3.59,0,0,1-.63,3C61.93,58.27,58.92,58.68,50.29,58.68Zm6-41.19A9.56,9.56,0,0,1,64,20.83c2.23,2.79,2.36,6.7.35,10.19s-4.63,5.28-7.24,7.14c-2.33,1.66-4.54,3.23-6.13,5.73-1.39,2.18-1.09,4.17-.29,9.47.15,1,.31,2.09.49,3.32,4.85,0,9.67-.19,10.52-1.11.2-.21.17-.66.1-1.43-.18-2.19-.5-5.84,6-10.77C76.35,37,80.49,29.43,79.47,22.21c-.88-6.3-5.57-11.66-12.55-14.35C57.43,4.21,46.37,6.44,37.18,13.8l1.15,1.77c2.22,3.45,3.45,5.35,4.31,5.94.47.32.78.24,2.59-.68a37.11,37.11,0,0,1,6.16-2.56A16.85,16.85,0,0,1,56.27,17.49Z"/></g><g class="cls-3"><path class="cls-9" d="M50.29,62.84h-4.5l-.6-4.46c-.21-1.54-.42-2.88-.59-4.06-.91-6-1.45-9.61,1.18-13.74C48,37.07,50.94,35,53.53,33.14c.95-.67,1.85-1.31,2.66-2l1.27,1.54c-.86.72-1.79,1.38-2.77,2.08-2.44,1.74-5.2,3.7-7.22,6.88-2.23,3.5-1.79,6.45-.9,12.33.18,1.23.39,2.58.6,4.13l.37,2.73h2.75c8.61,0,12.52-.34,14.46-2.45a5.63,5.63,0,0,0,1.18-4.61c-.17-2,0-3.81,4.4-7.09.54-.41,1.06-.82,1.57-1.23L73.17,47c-.53.43-1.08.86-1.64,1.28-3.81,2.87-3.71,4.06-3.6,5.32a7.6,7.6,0,0,1-1.71,6.13C63.81,62.37,60,62.84,50.29,62.84Z"/><path class="cls-9" d="M61.38,27.48l-1.92-.57A3.09,3.09,0,0,0,59.6,26a2.1,2.1,0,0,0-.27-1.07L61,23.74a1.74,1.74,0,0,1,.11.18A4.1,4.1,0,0,1,61.6,26,5.29,5.29,0,0,1,61.38,27.48Z"/><path class="cls-9" d="M43.12,27.84c-4.21,0-6-2.8-10-8.93L33,18.73l-1.51-2.32L29,12.58l3.5-2.94C40.07,3.33,48.7,0,57.51,0a35.2,35.2,0,0,1,4.83.34l-.29,2A32.56,32.56,0,0,0,57.51,2C49.18,2,41,5.17,33.83,11.18L31.68,13l1.53,2.35,1.51,2.33.11.18c4,6.22,5.31,8,8.29,8a8.79,8.79,0,0,0,4-1.31,32.61,32.61,0,0,1,5.5-2.29,10.78,10.78,0,0,1,5.22-.45l-.4,2a9,9,0,0,0-4.23.4A30.52,30.52,0,0,0,48,26.32,10.71,10.71,0,0,1,43.12,27.84Z"/><path class="cls-9" d="M83.17,35.05l-1.79-.9a21.57,21.57,0,0,0,2.42-9.73A19.4,19.4,0,0,0,83.29,20l1.95-.46a21.25,21.25,0,0,1,.56,4.88A23.58,23.58,0,0,1,83.17,35.05Z"/></g><g class="cls-3"><path class="cls-9" d="M55.52,92C48.8,92,42,87.4,42,78.68s6.8-13.25,13.52-13.25,13.57,4.64,13.57,13.25A12.74,12.74,0,0,1,64,89.15l-1.2-1.59a10.65,10.65,0,0,0,4.27-8.88c0-7.31-6-11.25-11.57-11.25S44,71.29,44,78.68,49.8,90,55.52,90Z"/></g><g class="cls-3"><path class="cls-9" d="M55.52,87.81c-4.65,0-9.36-3.14-9.36-9.13s4.71-9.1,9.36-9.1,9.41,3.13,9.41,9.1S60.2,87.81,55.52,87.81Zm0-16.23c-3.55,0-7.36,2.23-7.36,7.1s3.81,7.13,7.36,7.13,7.41-2.23,7.41-7.13a6.76,6.76,0,0,0-2.28-5.31A7.88,7.88,0,0,0,55.52,71.58Z"/></g></g></g></g></g></svg>