<?xml version="1.0" encoding="utf-8"?>
<!-- Generator: Adobe Illustrator 25.2.1, SVG Export Plug-In . SVG Version: 6.00 Build 0)  -->
<svg version="1.1" id="Layer_1" xmlns="http://www.w3.org/2000/svg" xmlns:xlink="http://www.w3.org/1999/xlink" x="0px" y="0px"
	 viewBox="0 0 195.3 205.2" style="enable-background:new 0 0 195.3 205.2;" xml:space="preserve">
<style type="text/css">
	.st0{fill:url(#SVGID_1_);}
</style>
<g>
	<g id="Layer_2_1_">
		<g id="contenedor">
			
				<linearGradient id="SVGID_1_" gradientUnits="userSpaceOnUse" x1="101.8284" y1="761.7004" x2="92.6384" y2="570.2104" gradientTransform="matrix(1 0 0 1 0 -568)">
				<stop  offset="0" style="stop-color:#3C7D84"/>
				<stop  offset="6.000000e-02" style="stop-color:#3B878D"/>
				<stop  offset="0.25" style="stop-color:#399DA2"/>
				<stop  offset="0.44" style="stop-color:#37ACB1"/>
				<stop  offset="0.67" style="stop-color:#36B5B9"/>
				<stop  offset="1" style="stop-color:#36B8BC"/>
			</linearGradient>
			<path class="st0" d="M97.2,0.1C43.5,0.1,0,43.6,0,97.3s43.5,97.2,97.2,97.2s97.2-43.5,97.2-97.2l0,0
				C194.5,43.6,150.9,0.1,97.2,0.1z M115,176.9l-8.2-5.1v-50.4h12.4v19h14.4v-33.2H64.4v33.1H80v-18.7h11.3v50.3l-8.2,5.7
				c-44.4-8-74-50.6-65.9-95c6-33.4,32.1-59.6,65.4-65.8l9.2,5.8l-0.4,49.8H79.6l-0.1-19.3l-15.2,0.1v33.7h69V53.1h-14.4l0.2,19.5
				h-12.4l-0.2-50l9.8-5.2c43.9,10.4,71.1,54.5,60.7,98.4C169.8,146.5,145.6,170.2,115,176.9L115,176.9z"/>
		</g>
	</g>
</g>
</svg>
