<svg xmlns="http://www.w3.org/2000/svg" xmlns:xlink="http://www.w3.org/1999/xlink" viewBox="0 0 475.9 197.6"><defs><style>.cls-1{fill:none;}.cls-2{isolation:isolate;}.cls-3,.cls-4{opacity:0.1;mix-blend-mode:darken;}.cls-3{fill:url(#Degradado_sin_nombre_20);}.cls-5{clip-path:url(#clip-path);}.cls-6{fill:#fff;}.cls-7{fill:#fefefe;}.cls-8{fill:#fdfdfd;}.cls-9{fill:#fcfcfc;}.cls-10{fill:#fbfbfb;}.cls-11{fill:#fafafa;}.cls-12{fill:#fafaf9;}.cls-13{fill:#f9f9f9;}.cls-14{fill:#f8f8f8;}.cls-15{fill:#f8f7f7;}.cls-16{fill:#f7f7f7;}.cls-17{fill:#f6f6f6;}.cls-18{fill:#f5f5f5;}.cls-19{fill:#f4f4f4;}.cls-20{fill:#f3f3f3;}.cls-21{fill:#f2f2f2;}.cls-22{fill:#f1f1f1;}.cls-23{fill:#f0f0f0;}.cls-24{fill:#efefef;}.cls-25{fill:#eee;}.cls-26{fill:#ededed;}.cls-27{fill:#ededec;}.cls-28{fill:#ececec;}.cls-29{fill:#ebebeb;}.cls-30{fill:#eaeaea;}.cls-31{fill:#eae9e9;}.cls-32{fill:#e9e9e9;}.cls-33{fill:#e8e8e8;}.cls-34{fill:#e7e7e7;}.cls-35{fill:#e6e6e6;}.cls-36{fill:#e5e5e5;}.cls-37{fill:#e5e4e4;}.cls-38{fill:#e4e4e4;}.cls-39{fill:#e3e3e3;}.cls-40{fill:#e2e2e2;}.cls-41{fill:#e1e1e1;}.cls-42{fill:#e0e0e0;}.cls-43{fill:#e0e0df;}.cls-44{fill:#dfdfdf;}.cls-45{fill:#dedede;}.cls-46{fill:#ddd;}.cls-47{fill:#dcdcdc;}.cls-48{fill:#dbdbdb;}.cls-49{fill:#dadada;}.cls-50{fill:#d9d9d9;}.cls-51{fill:#d8d8d8;}.cls-52{fill:#d7d7d6;}.cls-53{fill:#d5d5d5;}.cls-54{fill:#d4d4d4;}.cls-55{fill:#d3d3d3;}.cls-56{fill:#d2d2d2;}.cls-57{fill:#d1d0d0;}.cls-58{fill:#cfcfcf;}.cls-59{fill:#cecece;}.cls-60{fill:#cdcccc;}.cls-61{fill:#cbcbcb;}.cls-62{fill:#cacac9;}.cls-63{fill:#c8c8c8;}.cls-64{fill:#c7c7c7;}.cls-65{fill:#c6c5c5;}.cls-66{fill:#c4c4c4;}.cls-67{fill:#c2c2c2;}.cls-68{fill:#c1c1c1;}.cls-69{fill:#bfbfbf;}.cls-70{fill:#bebebd;}.cls-71{fill:#bcbcbc;}.cls-72{fill:#bababa;}.cls-73{fill:#b9b8b8;}.cls-74{fill:#b7b7b6;}.cls-75{fill:#b5b5b4;}.cls-76{fill:#b3b3b3;}.cls-77{fill:#b1b1b1;}.cls-78{fill:#afafae;}.cls-79{fill:#adadac;}.cls-80{fill:#ababaa;}.cls-81{fill:#a9a8a8;}.cls-82{fill:#a6a6a6;}.cls-83{fill:#a4a4a4;}.cls-84{fill:#a2a2a1;}.cls-85{fill:#9f9f9f;}.cls-86{fill:#9d9d9c;}.cls-87{fill:#9b9a9a;}.cls-88{fill:#989897;}.cls-89{fill:#969595;}.cls-90{fill:#939392;}.cls-91{fill:#909090;}.cls-92{fill:#8e8d8d;}.cls-93{fill:#8b8b8a;}.cls-94{fill:#888887;}.cls-95{fill:#858584;}.cls-96{fill:#828281;}.cls-97{fill:#7f7f7e;}.cls-98{fill:#7c7b7b;}.cls-99{fill:#787877;}.cls-100{fill:#757474;}.cls-101{fill:#717170;}.cls-102{fill:#6e6d6d;}.cls-103{fill:#6a6a69;}.cls-104{fill:#666665;}.cls-105{fill:#636262;}.cls-106{fill:#5f5e5e;}.cls-107{fill:#5b5b5a;}.cls-108{fill:#575756;}.cls-109{fill:#535251;}.cls-110{fill:#4e4e4d;}.cls-111{fill:#494948;}.cls-112{fill:#454444;}.cls-113{fill:#403f3f;}.cls-114{fill:#3b3a3a;}.cls-115{fill:#353534;}.cls-116{fill:#30302f;}.cls-117{fill:#2a2a29;}.cls-118{fill:#242422;}.cls-119{fill:#1d1d1b;}.cls-120{clip-path:url(#clip-path-2);}.cls-121{fill:#393837;}.cls-122{fill:url(#linear-gradient);}.cls-123{fill:#3c3c3b;}</style><linearGradient id="Degradado_sin_nombre_20" x1="7.43" y1="100.36" x2="201.91" y2="100.36" gradientUnits="userSpaceOnUse"><stop offset="0" stop-color="#fff"/><stop offset="0" stop-color="#fdfdfd"/><stop offset="0" stop-color="#f6f6f6"/><stop offset="0" stop-color="#ebebeb"/><stop offset="0" stop-color="#dadada"/><stop offset="0" stop-color="#c4c4c4"/><stop offset="0" stop-color="#a8a8a8"/><stop offset="0" stop-color="#888"/><stop offset="0" stop-color="#626262"/><stop offset="0" stop-color="#373737"/><stop offset="0" stop-color="#090909"/><stop offset="0"/></linearGradient><clipPath id="clip-path"><path class="cls-1" d="M235.07,99.23V47H216.4V36.31h50V47H247.78V99.23Z"/></clipPath><clipPath id="clip-path-2"><path class="cls-1" d="M234.93,174.31V124.6H216.36V118H261v6.65H242.39v49.71Z"/></clipPath><linearGradient id="linear-gradient" x1="101.86" y1="193.55" x2="92.67" y2="2.06" gradientUnits="userSpaceOnUse"><stop offset="0" stop-color="#3c7d84"/><stop offset="0.06" stop-color="#3b878d"/><stop offset="0.25" stop-color="#399da2"/><stop offset="0.44" stop-color="#37acb1"/><stop offset="0.67" stop-color="#36b5b9"/><stop offset="1" stop-color="#36b8bc"/></linearGradient></defs><g class="cls-2"><g id="Layer_2" data-name="Layer 2"><g id="contenedor"><path class="cls-3" d="M104.67,3.12a97.24,97.24,0,1,0,97.24,97.24A97.23,97.23,0,0,0,104.67,3.12Zm17.72,176.8-8.24-5.11V124.36h12.36v19h14.42V110.21H71.84V143.3H87.4V124.57H98.75v50.26l-8.24,5.71A81.79,81.79,0,0,1,90,19.66l9.26,5.82-.42,49.84H87.07l-.15-19.27-15.22.13V89.89h69V56.16H126.28l.21,19.53H114.12l-.2-50,9.83-5.19a81.77,81.77,0,0,1-1.42,159.47Z"/><g class="cls-4"><g class="cls-5"><path class="cls-6" d="M216.4,36.31v0Z"/><path class="cls-6" d="M216.4,36.31v0Z"/><path class="cls-6" d="M216.4,36.31v0Z"/><path class="cls-6" d="M216.4,36.31v0Z"/><path class="cls-6" d="M216.4,36.31v0Z"/><path class="cls-6" d="M216.4,36.31v0Z"/><path class="cls-6" d="M216.4,36.31v0Z"/><path class="cls-6" d="M216.4,36.31v0Z"/><path class="cls-6" d="M216.4,36.31v0Z"/><path class="cls-6" d="M216.4,36.31v0Z"/><path class="cls-6" d="M216.4,36.31v0Z"/><path class="cls-6" d="M216.4,36.31v0Z"/><path class="cls-6" d="M216.4,36.31v0Z"/><path class="cls-6" d="M216.4,36.31v0Z"/><path class="cls-6" d="M216.4,36.31v0Z"/><path class="cls-6" d="M216.4,36.31v0Z"/><path class="cls-6" d="M216.4,36.31v0Z"/><path class="cls-6" d="M216.4,36.31v0Z"/><path class="cls-6" d="M216.4,36.31v0Z"/><path class="cls-6" d="M216.4,36.31v0Z"/><path class="cls-6" d="M216.4,36.31v0Z"/><path class="cls-6" d="M216.4,36.31v0Z"/><path class="cls-6" d="M216.4,36.31v0Z"/><path class="cls-6" d="M216.4,36.31v0Z"/><path class="cls-6" d="M216.4,36.31v0Z"/><path class="cls-6" d="M216.4,36.31v0Z"/><path class="cls-6" d="M216.4,36.31v0Z"/><path class="cls-6" d="M216.4,36.31v0Z"/><path class="cls-6" d="M216.4,36.31v0Z"/><path class="cls-6" d="M216.4,36.31v0Z"/><path class="cls-6" d="M216.4,36.31v0Z"/><path class="cls-6" d="M216.4,36.31v0Z"/><path class="cls-6" d="M216.4,36.31v0Z"/><path class="cls-6" d="M216.4,36.31v0Z"/><path class="cls-6" d="M216.4,36.31v0Z"/><path class="cls-6" d="M216.4,36.31v0Z"/><path class="cls-6" d="M216.4,36.31v0Z"/><path class="cls-6" d="M216.4,36.31v0Z"/><path class="cls-6" d="M216.4,36.31v0Z"/><path class="cls-6" d="M216.4,36.31v0Z"/><path class="cls-6" d="M216.4,36.31v0Z"/><path class="cls-6" d="M216.4,36.31v0Z"/><path class="cls-6" d="M216.4,36.31v0Z"/><path class="cls-6" d="M216.4,36.31v0Z"/><path class="cls-6" d="M216.4,36.31v0Z"/><path class="cls-6" d="M216.4,36.31v0Z"/><path class="cls-6" d="M216.4,36.31v0Z"/><path class="cls-6" d="M216.4,36.31v0Z"/><path class="cls-6" d="M216.4,36.31v0Z"/><path class="cls-6" d="M216.4,36.31v0Z"/><path class="cls-6" d="M216.4,36.31v0Z"/><path class="cls-6" d="M216.4,36.31v0Z"/><path class="cls-6" d="M216.4,36.31v0Z"/><path class="cls-6" d="M216.4,36.31v0Z"/><path class="cls-6" d="M216.4,36.31v0Z"/><path class="cls-6" d="M216.4,36.31v0Z"/><path class="cls-6" d="M216.4,36.31v0Z"/><path class="cls-6" d="M216.4,36.31v0Z"/><path class="cls-6" d="M216.4,36.31v0Z"/><path class="cls-6" d="M216.4,36.31v0Z"/><path class="cls-6" d="M216.4,36.31v0Z"/><path class="cls-6" d="M216.4,36.31v0Z"/><path class="cls-6" d="M216.4,36.31v0Z"/><path class="cls-6" d="M216.4,36.31v0Z"/><path class="cls-6" d="M216.4,36.31v0Z"/><path class="cls-6" d="M216.4,36.31v0Z"/><path class="cls-6" d="M216.4,36.31v0Z"/><path class="cls-6" d="M216.4,36.31v0Z"/><path class="cls-6" d="M216.4,36.31v0Z"/><path class="cls-6" d="M216.4,36.31v0Z"/><path class="cls-6" d="M216.4,36.31v0Z"/><path class="cls-6" d="M216.4,36.31v0Z"/><path class="cls-6" d="M216.4,36.31v0Z"/><path class="cls-6" d="M216.4,36.31v0Z"/><path class="cls-6" d="M216.4,36.31v0Z"/><path class="cls-6" d="M216.4,36.31v0Z"/><path class="cls-6" d="M216.4,36.31v0Z"/><path class="cls-6" d="M216.4,36.31v0Z"/><path class="cls-6" d="M216.4,36.31v0Z"/><path class="cls-6" d="M216.4,36.31v0Z"/><path class="cls-7" d="M216.4,36.31v0Z"/><path class="cls-7" d="M216.4,36.31v0Z"/><path class="cls-7" d="M216.4,36.31v0Z"/><path class="cls-7" d="M216.4,36.31v0Z"/><path class="cls-7" d="M216.4,36.31v0Z"/><path class="cls-7" d="M216.4,36.31v0Z"/><path class="cls-7" d="M216.4,36.31v0Z"/><path class="cls-7" d="M216.4,36.31v0Z"/><path class="cls-7" d="M216.4,36.31v0Z"/><path class="cls-7" d="M216.4,36.31v0Z"/><path class="cls-7" d="M216.4,36.31v0Z"/><path class="cls-7" d="M216.4,36.31v0Z"/><path class="cls-7" d="M216.4,36.31v0Z"/><path class="cls-7" d="M216.4,36.31v0Z"/><path class="cls-7" d="M216.4,36.31v0Z"/><path class="cls-7" d="M216.4,36.31v0Z"/><path class="cls-7" d="M216.4,36.31v0Z"/><path class="cls-7" d="M216.4,36.31v0Z"/><path class="cls-7" d="M216.4,36.31v0Z"/><path class="cls-8" d="M216.4,36.31v0Z"/><path class="cls-8" d="M216.4,36.31v0Z"/><path class="cls-8" d="M216.4,36.31v0Z"/><path class="cls-8" d="M216.4,36.31v0Z"/><path class="cls-8" d="M216.4,36.31v0Z"/><path class="cls-8" d="M216.4,36.31v0Z"/><path class="cls-8" d="M216.4,36.31v0Z"/><path class="cls-8" d="M216.4,36.31v0Z"/><path class="cls-8" d="M216.4,36.31v0Z"/><path class="cls-8" d="M216.4,36.31v0Z"/><path class="cls-8" d="M216.4,36.31v0Z"/><path class="cls-9" d="M216.4,36.31v0Z"/><path class="cls-9" d="M216.4,36.31v0Z"/><path class="cls-9" d="M216.4,36.31v0Z"/><path class="cls-9" d="M216.4,36.31v0Z"/><path class="cls-9" d="M216.4,36.31v0Z"/><path class="cls-9" d="M216.4,36.31v0Z"/><path class="cls-9" d="M216.4,36.31v0Z"/><path class="cls-10" d="M216.4,36.31v0Z"/><path class="cls-10" d="M216.4,36.31v0Z"/><path class="cls-10" d="M216.4,36.31v0Z"/><path class="cls-10" d="M216.4,36.31v0Z"/><path class="cls-10" d="M216.4,36.31v0Z"/><path class="cls-10" d="M216.4,36.31v0Z"/><path class="cls-11" d="M216.4,36.31v0Z"/><path class="cls-11" d="M216.4,36.31v0Z"/><path class="cls-11" d="M216.4,36.31v0Z"/><path class="cls-11" d="M216.4,36.31v0Z"/><path class="cls-12" d="M216.4,36.31v0Z"/><path class="cls-13" d="M216.4,36.31v0Z"/><path class="cls-13" d="M216.4,36.31v0Z"/><path class="cls-13" d="M216.4,36.31v0Z"/><path class="cls-13" d="M216.4,36.31v0Z"/><path class="cls-14" d="M216.4,36.31v0Z"/><path class="cls-14" d="M216.4,36.31v0Z"/><path class="cls-14" d="M216.4,36.31v0Z"/><path class="cls-15" d="M216.4,36.31v0Z"/><path class="cls-16" d="M216.4,36.31v0Z"/><path class="cls-16" d="M216.4,36.31v0Z"/><path class="cls-16" d="M216.4,36.31v0Z"/><path class="cls-17" d="M216.4,36.31v0Z"/><path class="cls-17" d="M216.4,36.31v0Z"/><path class="cls-17" d="M216.4,36.31v0Z"/><path class="cls-18" d="M216.4,36.31v0Z"/><path class="cls-18" d="M216.4,36.31v0Z"/><path class="cls-18" d="M216.4,36.31v0Z"/><path class="cls-19" d="M216.4,36.31v0Z"/><path class="cls-19" d="M216.4,36.31v0Z"/><path class="cls-20" d="M216.4,36.31v0Z"/><path class="cls-20" d="M216.4,36.31v0Z"/><path class="cls-20" d="M216.4,36.31v0Z"/><path class="cls-21" d="M216.4,36.31v0Z"/><path class="cls-21" d="M216.4,36.31v0Z"/><path class="cls-22" d="M216.4,36.31v0Z"/><path class="cls-22" d="M216.4,36.31v0Z"/><path class="cls-23" d="M216.4,36.31v0Z"/><path class="cls-23" d="M216.4,36.31v0Z"/><path class="cls-24" d="M216.4,36.31v0Z"/><path class="cls-24" d="M216.4,36.31v0Z"/><path class="cls-25" d="M216.4,36.31v0Z"/><path class="cls-25" d="M216.4,36.31v0Z"/><path class="cls-26" d="M216.4,36.31v0Z"/><path class="cls-27" d="M216.4,36.31v0Z"/><path class="cls-28" d="M216.4,36.31v0Z"/><path class="cls-29" d="M216.4,36.31v0Z"/><path class="cls-29" d="M216.4,36.31v0Z"/><path class="cls-30" d="M216.4,36.31v0Z"/><path class="cls-31" d="M216.4,36.31v0Z"/><path class="cls-32" d="M216.4,36.31v0Z"/><path class="cls-33" d="M216.4,36.31v0Z"/><path class="cls-34" d="M216.4,36.31v0Z"/><path class="cls-34" d="M216.4,36.31v0Z"/><path class="cls-35" d="M216.4,36.31v0Z"/><path class="cls-36" d="M216.4,36.31v0Z"/><path class="cls-37" d="M216.4,36.31v0Z"/><path class="cls-38" d="M216.4,36.31v0Z"/><path class="cls-39" d="M216.4,36.31v0Z"/><path class="cls-40" d="M216.4,36.31v0Z"/><path class="cls-41" d="M216.4,36.31v0Z"/><path class="cls-42" d="M216.4,36.31v0Z"/><path class="cls-43" d="M216.4,36.31v0Z"/><path class="cls-44" d="M216.4,36.31v0Z"/><path class="cls-45" d="M216.4,36.31v0Z"/><path class="cls-46" d="M216.4,36.31v0Z"/><path class="cls-47" d="M216.4,36.31v0Z"/><path class="cls-48" d="M216.4,36.31v0Z"/><path class="cls-49" d="M216.4,36.31v0Z"/><path class="cls-50" d="M216.4,36.31v0Z"/><path class="cls-51" d="M216.4,36.31v0Z"/><path class="cls-52" d="M216.4,36.31v0Z"/><path class="cls-53" d="M216.4,36.31v0Z"/><path class="cls-54" d="M216.4,36.31v0Z"/><path class="cls-55" d="M216.4,36.31v0Z"/><path class="cls-56" d="M216.4,36.31v0Z"/><path class="cls-57" d="M216.4,36.31v0Z"/><path class="cls-58" d="M216.4,36.31v0Z"/><path class="cls-59" d="M216.4,36.31v0Z"/><path class="cls-60" d="M216.4,36.31v0Z"/><path class="cls-61" d="M216.4,36.31v0Z"/><path class="cls-62" d="M216.4,36.31v0Z"/><path class="cls-63" d="M216.4,36.31v0Z"/><path class="cls-64" d="M216.4,36.31v0Z"/><path class="cls-65" d="M216.4,36.31v0Z"/><path class="cls-66" d="M216.4,36.31v0Z"/><path class="cls-67" d="M216.4,36.31v0Z"/><path class="cls-68" d="M216.4,36.31v0Z"/><path class="cls-69" d="M216.4,36.31v0Z"/><path class="cls-70" d="M216.4,36.31v0Z"/><path class="cls-71" d="M216.4,36.31v0Z"/><path class="cls-72" d="M216.4,36.31v0Z"/><path class="cls-73" d="M216.4,36.31v0Z"/><path class="cls-74" d="M216.4,36.31v0Z"/><path class="cls-75" d="M216.4,36.31v0Z"/><path class="cls-76" d="M216.4,36.31v0Z"/><path class="cls-77" d="M216.4,36.31v0Z"/><path class="cls-78" d="M216.4,36.31v0Z"/><path class="cls-79" d="M216.4,36.31v0Z"/><path class="cls-80" d="M216.4,36.31v0Z"/><path class="cls-81" d="M216.4,36.31v0Z"/><path class="cls-82" d="M216.4,36.31v0Z"/><path class="cls-83" d="M216.4,36.31v0Z"/><path class="cls-84" d="M216.4,36.31v0Z"/><path class="cls-85" d="M216.4,36.31v0Z"/><path class="cls-86" d="M216.4,36.31v0Z"/><path class="cls-87" d="M216.4,36.31v0Z"/><path class="cls-88" d="M216.4,36.31v0Z"/><path class="cls-89" d="M216.4,36.31v0Z"/><path class="cls-90" d="M216.4,36.31v0Z"/><path class="cls-91" d="M216.4,36.31v0Z"/><path class="cls-92" d="M216.4,36.31v0Z"/><path class="cls-93" d="M216.4,36.31v0Z"/><path class="cls-94" d="M216.4,36.31v0Z"/><path class="cls-95" d="M216.4,36.31v0Z"/><path class="cls-96" d="M216.4,36.31v0Z"/><path class="cls-97" d="M216.4,36.31v0Z"/><path class="cls-98" d="M216.4,36.31v0Z"/><path class="cls-99" d="M216.4,36.31v0Z"/><path class="cls-100" d="M216.4,36.31v0Z"/><path class="cls-101" d="M216.4,36.31v0Z"/><path class="cls-102" d="M216.4,36.31v0Z"/><path class="cls-103" d="M216.4,36.31v0Z"/><path class="cls-104" d="M216.4,36.31v0Z"/><path class="cls-105" d="M216.4,36.31v0Z"/><path class="cls-106" d="M216.4,36.31v0Z"/><path class="cls-107" d="M216.4,36.31v0Z"/><path class="cls-108" d="M216.4,36.31v0Z"/><path class="cls-109" d="M216.4,36.31v0Z"/><path class="cls-110" d="M216.4,36.31v0Z"/><path class="cls-111" d="M216.4,36.31v0Z"/><path class="cls-112" d="M216.4,36.31v0Z"/><path class="cls-113" d="M216.4,36.31v0Z"/><path class="cls-114" d="M216.4,36.31v0Z"/><path class="cls-115" d="M216.4,36.31v0Z"/><path class="cls-116" d="M216.4,36.31v0Z"/><path class="cls-117" d="M216.4,36.31v0Z"/><path class="cls-118" d="M216.4,36.31v0Z"/><path class="cls-119" d="M216.4,36.31v0Z"/><path class="cls-119" d="M216.4,36.31v0Z"/></g><g class="cls-120"><path class="cls-6" d="M216.36,118v0Z"/><path class="cls-6" d="M216.36,118v0Z"/><path class="cls-6" d="M216.36,118v0Z"/><path class="cls-6" d="M216.36,118v0Z"/><path class="cls-6" d="M216.36,118v0Z"/><path class="cls-6" d="M216.36,118v0Z"/><path class="cls-6" d="M216.36,118v0Z"/><path class="cls-6" d="M216.36,118v0Z"/><path class="cls-6" d="M216.36,118v0Z"/><path class="cls-6" d="M216.36,118v0Z"/><path class="cls-6" d="M216.36,118v0Z"/><path class="cls-6" d="M216.36,118v0Z"/><path class="cls-6" d="M216.36,118v0Z"/><path class="cls-6" d="M216.36,118v0Z"/><path class="cls-6" d="M216.36,118v0Z"/><path class="cls-6" d="M216.36,118v0Z"/><path class="cls-6" d="M216.36,118v0Z"/><path class="cls-6" d="M216.36,118v0Z"/><path class="cls-6" d="M216.36,118v0Z"/><path class="cls-6" d="M216.36,118v0Z"/><path class="cls-6" d="M216.36,118v0Z"/><path class="cls-6" d="M216.36,118v0Z"/><path class="cls-6" d="M216.36,118v0Z"/><path class="cls-6" d="M216.36,118v0Z"/><path class="cls-6" d="M216.36,118v0Z"/><path class="cls-6" d="M216.36,118v0Z"/><path class="cls-6" d="M216.36,118v0Z"/><path class="cls-6" d="M216.36,118v0Z"/><path class="cls-6" d="M216.36,118v0Z"/><path class="cls-6" d="M216.36,118v0Z"/><path class="cls-6" d="M216.36,118v0Z"/><path class="cls-6" d="M216.36,118v0Z"/><path class="cls-6" d="M216.36,118v0Z"/><path class="cls-6" d="M216.36,118v0Z"/><path class="cls-6" d="M216.36,118v0Z"/><path class="cls-6" d="M216.36,118v0Z"/><path class="cls-6" d="M216.36,118v0Z"/><path class="cls-6" d="M216.36,118v0Z"/><path class="cls-6" d="M216.36,118v0Z"/><path class="cls-6" d="M216.36,118v0Z"/><path class="cls-6" d="M216.36,118v0Z"/><path class="cls-6" d="M216.36,118v0Z"/><path class="cls-6" d="M216.36,118v0Z"/><path class="cls-6" d="M216.36,118v0Z"/><path class="cls-6" d="M216.36,118v0Z"/><path class="cls-6" d="M216.36,118v0Z"/><path class="cls-6" d="M216.36,118v0Z"/><path class="cls-6" d="M216.36,118v0Z"/><path class="cls-6" d="M216.36,118v0Z"/><path class="cls-6" d="M216.36,118v0Z"/><path class="cls-6" d="M216.36,118v0Z"/><path class="cls-6" d="M216.36,118v0Z"/><path class="cls-6" d="M216.36,118v0Z"/><path class="cls-6" d="M216.36,118v0Z"/><path class="cls-6" d="M216.36,118v0Z"/><path class="cls-6" d="M216.36,118v0Z"/><path class="cls-6" d="M216.36,118v0Z"/><path class="cls-6" d="M216.36,118v0Z"/><path class="cls-6" d="M216.36,118v0Z"/><path class="cls-6" d="M216.36,118v0Z"/><path class="cls-6" d="M216.36,118v0Z"/><path class="cls-6" d="M216.36,118v0Z"/><path class="cls-6" d="M216.36,118v0Z"/><path class="cls-6" d="M216.36,118v0Z"/><path class="cls-6" d="M216.36,118v0Z"/><path class="cls-6" d="M216.36,118v0Z"/><path class="cls-6" d="M216.36,118v0Z"/><path class="cls-6" d="M216.36,118v0Z"/><path class="cls-6" d="M216.36,118v0Z"/><path class="cls-6" d="M216.36,118v0Z"/><path class="cls-6" d="M216.36,118v0Z"/><path class="cls-6" d="M216.36,118v0Z"/><path class="cls-6" d="M216.36,118v0Z"/><path class="cls-6" d="M216.36,118v0Z"/><path class="cls-6" d="M216.36,118v0Z"/><path class="cls-6" d="M216.36,118v0Z"/><path class="cls-6" d="M216.36,118v0Z"/><path class="cls-6" d="M216.36,118v0Z"/><path class="cls-6" d="M216.36,118v0Z"/><path class="cls-6" d="M216.36,118v0Z"/><path class="cls-7" d="M216.36,118v0Z"/><path class="cls-7" d="M216.36,118v0Z"/><path class="cls-7" d="M216.36,118v0Z"/><path class="cls-7" d="M216.36,118v0Z"/><path class="cls-7" d="M216.36,118v0Z"/><path class="cls-7" d="M216.36,118v0Z"/><path class="cls-7" d="M216.36,118v0Z"/><path class="cls-7" d="M216.36,118v0Z"/><path class="cls-7" d="M216.36,118v0Z"/><path class="cls-7" d="M216.36,118v0Z"/><path class="cls-7" d="M216.36,118v0Z"/><path class="cls-7" d="M216.36,118v0Z"/><path class="cls-7" d="M216.36,118v0Z"/><path class="cls-7" d="M216.36,118v0Z"/><path class="cls-7" d="M216.36,118v0Z"/><path class="cls-7" d="M216.36,118v0Z"/><path class="cls-7" d="M216.36,118v0Z"/><path class="cls-7" d="M216.36,118v0Z"/><path class="cls-7" d="M216.36,118v0Z"/><path class="cls-8" d="M216.36,118v0Z"/><path class="cls-8" d="M216.36,118v0Z"/><path class="cls-8" d="M216.36,118v0Z"/><path class="cls-8" d="M216.36,118v0Z"/><path class="cls-8" d="M216.36,118v0Z"/><path class="cls-8" d="M216.36,118v0Z"/><path class="cls-8" d="M216.36,118v0Z"/><path class="cls-8" d="M216.36,118v0Z"/><path class="cls-8" d="M216.36,118v0Z"/><path class="cls-8" d="M216.36,118v0Z"/><path class="cls-8" d="M216.36,118v0Z"/><path class="cls-9" d="M216.36,118v0Z"/><path class="cls-9" d="M216.36,118v0Z"/><path class="cls-9" d="M216.36,118v0Z"/><path class="cls-9" d="M216.36,118v0Z"/><path class="cls-9" d="M216.36,118v0Z"/><path class="cls-9" d="M216.36,118v0Z"/><path class="cls-9" d="M216.36,118v0Z"/><path class="cls-10" d="M216.36,118v0Z"/><path class="cls-10" d="M216.36,118v0Z"/><path class="cls-10" d="M216.36,118v0Z"/><path class="cls-10" d="M216.36,118v0Z"/><path class="cls-10" d="M216.36,118v0Z"/><path class="cls-10" d="M216.36,118v0Z"/><path class="cls-11" d="M216.36,118v0Z"/><path class="cls-11" d="M216.36,118v0Z"/><path class="cls-11" d="M216.36,118v0Z"/><path class="cls-11" d="M216.36,118v0Z"/><path class="cls-12" d="M216.36,118v0Z"/><path class="cls-13" d="M216.36,118v0Z"/><path class="cls-13" d="M216.36,118v0Z"/><path class="cls-13" d="M216.36,118v0Z"/><path class="cls-13" d="M216.36,118v0Z"/><path class="cls-14" d="M216.36,118v0Z"/><path class="cls-14" d="M216.36,118v0Z"/><path class="cls-14" d="M216.36,118v0Z"/><path class="cls-15" d="M216.36,118v0Z"/><path class="cls-16" d="M216.36,118v0Z"/><path class="cls-16" d="M216.36,118v0Z"/><path class="cls-16" d="M216.36,118v0Z"/><path class="cls-17" d="M216.36,118v0Z"/><path class="cls-17" d="M216.36,118v0Z"/><path class="cls-17" d="M216.36,118v0Z"/><path class="cls-18" d="M216.36,118v0Z"/><path class="cls-18" d="M216.36,118v0Z"/><path class="cls-18" d="M216.36,118v0Z"/><path class="cls-19" d="M216.36,118v0Z"/><path class="cls-19" d="M216.36,118v0Z"/><path class="cls-20" d="M216.36,118v0Z"/><path class="cls-20" d="M216.36,118v0Z"/><path class="cls-20" d="M216.36,118v0Z"/><path class="cls-21" d="M216.36,118v0Z"/><path class="cls-21" d="M216.36,118v0Z"/><path class="cls-22" d="M216.36,118v0Z"/><path class="cls-22" d="M216.36,118v0Z"/><path class="cls-23" d="M216.36,118v0Z"/><path class="cls-23" d="M216.36,118v0Z"/><path class="cls-24" d="M216.36,118v0Z"/><path class="cls-24" d="M216.36,118v0Z"/><path class="cls-25" d="M216.36,118v0Z"/><path class="cls-25" d="M216.36,118v0Z"/><path class="cls-26" d="M216.36,118v0Z"/><path class="cls-27" d="M216.36,118v0Z"/><path class="cls-28" d="M216.36,118v0Z"/><path class="cls-29" d="M216.36,118v0Z"/><path class="cls-29" d="M216.36,118v0Z"/><path class="cls-30" d="M216.36,118v0Z"/><path class="cls-31" d="M216.36,118v0Z"/><path class="cls-32" d="M216.36,118v0Z"/><path class="cls-33" d="M216.36,118v0Z"/><path class="cls-34" d="M216.36,118v0Z"/><path class="cls-34" d="M216.36,118v0Z"/><path class="cls-35" d="M216.36,118v0Z"/><path class="cls-36" d="M216.36,118v0Z"/><path class="cls-37" d="M216.36,118v0Z"/><path class="cls-38" d="M216.36,118v0Z"/><path class="cls-39" d="M216.36,118v0Z"/><path class="cls-40" d="M216.36,118v0Z"/><path class="cls-41" d="M216.36,118v0Z"/><path class="cls-42" d="M216.36,118v0Z"/><path class="cls-43" d="M216.36,118v0Z"/><path class="cls-44" d="M216.36,118v0Z"/><path class="cls-45" d="M216.36,118v0Z"/><path class="cls-46" d="M216.36,118v0Z"/><path class="cls-47" d="M216.36,118v0Z"/><path class="cls-48" d="M216.36,118v0Z"/><path class="cls-49" d="M216.36,118v0Z"/><path class="cls-50" d="M216.36,118v0Z"/><path class="cls-51" d="M216.36,118v0Z"/><path class="cls-52" d="M216.36,118v0Z"/><path class="cls-53" d="M216.36,118v0Z"/><path class="cls-54" d="M216.36,118v0Z"/><path class="cls-55" d="M216.36,118v0Z"/><path class="cls-56" d="M216.36,118v0Z"/><path class="cls-57" d="M216.36,118v0Z"/><path class="cls-58" d="M216.36,118v0Z"/><path class="cls-59" d="M216.36,118v0Z"/><path class="cls-60" d="M216.36,118v0Z"/><path class="cls-61" d="M216.36,118v0Z"/><path class="cls-62" d="M216.36,118v0Z"/><path class="cls-63" d="M216.36,118v0Z"/><path class="cls-64" d="M216.36,118v0Z"/><path class="cls-65" d="M216.36,118v0Z"/><path class="cls-66" d="M216.36,118v0Z"/><path class="cls-67" d="M216.36,118v0Z"/><path class="cls-68" d="M216.36,118v0Z"/><path class="cls-69" d="M216.36,118v0Z"/><path class="cls-70" d="M216.36,118v0Z"/><path class="cls-71" d="M216.36,118v0Z"/><path class="cls-72" d="M216.36,118v0Z"/><path class="cls-73" d="M216.36,118v0Z"/><path class="cls-74" d="M216.36,118v0Z"/><path class="cls-75" d="M216.36,118v0Z"/><path class="cls-76" d="M216.36,118v0Z"/><path class="cls-77" d="M216.36,118v0Z"/><path class="cls-78" d="M216.36,118v0Z"/><path class="cls-79" d="M216.36,118v0Z"/><path class="cls-80" d="M216.36,118v0Z"/><path class="cls-81" d="M216.36,118v0Z"/><path class="cls-82" d="M216.36,118v0Z"/><path class="cls-83" d="M216.36,118v0Z"/><path class="cls-84" d="M216.36,118v0Z"/><path class="cls-85" d="M216.36,118v0Z"/><path class="cls-86" d="M216.36,118v0Z"/><path class="cls-87" d="M216.36,118v0Z"/><path class="cls-88" d="M216.36,118v0Z"/><path class="cls-89" d="M216.36,118v0Z"/><path class="cls-90" d="M216.36,118v0Z"/><path class="cls-91" d="M216.36,118v0Z"/><path class="cls-92" d="M216.36,118v0Z"/><path class="cls-93" d="M216.36,118v0Z"/><path class="cls-94" d="M216.36,118v0Z"/><path class="cls-95" d="M216.36,118v0Z"/><path class="cls-96" d="M216.36,118v0Z"/><path class="cls-97" d="M216.36,118v0Z"/><path class="cls-98" d="M216.36,118v0Z"/><path class="cls-99" d="M216.36,118v0Z"/><path class="cls-100" d="M216.36,118v0Z"/><path class="cls-101" d="M216.36,118v0Z"/><path class="cls-102" d="M216.36,118v0Z"/><path class="cls-103" d="M216.36,118v0Z"/><path class="cls-104" d="M216.36,118v0Z"/><path class="cls-105" d="M216.36,118v0Z"/><path class="cls-106" d="M216.36,118v0Z"/><path class="cls-107" d="M216.36,118v0Z"/><path class="cls-108" d="M216.36,118v0Z"/><path class="cls-109" d="M216.36,118v0Z"/><path class="cls-110" d="M216.36,118v0Z"/><path class="cls-111" d="M216.36,118v0Z"/><path class="cls-112" d="M216.36,118v0Z"/><path class="cls-113" d="M216.36,118v0Z"/><path class="cls-114" d="M216.36,118v0Z"/><path class="cls-115" d="M216.36,118v0Z"/><path class="cls-116" d="M216.36,118v0Z"/><path class="cls-117" d="M216.36,118v0Z"/><path class="cls-118" d="M216.36,118v0Z"/><path class="cls-119" d="M216.36,118v0Z"/><path class="cls-119" d="M216.36,118v0Z"/></g><path class="cls-121" d="M235.07,99.23V47H216.4V36.31h50V47H247.78V99.23Z"/><path class="cls-121" d="M274.6,99.23V36.31h46.66V47H287.31V60.9H318.9V71.5H287.31V88.63h35.15v10.6Z"/><path class="cls-121" d="M373.49,76.1,385.81,80Q383,90.31,376.39,95.3t-16.72,5q-12.53,0-20.6-8.56T331,68.33q0-15.7,8.11-24.4t21.33-8.69q11.55,0,18.76,6.82,4.29,4,6.44,11.59l-12.58,3A13,13,0,0,0,359.8,46.1a14.3,14.3,0,0,0-11.35,5q-4.36,5-4.36,16.26,0,11.94,4.29,17a13.93,13.93,0,0,0,11.16,5.07,12.74,12.74,0,0,0,8.71-3.22Q371.91,83,373.49,76.1Z"/><path class="cls-121" d="M396.84,99.23V36.31H409.2l25.75,42v-42h11.81V99.23H434l-25.37-41v41Z"/><path class="cls-121" d="M459.81,99.23V36.31h12.7V99.23Z"/><path class="cls-121" d="M234.93,174.31V124.6H216.36V118H261v6.65H242.39v49.71Z"/><path class="cls-121" d="M265,146.86q0-14,7.53-22T292,117a27,27,0,0,1,14.07,3.73,24.36,24.36,0,0,1,9.56,10.4,33.81,33.81,0,0,1,3.28,15.13,33.18,33.18,0,0,1-3.46,15.34,23.59,23.59,0,0,1-9.8,10.25A28,28,0,0,1,292,175.28a26.72,26.72,0,0,1-14.23-3.85,24.72,24.72,0,0,1-9.49-10.5A31.69,31.69,0,0,1,265,146.86Zm7.69.12q0,10.19,5.48,16.05a19.11,19.11,0,0,0,27.6-.06q5.44-5.92,5.44-16.8a28.93,28.93,0,0,0-2.32-12,17.9,17.9,0,0,0-6.81-8A18.47,18.47,0,0,0,292,123.37a19,19,0,0,0-13.63,5.44Q272.68,134.26,272.69,147Z"/><path class="cls-121" d="M326.25,146.86q0-14,7.53-22T353.24,117a27,27,0,0,1,14.07,3.73,24.3,24.3,0,0,1,9.56,10.4,33.81,33.81,0,0,1,3.28,15.13,33.18,33.18,0,0,1-3.46,15.34,23.59,23.59,0,0,1-9.8,10.25,28,28,0,0,1-13.69,3.48A26.66,26.66,0,0,1,339,171.43a24.68,24.68,0,0,1-9.5-10.5A31.69,31.69,0,0,1,326.25,146.86Zm7.69.12q0,10.19,5.48,16.05A19.11,19.11,0,0,0,367,163q5.44-5.92,5.45-16.8a28.93,28.93,0,0,0-2.33-12,17.9,17.9,0,0,0-6.81-8,18.47,18.47,0,0,0-10.05-2.82,19,19,0,0,0-13.63,5.44Q333.93,134.26,333.94,147Z"/><path class="cls-121" d="M389.46,174.31V118h7.46v49.71h27.76v6.65Z"/><path class="cls-121" d="M431,156.2l7-.61a15.48,15.48,0,0,0,2.33,6.94,12.56,12.56,0,0,0,5.67,4.38,21.36,21.36,0,0,0,8.65,1.68,20.81,20.81,0,0,0,7.53-1.27,10.5,10.5,0,0,0,4.87-3.48A8.12,8.12,0,0,0,468.7,159a7.35,7.35,0,0,0-1.53-4.63,11.46,11.46,0,0,0-5.08-3.33,101.14,101.14,0,0,0-10-2.75q-7.77-1.86-10.89-3.51a15.24,15.24,0,0,1-6-5.25,12.87,12.87,0,0,1-2-7,14.35,14.35,0,0,1,2.42-8,15,15,0,0,1,7.07-5.63A26.91,26.91,0,0,1,453,117a28.36,28.36,0,0,1,11.05,2,16,16,0,0,1,7.36,5.94,17.09,17.09,0,0,1,2.77,8.89l-7.15.54q-.57-5.35-3.9-8.08t-9.83-2.73q-6.76,0-9.86,2.48a7.44,7.44,0,0,0-3.09,6,6.43,6.43,0,0,0,2.19,5q2.15,2,11.25,4a74.66,74.66,0,0,1,12.47,3.59,17.07,17.07,0,0,1,7.27,5.75,14,14,0,0,1,2.35,8,15.28,15.28,0,0,1-2.58,8.47,16.94,16.94,0,0,1-7.4,6.19,25.71,25.71,0,0,1-10.86,2.22,32.57,32.57,0,0,1-12.83-2.23,18,18,0,0,1-8.11-6.71A19.14,19.14,0,0,1,431,156.2Z"/></g><path class="cls-122" d="M97.24,0a97.24,97.24,0,1,0,97.24,97.24A97.25,97.25,0,0,0,97.24,0ZM115,176.8l-8.24-5.11V121.25h12.36v19h14.43V107.09H64.41v33.09H80V121.45H91.33v50.26l-8.25,5.71a81.79,81.79,0,0,1-.53-160.87l9.25,5.81L91.39,72.2H79.64L79.5,52.94l-15.23.12V86.77h69V53H118.86l.2,19.53H106.7l-.21-50,9.83-5.19A81.77,81.77,0,0,1,114.9,176.8Z"/><path class="cls-123" d="M227.88,97.24V45H209.21V34.32h50V45H240.59V97.24Z"/><path class="cls-123" d="M267.41,97.24V34.32h46.66V45H280.12V58.91h31.59v10.6H280.12V86.64h35.15v10.6Z"/><path class="cls-123" d="M366.3,74.11,378.62,78q-2.83,10.3-9.42,15.3t-16.72,5q-12.53,0-20.6-8.56t-8.07-23.41q0-15.71,8.11-24.4t21.33-8.69q11.55,0,18.76,6.82,4.29,4,6.44,11.59l-12.58,3a13,13,0,0,0-13.26-10.55,14.3,14.3,0,0,0-11.35,5q-4.36,5-4.36,16.26,0,11.94,4.29,17a13.93,13.93,0,0,0,11.16,5.07,12.78,12.78,0,0,0,8.72-3.22Q364.72,81,366.3,74.11Z"/><path class="cls-123" d="M389.65,97.24V34.32H402l25.75,42v-42h11.81V97.24H426.82l-25.37-41v41Z"/><path class="cls-123" d="M452.62,97.24V34.32h12.7V97.24Z"/><path class="cls-123" d="M227.74,172.32V122.61H209.17V116h44.68v6.65H235.2v49.71Z"/><path class="cls-123" d="M257.81,144.87q0-14,7.53-22T284.8,115a27,27,0,0,1,14.07,3.73,24.3,24.3,0,0,1,9.56,10.4,33.81,33.81,0,0,1,3.28,15.13,33.18,33.18,0,0,1-3.46,15.34,23.59,23.59,0,0,1-9.8,10.25,28,28,0,0,1-13.69,3.48,26.72,26.72,0,0,1-14.23-3.85,24.72,24.72,0,0,1-9.49-10.5A31.69,31.69,0,0,1,257.81,144.87Zm7.69.12q0,10.19,5.48,16a19.11,19.11,0,0,0,27.6-.06q5.44-5.92,5.44-16.8a28.93,28.93,0,0,0-2.32-12,17.9,17.9,0,0,0-6.81-8,18.47,18.47,0,0,0-10.05-2.82,19,19,0,0,0-13.63,5.44Q265.5,132.26,265.5,145Z"/><path class="cls-123" d="M319.06,144.87q0-14,7.53-22T346.05,115a27,27,0,0,1,14.07,3.73,24.3,24.3,0,0,1,9.56,10.4A33.81,33.81,0,0,1,373,144.22a33.19,33.19,0,0,1-3.47,15.34,23.59,23.59,0,0,1-9.8,10.25A28,28,0,0,1,346,173.29a26.66,26.66,0,0,1-14.22-3.85,24.68,24.68,0,0,1-9.5-10.5A31.82,31.82,0,0,1,319.06,144.87Zm7.69.12q0,10.19,5.48,16a19.11,19.11,0,0,0,27.6-.06q5.44-5.92,5.45-16.8a28.93,28.93,0,0,0-2.33-12,17.9,17.9,0,0,0-6.81-8,18.44,18.44,0,0,0-10.05-2.82,19,19,0,0,0-13.63,5.44Q326.75,132.26,326.75,145Z"/><path class="cls-123" d="M382.27,172.32V116h7.46v49.71h27.76v6.65Z"/><path class="cls-123" d="M423.83,154.21l7-.61a15.48,15.48,0,0,0,2.33,6.94,12.61,12.61,0,0,0,5.67,4.38,21.39,21.39,0,0,0,8.65,1.67,20.91,20.91,0,0,0,7.54-1.26,10.52,10.52,0,0,0,4.86-3.48,8.13,8.13,0,0,0,1.6-4.83,7.36,7.36,0,0,0-1.54-4.63,11.46,11.46,0,0,0-5.08-3.33,101.14,101.14,0,0,0-10-2.75q-7.77-1.86-10.88-3.52a15.18,15.18,0,0,1-6-5.24,12.87,12.87,0,0,1-2-7,14.35,14.35,0,0,1,2.42-8,15,15,0,0,1,7.08-5.63A26.83,26.83,0,0,1,445.83,115a28.33,28.33,0,0,1,11.05,2,16,16,0,0,1,7.36,5.94,17,17,0,0,1,2.77,8.89l-7.15.54q-.57-5.35-3.9-8.08t-9.82-2.73c-4.52,0-7.8.83-9.87,2.48a7.44,7.44,0,0,0-3.09,6,6.43,6.43,0,0,0,2.19,5c1.44,1.31,5.18,2.64,11.25,4a74.66,74.66,0,0,1,12.47,3.59,17.07,17.07,0,0,1,7.27,5.75,14,14,0,0,1,2.35,8,15.28,15.28,0,0,1-2.58,8.47,16.94,16.94,0,0,1-7.4,6.19,25.71,25.71,0,0,1-10.86,2.22A32.57,32.57,0,0,1,435,171.06a18,18,0,0,1-8.11-6.71A19.14,19.14,0,0,1,423.83,154.21Z"/></g></g></g></svg>