<?xml version="1.0" encoding="utf-8"?>
<!-- Generator: Adobe Illustrator 25.2.1, SVG Export Plug-In . SVG Version: 6.00 Build 0)  -->
<svg version="1.1" id="Layer_1" xmlns="http://www.w3.org/2000/svg" xmlns:xlink="http://www.w3.org/1999/xlink" x="0px" y="0px"
	 viewBox="0 0 480 199.9" style="enable-background:new 0 0 480 199.9;" xml:space="preserve">
<style type="text/css">
	.st0{fill:url(#SVGID_1_);}
	.st1{enable-background:new    ;}
	.st2{fill:#FFFFFF;}
</style>
<g>
	<g id="Layer_2_1_">
		<g id="contenedor">
			
				<linearGradient id="SVGID_1_" gradientUnits="userSpaceOnUse" x1="101.8619" y1="8.4501" x2="92.6719" y2="199.9401" gradientTransform="matrix(1 0 0 -1 0 202)">
				<stop  offset="0" style="stop-color:#3C7D84"/>
				<stop  offset="6.000000e-02" style="stop-color:#3B878D"/>
				<stop  offset="0.25" style="stop-color:#399DA2"/>
				<stop  offset="0.44" style="stop-color:#37ACB1"/>
				<stop  offset="0.67" style="stop-color:#36B5B9"/>
				<stop  offset="1" style="stop-color:#36B8BC"/>
			</linearGradient>
			<path class="st0" d="M97.2,0C43.5,0,0,43.5,0,97.2s43.5,97.2,97.2,97.2s97.2-43.5,97.2-97.2l0,0C194.5,43.5,150.9,0,97.2,0z
				 M115,176.8l-8.2-5.1v-50.4h12.4v19h14.4v-33.2H64.4v33.1H80v-18.7h11.3v50.3l-8.2,5.7c-44.4-8-74-50.6-65.9-95
				c6-33.4,32.1-59.6,65.4-65.8l9.2,5.8l-0.4,49.8H79.6l-0.1-19.3l-15.2,0.1v33.7h69V53h-14.4l0.2,19.5h-12.4l-0.2-50l9.8-5.2
				c43.9,10.4,71.1,54.5,60.7,98.4C169.8,146.4,145.6,170.1,115,176.8L115,176.8z"/>
			<g class="st1">
				<path class="st2" d="M227.9,97.2V45h-18.7V34.3h50V45h-18.6v52.3H227.9z"/>
				<path class="st2" d="M267.4,97.2V34.3h46.7V45h-33.9v13.9h31.6v10.6h-31.6v17.1h35.2v10.6H267.4z"/>
				<path class="st2" d="M366.3,74.1l12.3,3.9c-1.9,6.9-5,12-9.4,15.3c-4.4,3.3-10,5-16.7,5c-8.4,0-15.2-2.9-20.6-8.6
					c-5.4-5.7-8.1-13.5-8.1-23.4c0-10.5,2.7-18.6,8.1-24.4c5.4-5.8,12.5-8.7,21.3-8.7c7.7,0,13.9,2.3,18.8,6.8
					c2.9,2.7,5,6.6,6.4,11.6l-12.6,3c-0.7-3.3-2.3-5.8-4.7-7.7c-2.4-1.9-5.2-2.8-8.6-2.8c-4.7,0-8.4,1.7-11.4,5
					c-2.9,3.3-4.4,8.8-4.4,16.3c0,8,1.4,13.6,4.3,17c2.9,3.4,6.6,5.1,11.2,5.1c3.4,0,6.3-1.1,8.7-3.2
					C363.5,82.1,365.2,78.7,366.3,74.1z"/>
				<path class="st2" d="M389.6,97.2V34.3H402l25.8,42v-42h11.8v62.9h-12.7l-25.4-41v41H389.6z"/>
				<path class="st2" d="M452.6,97.2V34.3h12.7v62.9H452.6z"/>
			</g>
			<g class="st1">
				<path class="st2" d="M227.7,172.3v-49.7h-18.6v-6.7h44.7v6.7h-18.6v49.7H227.7z"/>
			</g>
			<g class="st1">
				<path class="st2" d="M257.8,144.9c0-9.4,2.5-16.7,7.5-22c5-5.3,11.5-7.9,19.5-7.9c5.2,0,9.9,1.2,14.1,3.7
					c4.2,2.5,7.4,6,9.6,10.4c2.2,4.4,3.3,9.5,3.3,15.1c0,5.7-1.2,10.8-3.5,15.3s-5.6,7.9-9.8,10.2c-4.2,2.3-8.8,3.5-13.7,3.5
					c-5.3,0-10-1.3-14.2-3.8s-7.3-6.1-9.5-10.5C258.9,154.5,257.8,149.8,257.8,144.9z M265.5,145c0,6.8,1.8,12.1,5.5,16.1
					c3.7,3.9,8.2,5.9,13.7,5.9c5.6,0,10.2-2,13.9-5.9c3.6-3.9,5.4-9.5,5.4-16.8c0-4.6-0.8-8.6-2.3-12c-1.6-3.4-3.8-6.1-6.8-8
					c-3-1.9-6.3-2.8-10.1-2.8c-5.3,0-9.8,1.8-13.6,5.4S265.5,136.5,265.5,145z"/>
				<path class="st2" d="M319.1,144.9c0-9.4,2.5-16.7,7.5-22c5-5.3,11.5-7.9,19.5-7.9c5.2,0,9.9,1.2,14.1,3.7s7.4,6,9.6,10.4
					s3.3,9.5,3.3,15.1c0,5.7-1.2,10.8-3.5,15.3c-2.3,4.5-5.6,7.9-9.8,10.2c-4.2,2.3-8.8,3.5-13.7,3.5c-5.3,0-10-1.3-14.2-3.8
					c-4.2-2.6-7.3-6.1-9.5-10.5C320.1,154.5,319.1,149.8,319.1,144.9z M326.8,145c0,6.8,1.8,12.1,5.5,16.1c3.7,3.9,8.2,5.9,13.7,5.9
					c5.6,0,10.2-2,13.9-5.9c3.6-3.9,5.4-9.5,5.4-16.8c0-4.6-0.8-8.6-2.3-12c-1.6-3.4-3.8-6.1-6.8-8c-3-1.9-6.3-2.8-10.1-2.8
					c-5.3,0-9.8,1.8-13.6,5.4C328.7,130.4,326.8,136.5,326.8,145z"/>
				<path class="st2" d="M382.3,172.3v-56.4h7.5v49.7h27.8v6.7H382.3z"/>
				<path class="st2" d="M423.8,154.2l7-0.6c0.3,2.8,1.1,5.1,2.3,6.9c1.2,1.8,3.1,3.3,5.7,4.4s5.4,1.7,8.7,1.7
					c2.8,0,5.4-0.4,7.5-1.3c2.2-0.8,3.8-2,4.9-3.5c1.1-1.5,1.6-3.1,1.6-4.8c0-1.8-0.5-3.3-1.5-4.6s-2.7-2.4-5.1-3.3
					c-1.5-0.6-4.9-1.5-10-2.7c-5.2-1.2-8.8-2.4-10.9-3.5c-2.7-1.4-4.7-3.2-6-5.2c-1.3-2.1-2-4.4-2-7c0-2.8,0.8-5.5,2.4-8
					c1.6-2.5,4-4.4,7.1-5.6s6.5-1.9,10.3-1.9c4.2,0,7.9,0.7,11.1,2s5.6,3.3,7.4,5.9c1.7,2.6,2.6,5.6,2.8,8.9l-7.2,0.5
					c-0.4-3.6-1.7-6.3-3.9-8.1c-2.2-1.8-5.5-2.7-9.8-2.7c-4.5,0-7.8,0.8-9.9,2.5c-2.1,1.7-3.1,3.6-3.1,6c0,2,0.7,3.7,2.2,5
					c1.4,1.3,5.2,2.6,11.2,4c6.1,1.4,10.2,2.6,12.5,3.6c3.3,1.5,5.7,3.4,7.3,5.7c1.6,2.3,2.3,5,2.3,8c0,3-0.9,5.8-2.6,8.5
					c-1.7,2.7-4.2,4.7-7.4,6.2s-6.8,2.2-10.9,2.2c-5.1,0-9.4-0.7-12.8-2.2c-3.4-1.5-6.2-3.7-8.1-6.7
					C425,161.4,423.9,158,423.8,154.2z"/>
			</g>
		</g>
	</g>
</g>
</svg>
