<svg xmlns="http://www.w3.org/2000/svg" viewBox="0 0 614.78 169.65"><defs><style>.cls-1{isolation:isolate;}.cls-2{fill:#fff;stroke:#0e7985;}.cls-2,.cls-3,.cls-4{stroke-miterlimit:10;}.cls-2,.cls-4{stroke-width:2px;}.cls-3,.cls-4{stroke:#fff;}.cls-3{stroke-width:0.25px;}.cls-3,.cls-5{opacity:0.15;mix-blend-mode:multiply;}.cls-4{font-size:94.94px;fill:#0e7985;font-family:Montserrat-Black, Montserrat;font-weight:800;}</style></defs><g class="cls-1"><g id="Capa_2" data-name="Capa 2"><g id="Capa_1-2" data-name="Capa 1"><path class="cls-2" d="M190.6,38.58h42.91q15.39,0,27.21,5.87A44,44,0,0,1,279.08,61q6.54,10.67,6.54,24.83t-6.54,24.84a44,44,0,0,1-18.36,16.53q-11.81,5.88-27.21,5.88H190.6Zm41.84,76.52q14.16,0,22.6-7.89t8.44-21.4q0-13.49-8.44-21.39t-22.6-7.9h-20V115.1Z"/><path class="cls-2" d="M293.16,38.58H315v94.48H293.16Z"/><path class="cls-2" d="M381.92,133.06,363.7,106.74H343.6v26.32H321.73V38.58h40.9q12.56,0,21.8,4.18a32.31,32.31,0,0,1,14.23,11.87,32.75,32.75,0,0,1,5,18.23,30.75,30.75,0,0,1-19.44,29.82l21.19,30.38ZM376.4,60.64q-5.14-4.24-15-4.25H343.6V89.32h17.82q9.82,0,15-4.31t5.12-12.15Q381.52,64.9,376.4,60.64Z"/><path class="cls-2" d="M433.81,128.33a47.06,47.06,0,0,1-18.5-17.48,47.75,47.75,0,0,1-6.68-25,47.74,47.74,0,0,1,6.68-25,47.06,47.06,0,0,1,18.5-17.48,58.49,58.49,0,0,1,53,0A47.29,47.29,0,0,1,512,85.81a47.29,47.29,0,0,1-25.24,42.52,58.41,58.41,0,0,1-53,0Zm41.64-16.13A27.59,27.59,0,0,0,486,101.47a31.44,31.44,0,0,0,3.85-15.66A31.49,31.49,0,0,0,486,70.16a27.59,27.59,0,0,0-10.59-10.73,31.62,31.62,0,0,0-30.24,0,27.52,27.52,0,0,0-10.59,10.73,31.49,31.49,0,0,0-3.86,15.65,31.45,31.45,0,0,0,3.86,15.66,27.52,27.52,0,0,0,10.59,10.73,31.62,31.62,0,0,0,30.24,0Z"/><path class="cls-2" d="M518.76,38.58h42.91q15.39,0,27.21,5.87A44,44,0,0,1,607.24,61q6.54,10.67,6.54,24.83t-6.54,24.84a44,44,0,0,1-18.36,16.53q-11.8,5.88-27.21,5.88H518.76ZM560.6,115.1q14.16,0,22.6-7.89t8.44-21.4q0-13.49-8.44-21.39t-22.6-7.9h-20V115.1Z"/><circle class="cls-2" cx="84.82" cy="84.82" r="83.82"/><path class="cls-3" d="M84.81,168.65A83.82,83.82,0,0,1,20.39,31.21C3.33,55.74,12.45,97,43,127.63,70.19,154.78,105.81,165,130.63,155A83.31,83.31,0,0,1,84.81,168.65Z"/><path class="cls-3" d="M84.83,1a83.81,83.81,0,0,1,64.42,137.44c17.06-24.53,7.94-65.84-22.64-96.42C99.46,14.86,63.84,4.62,39,14.63A83.27,83.27,0,0,1,84.83,1Z"/><text class="cls-4" transform="translate(9.27 119.62)">DR</text><polygon class="cls-5" points="322.77 39.6 342.6 132.03 322.77 132.03 322.77 39.6"/><polygon class="cls-5" points="294.16 39.58 313.97 132.01 294.1 132.05 294.16 39.58"/><polygon class="cls-5" points="191.63 39.58 211.44 132.01 191.57 132.05 191.63 39.58"/><polygon class="cls-5" points="519.79 39.75 539.6 132.18 519.73 132.22 519.79 39.75"/><path class="cls-3" d="M448.43,128.31c6,3.23,12.58,4,19.71,4.72a62.44,62.44,0,0,1-6.8.63c-9.81,0-18.34-1.58-26.22-5.81s-14.35-9.59-18.81-17a47.75,47.75,0,0,1-6.68-25,47.74,47.74,0,0,1,6.68-25c4.46-7.43,10.79-12.68,18.66-16.91S451.68,38,461.49,38a65.52,65.52,0,0,1,7,.58c-7.13.76-14,1.5-20,4.73a47.13,47.13,0,0,0-18.5,17.48,47.73,47.73,0,0,0-6.67,25,47.74,47.74,0,0,0,6.67,25A47.13,47.13,0,0,0,448.43,128.31Z"/></g></g></g></svg>