<svg id="Line" height="512" viewBox="0 0 64 64" width="512" xmlns="http://www.w3.org/2000/svg"><path d="m52.15234 52.15234c11.05548-10.60827 11.05725-29.69665-.0003-40.30468a28.53025 28.53025 0 0 0 -40.30438 0c-11.05548 10.60864-11.05725 29.69634.00034 40.30468a28.53124 28.53124 0 0 0 40.30434 0zm-20.15216-45.65216c22.63482.02234 34.02033 27.51172 18.03107 43.53107-16.02125 15.98926-43.51001 4.60236-43.53113-18.03149-.28271-13.70594 11.79279-25.78363 25.50006-25.49958z"/><path d="m21 33.5h9.5v9.5a1.50016 1.50016 0 0 0 3-.00007v-9.49993h9.5a1.50016 1.50016 0 0 0 0-3h-9.5v-9.5a1.50016 1.50016 0 0 0 -3 .00006v9.49994h-9.5a1.50016 1.50016 0 0 0 0 3z"/></svg>