<?xml version="1.0" encoding="iso-8859-1"?>
<!-- Generator: Adobe Illustrator 19.0.0, SVG Export Plug-In . SVG Version: 6.00 Build 0)  -->
<svg version="1.1" id="Capa_1" xmlns="http://www.w3.org/2000/svg" xmlns:xlink="http://www.w3.org/1999/xlink" x="0px" y="0px"
	 viewBox="0 0 512 512" style="enable-background:new 0 0 512 512;" xml:space="preserve">
<g>
	<g>
		<g>
			<rect x="162.909" y="69.818" width="58.182" height="372.364"/>
			<rect x="244.364" y="69.818" width="23.273" height="372.364"/>
			<rect x="116.364" y="69.818" width="23.273" height="372.364"/>
			<rect x="46.545" y="69.818" width="46.545" height="372.364"/>
			<path d="M0,93.091v325.818c0,12.853,10.42,23.273,23.273,23.273V69.818C10.42,69.818,0,80.238,0,93.091z"/>
			<path d="M488.727,69.818h-23.273v372.364h23.273c12.853,0,23.273-10.42,23.273-23.273V93.091
				C512,80.238,501.58,69.818,488.727,69.818z"/>
			<rect x="290.909" y="69.818" width="23.273" height="372.364"/>
			<rect x="418.909" y="69.818" width="23.273" height="372.364"/>
			<rect x="337.455" y="69.818" width="58.182" height="372.364"/>
		</g>
	</g>
</g>
<g>
</g>
<g>
</g>
<g>
</g>
<g>
</g>
<g>
</g>
<g>
</g>
<g>
</g>
<g>
</g>
<g>
</g>
<g>
</g>
<g>
</g>
<g>
</g>
<g>
</g>
<g>
</g>
<g>
</g>
</svg>
