<svg height="511pt" viewBox="0 0 511 511.99346" width="511pt" xmlns="http://www.w3.org/2000/svg"><path d="m461.296875 307.59375v-230.792969c0-18.851562-15.28125-34.132812-34.132813-34.132812h-34.132812v-17.066407c0-14.140624-11.460938-25.601562-25.601562-25.601562h-8.53125c-14.140626 0-25.601563 11.460938-25.601563 25.601562v17.066407h-76.800781v-17.066407c0-14.140624-11.460938-25.601562-25.597656-25.601562h-8.535157c-14.136719 0-25.601562 11.460938-25.601562 25.601562v17.066407h-68.265625v-17.066407c0-14.140624-11.460938-25.601562-25.597656-25.601562h-8.535157c-14.136719 0-25.601562 11.460938-25.601562 25.601562v17.066407h-34.132813c-18.851562 0-34.132812 15.28125-34.132812 34.132812v324.265625c0 18.851563 15.28125 34.132813 34.132812 34.132813h261.367188c15.046875 46.519531 58.773437 77.699219 107.652344 76.773437 48.882812-.925781 91.394531-33.746094 104.667968-80.796875 13.269532-47.054687-5.828125-97.25-47.019531-123.582031zm-110.933594-281.992188c0-4.714843 3.820313-8.535156 8.535157-8.535156h8.53125c4.714843 0 8.535156 3.820313 8.535156 8.535156v51.199219c0 4.710938-3.820313 8.53125-8.535156 8.53125h-8.53125c-4.714844 0-8.535157-3.820312-8.535157-8.53125zm-136.535156 0c0-4.714843 3.824219-8.535156 8.535156-8.535156h8.535157c4.710937 0 8.53125 3.820313 8.53125 8.535156v51.199219c0 4.710938-3.820313 8.53125-8.53125 8.53125h-8.535157c-4.710937 0-8.535156-3.820312-8.535156-8.53125zm-128 0c0-4.714843 3.824219-8.535156 8.535156-8.535156h8.535157c4.710937 0 8.53125 3.820313 8.53125 8.535156v51.199219c0 4.710938-3.820313 8.53125-8.53125 8.53125h-8.535157c-4.710937 0-8.535156-3.820312-8.535156-8.53125zm-68.265625 51.199219c0-9.425781 7.640625-17.066406 17.066406-17.066406h34.132813v17.066406c0 14.136719 11.464843 25.597657 25.601562 25.597657h8.535157c14.136718 0 25.597656-11.460938 25.597656-25.597657v-17.066406h68.265625v17.066406c0 14.136719 11.464843 25.597657 25.601562 25.597657h8.535157c14.136718 0 25.597656-11.460938 25.597656-25.597657v-17.066406h76.800781v17.066406c0 14.136719 11.460937 25.597657 25.601563 25.597657h8.53125c14.140624 0 25.601562-11.460938 25.601562-25.597657v-17.066406h34.132812c9.425782 0 17.066407 7.640625 17.066407 17.066406v59.734375h-426.667969zm17.066406 341.332031c-9.425781 0-17.066406-7.640624-17.066406-17.066406v-247.464844h426.667969v145.003907c-.273438-.109375-.5625-.195313-.855469-.304688-1.773438-.726562-3.582031-1.367187-5.390625-1.988281-.855469-.308594-1.707031-.648438-2.621094-.929688-2.714843-.855468-5.453125-1.640624-8.21875-2.289062-33.003906-7.773438-67.753906-.042969-94.351562 20.992188-26.597657 21.035156-42.125 53.070312-42.164063 86.980468.027344 4.214844.292969 8.421875.804688 12.605469.09375.851563.179687 1.707031.296875 2.558594.085937.632812.128906 1.28125.222656 1.902343zm366.933594 76.800782c-40.710938.132812-76.828125-26.097656-89.292969-64.855469-.527343-1.746094-1.066406-3.480469-1.550781-5.621094-2.03125-7.628906-3.046875-15.496093-3.023438-23.390625.035157-28.699218 13.179688-55.808594 35.695313-73.609375 22.511719-17.800781 51.921875-24.335937 79.855469-17.75 2.558594.597657 5.070312 1.332031 7.5625 2.152344 6.15625 1.996094 12.09375 4.632813 17.707031 7.859375 36.855469 21.21875 54.839844 64.566406 43.832031 105.644531-11.007812 41.078125-48.257812 69.621094-90.785156 69.570313zm0 0"/><path d="m137.03125 179.199219h-51.203125c-9.421875 0-17.066406 7.640625-17.066406 17.066406v51.199219c0 9.425781 7.644531 17.070312 17.066406 17.070312h51.203125c9.425781 0 17.066406-7.644531 17.066406-17.070312v-51.199219c0-9.425781-7.640625-17.066406-17.066406-17.066406zm-51.203125 68.265625v-51.199219h51.203125v51.199219zm0 0"/><path d="m256.496094 179.199219h-51.199219c-9.425781 0-17.066406 7.640625-17.066406 17.066406v51.199219c0 9.425781 7.640625 17.070312 17.066406 17.070312h51.199219c9.425781 0 17.066406-7.644531 17.066406-17.070312v-51.199219c0-9.425781-7.640625-17.066406-17.066406-17.066406zm-51.199219 68.265625v-51.199219h51.199219v51.199219zm0 0"/><path d="m137.03125 281.601562h-51.203125c-9.421875 0-17.066406 7.640626-17.066406 17.066407v51.199219c0 9.425781 7.644531 17.066406 17.066406 17.066406h51.203125c9.425781 0 17.066406-7.640625 17.066406-17.066406v-51.199219c0-9.425781-7.640625-17.066407-17.066406-17.066407zm-51.203125 68.265626v-51.199219h51.203125v51.199219zm0 0"/><path d="m256.496094 281.601562h-51.199219c-9.425781 0-17.066406 7.640626-17.066406 17.066407v51.199219c0 9.425781 7.640625 17.066406 17.066406 17.066406h51.199219c9.425781 0 17.066406-7.640625 17.066406-17.066406v-51.199219c0-9.425781-7.640625-17.066407-17.066406-17.066407zm-51.199219 68.265626v-51.199219h51.199219v51.199219zm0 0"/><path d="m324.761719 264.535156h51.203125c9.425781 0 17.066406-7.644531 17.066406-17.070312v-51.199219c0-9.425781-7.640625-17.066406-17.066406-17.066406h-51.203125c-9.425781 0-17.066407 7.640625-17.066407 17.066406v51.199219c0 9.425781 7.640626 17.070312 17.066407 17.070312zm0-68.269531h51.203125v51.199219h-51.203125zm0 0"/><path d="m437.914062 361.191406-55.738281 61.328125-16.964843-18.664062c-3.171876-3.484375-8.570313-3.742188-12.058594-.570313-3.484375 3.171875-3.742188 8.570313-.570313 12.058594l23.269531 25.597656c1.617188 1.785156 3.914063 2.800782 6.320313 2.800782s4.699219-1.015626 6.320313-2.800782l62.050781-68.265625c2.054687-2.253906 2.746093-5.433593 1.816406-8.339843-.925781-2.90625-3.332031-5.09375-6.3125-5.742188s-6.078125.339844-8.132813 2.597656zm0 0"/><path d="m43.164062 324.265625c4.710938 0 8.53125-3.820313 8.53125-8.53125v-8.535156c0-4.710938-3.820312-8.53125-8.53125-8.53125-4.714843 0-8.535156 3.820312-8.535156 8.53125v8.535156c0 4.710937 3.820313 8.53125 8.535156 8.53125zm0 0"/><path d="m77.296875 384h-25.601563v-34.132812c0-4.714844-3.820312-8.535157-8.53125-8.535157-4.714843 0-8.535156 3.820313-8.535156 8.535157v34.132812c0 9.425781 7.640625 17.066406 17.066406 17.066406h25.601563c4.710937 0 8.53125-3.820312 8.53125-8.53125 0-4.714844-3.820313-8.535156-8.53125-8.535156zm0 0"/><path d="m119.964844 384h-8.535156c-4.710938 0-8.53125 3.820312-8.53125 8.535156 0 4.710938 3.820312 8.53125 8.53125 8.53125h8.535156c4.710937 0 8.53125-3.820312 8.53125-8.53125 0-4.714844-3.820313-8.535156-8.53125-8.535156zm0 0"/></svg>