<?xml version="1.0" encoding="UTF-8"?>
<svg xmlns="http://www.w3.org/2000/svg" id="Layer_1" data-name="Layer 1" viewBox="0 0 512 512" width="512" height="512"><path d="M424.206,288.218c0,24.539-23.917,44.309-56.263,48.208v14.147a12,12,0,0,1-24,0V336.365c-32.1-4.039-55.772-23.732-55.772-48.147a12,12,0,0,1,24,0c0,11.787,18.077,24.92,44.017,24.92s44.018-13.133,44.018-24.92c0-15.116-11-19.424-44.047-24.7-13.4-2.136-27.249-4.345-38.317-9.686-18.631-8.99-22.541-23.866-22.541-34.762,0-21.741,20.562-39.35,48.642-43.359V161.427a12,12,0,0,1,24,0v14.226c28.33,3.874,49.133,21.554,49.133,43.421a12,12,0,1,1-24,0c0-9.545-15.775-20.22-36.888-20.22S319.3,209.529,319.3,219.074c0,12.2,10.146,15.885,40.637,20.748,14.142,2.256,28.764,4.588,40.614,10.534C420.1,260.166,424.206,276.36,424.206,288.218ZM512,256c0,85.912-69.895,155.807-155.807,155.807a154.849,154.849,0,0,1-78.846-21.474c-27.493,13.334-74.074,21.472-124.381,21.472C79.293,411.805,0,394.432,0,356.287c0-6.954,2.839-16.082,13.986-25.027C5.133,324.192,0,315.84,0,306.144c0-6.954,2.839-16.083,13.986-25.028C5.133,274.048,0,265.7,0,256c0-6.954,2.839-16.083,13.986-25.028C5.133,223.905,0,215.553,0,205.856c0-6.953,2.839-16.082,13.986-25.026C5.133,173.762,0,165.41,0,155.714,0,117.569,79.293,100.2,152.966,100.2c50.3,0,96.886,8.137,124.38,21.472a154.853,154.853,0,0,1,78.847-21.474C442.105,100.193,512,170.088,512,256ZM24,155.714c0,2.992,8.024,11.649,32.828,19.307,25.509,7.875,59.652,12.211,96.138,12.211a399.225,399.225,0,0,0,66.157-5.255A156.844,156.844,0,0,1,254.4,138.136c-25-8.666-62.246-13.941-101.436-13.941-36.486,0-70.629,4.337-96.138,12.212C32.024,144.064,24,152.722,24,155.714Zm13.937,38.229C26.645,199.651,24,204.379,24,205.856c0,2.994,8.024,11.65,32.828,19.307,25.509,7.875,59.651,12.212,96.138,12.212a417.436,417.436,0,0,0,48.9-2.783A154.5,154.5,0,0,1,208,207.881a441.981,441.981,0,0,1-55.036,3.351C111.3,211.232,67.838,205.673,37.937,193.943Zm0,50.143C26.645,249.793,24,254.522,24,256c0,2.992,8.024,11.649,32.828,19.307,25.509,7.875,59.652,12.212,96.138,12.212a422.028,422.028,0,0,0,50.062-2.918,155.878,155.878,0,0,1-2.6-25.686,446.179,446.179,0,0,1-47.458,2.46C111.3,261.375,67.838,255.815,37.937,244.086Zm0,50.143C26.644,299.937,24,304.666,24,306.144c0,2.992,8.024,11.649,32.828,19.305,25.509,7.875,59.651,12.212,96.138,12.212a399.888,399.888,0,0,0,67.363-5.474,155.016,155.016,0,0,1-11.01-24.2,435.57,435.57,0,0,1-56.353,3.528C111.3,311.519,67.837,305.958,37.936,294.229ZM254.4,373.865a157.159,157.159,0,0,1-19.4-20.061c-24.272,5.144-52.435,7.857-82.04,7.857-41.668,0-85.129-5.559-115.03-17.289C26.645,350.081,24,354.809,24,356.287c0,2.992,8.024,11.65,32.828,19.306,25.509,7.875,59.652,12.212,96.138,12.212C192.157,387.805,229.406,382.529,254.4,373.865ZM488,256c0-72.679-59.128-131.807-131.807-131.807S224.387,183.321,224.387,256s59.128,131.807,131.806,131.807S488,328.679,488,256Z"/></svg>
