<?xml version="1.0" encoding="UTF-8"?>
<svg xmlns="http://www.w3.org/2000/svg" id="Layer_2" data-name="Layer 2" viewBox="0 0 16 16" width="512" height="512"><path d="M14,.5H10.167A1.5016,1.5016,0,0,0,8.667,2V5.8335a1.5016,1.5016,0,0,0,1.5,1.5H14a1.5017,1.5017,0,0,0,1.5-1.5V2A1.5017,1.5017,0,0,0,14,.5Zm.5,5.3335a.5006.5006,0,0,1-.5.5H10.167a.5006.5006,0,0,1-.5-.5V2a.5006.5006,0,0,1,.5-.5H14a.5006.5006,0,0,1,.5.5Z"/><path d="M2,15.5H5.833a1.5016,1.5016,0,0,0,1.5-1.5V10.1665a1.5016,1.5016,0,0,0-1.5-1.5H2a1.5017,1.5017,0,0,0-1.5,1.5V14A1.5017,1.5017,0,0,0,2,15.5Zm-.5-5.3335a.5006.5006,0,0,1,.5-.5H5.833a.5006.5006,0,0,1,.5.5V14a.5006.5006,0,0,1-.5.5H2a.5006.5006,0,0,1-.5-.5Z"/><path d="M2,7.3335H5.833a1.5016,1.5016,0,0,0,1.5-1.5V2A1.5016,1.5016,0,0,0,5.833.5H2A1.5017,1.5017,0,0,0,.5,2V5.8335A1.5017,1.5017,0,0,0,2,7.3335ZM1.5,2A.5006.5006,0,0,1,2,1.5H5.833a.5006.5006,0,0,1,.5.5V5.8335a.5006.5006,0,0,1-.5.5H2a.5006.5006,0,0,1-.5-.5Z"/><path d="M12.083,8.6665a3.4168,3.4168,0,1,0,3.417,3.417A3.42,3.42,0,0,0,12.083,8.6665Zm0,5.8335A2.4168,2.4168,0,1,1,14.5,12.0835,2.4191,2.4191,0,0,1,12.083,14.5Z"/></svg>
