<svg id="Icon" enable-background="new 0 0 100 100" height="512" viewBox="0 0 100 100" width="512" xmlns="http://www.w3.org/2000/svg" xmlns:xlink="http://www.w3.org/1999/xlink"><linearGradient id="Shapes_00000061449901477301073390000001676939660823744948_" gradientUnits="userSpaceOnUse" x1="50" x2="50" y1="5" y2="95"><stop offset="0" stop-color="#f44369"/><stop offset="1" stop-color="#3e3b92"/></linearGradient><path id="Shapes" d="m89 92h-30c-1.657 0-3-1.343-3-3v-30c0-1.657 1.343-3 3-3h30c1.657 0 3 1.343 3 3v30c0 1.657-1.343 3-3 3zm-27-6h24v-24h-24zm-24 9h-24c-1.339 0-2.517-.888-2.884-2.175l-6-21c-.327-1.143.051-2.369.964-3.129l18-15c1.113-.929 2.728-.929 3.841 0l18 15c.913.76 1.291 1.986.964 3.129l-6 21c-.368 1.287-1.546 2.175-2.885 2.175zm-21.737-6h19.474l4.841-16.945-14.578-12.15-14.578 12.15zm27.737-42h-36c-1.04 0-2.005-.539-2.552-1.422-.546-.885-.596-1.989-.132-2.919l18-36c1.017-2.033 4.351-2.033 5.367 0l18 36c.464.93.415 2.035-.132 2.919-.546.883-1.511 1.422-2.551 1.422zm-31.145-6h26.291l-13.146-26.292zm61.145 6c-11.58 0-21-9.42-21-21s9.42-21 21-21 21 9.42 21 21-9.42 21-21 21zm0-36c-8.271 0-15 6.729-15 15s6.729 15 15 15 15-6.729 15-15-6.729-15-15-15z" fill="url(#Shapes_00000061449901477301073390000001676939660823744948_)"/></svg>