<svg id="Capa_1" enable-background="new 0 0 512 512" height="512" viewBox="0 0 512 512" width="512" xmlns="http://www.w3.org/2000/svg"><path d="m256 7.5v497c137.243 0 248.5-111.257 248.5-248.5s-111.257-248.5-248.5-248.5z" fill="#ffb17b"/><path d="m474.5 256c0-137.243-97.826-248.5-218.5-248.5-137.243 0-248.5 111.257-248.5 248.5 0 60.337 48.913 109.25 109.25 109.25 16.569 0 30 13.431 30 30 0 60.337 48.913 109.25 109.25 109.25 120.674 0 218.5-111.257 218.5-248.5zm-357.75 64.25c-35.484 0-64.25-28.766-64.25-64.25s28.766-64.25 64.25-64.25 64.25 28.766 64.25 64.25-28.766 64.25-64.25 64.25z" fill="#ffd19c"/><path d="m287.82 50.68c-8.787-8.787-20.304-13.18-31.82-13.18l7.964 81.945c8.016 3.022 17.404 1.326 23.856-5.125 17.573-17.574 17.573-46.066 0-63.64z" fill="#077ccc"/><path d="m266.607 50.68c-2.929-8.787-6.768-13.18-10.607-13.18-11.517 0-23.033 4.393-31.82 13.18-17.574 17.574-17.574 46.066 0 63.64 8.787 8.787 23.033 8.787 31.82 0 2.336 2.335 5.062 4.031 7.964 5.125.963-1.094 1.867-2.798 2.643-5.125 5.857-17.574 5.857-46.066 0-63.64z" fill="#09a1e5"/><path d="m287.82 461.32c-8.787 8.787-20.303 13.18-31.82 13.18l7.964-81.945c8.016-3.022 17.404-1.326 23.856 5.125 17.573 17.574 17.573 46.066 0 63.64z" fill="#cb2e81"/><path d="m266.607 461.32c-2.929 8.787-6.768 13.18-10.607 13.18-11.517 0-23.033-4.393-31.82-13.18-17.574-17.574-17.574-46.066 0-63.64 8.787-8.787 23.033-8.787 31.82 0 2.336-2.335 5.062-4.031 7.964-5.125.963 1.094 1.867 2.798 2.643 5.125 5.857 17.574 5.857 46.066 0 63.64z" fill="#ff3187"/><path d="m378.683 423.683v-90c24.853 0 45 20.147 45 45s-20.147 45-45 45z" fill="#ff7169"/><path d="m393.683 378.683c0 24.853-6.716 45-15 45-24.853 0-45-20.147-45-45 0-12.426 10.073-22.5 22.5-22.5 0-12.426 10.073-22.5 22.5-22.5 8.284 0 15 20.147 15 45z" fill="#ff9259"/><path d="m461.32 224.18c-8.787-8.787-20.303-13.18-31.82-13.18v90c11.516 0 23.033-4.393 31.82-13.18 17.573-17.574 17.573-46.066 0-63.64z" fill="#ffb24a"/><path d="m444.5 256c0-24.853-6.716-45-15-45-11.517 0-23.033 4.393-31.82 13.18s-8.787 23.033 0 31.82c-8.787 8.787-8.787 23.033 0 31.82s20.303 13.18 31.82 13.18c8.284 0 15-20.147 15-45z" fill="#ffd23b"/><path d="m378.683 88.317v90c24.853 0 45-20.147 45-45s-20.147-45-45-45z" fill="#49b296"/><path d="m393.683 133.317c0-24.853-6.716-45-15-45-24.853 0-45 20.147-45 45 0 12.426 10.073 22.5 22.5 22.5 0 12.426 10.073 22.5 22.5 22.5 8.284 0 15-20.147 15-45z" fill="#89c247"/><path d="m256 481.976c-13.444 0-26.888-5.117-37.123-15.352 0 0 0 0 0-.001-20.469-20.47-20.469-53.776 0-74.246 5.666-5.667 13.2-8.787 21.213-8.787 5.715 0 11.187 1.587 15.91 4.553 4.724-2.966 10.195-4.553 15.91-4.553 8.013 0 15.547 3.12 21.213 8.787 20.47 20.47 20.47 53.776 0 74.247-10.235 10.234-23.679 15.352-37.123 15.352zm-26.517-25.959c14.621 14.621 38.412 14.621 53.033 0s14.621-38.412 0-53.033c-2.833-2.834-6.6-4.394-10.606-4.394-4.007 0-7.773 1.56-10.607 4.394-2.929 2.928-7.678 2.928-10.606 0-2.833-2.834-6.6-4.394-10.607-4.394-4.006 0-7.773 1.56-10.606 4.393-14.621 14.621-14.621 38.413-.001 53.034z"/><path d="m378.683 431.183c-28.948 0-52.5-23.552-52.5-52.5 0-14.226 9.954-26.171 23.263-29.237 3.066-13.309 15.012-23.263 29.237-23.263 28.948 0 52.5 23.552 52.5 52.5s-23.552 52.5-52.5 52.5zm0-90c-8.271 0-15 6.729-15 15 0 4.143-3.357 7.5-7.5 7.5-8.271 0-15 6.729-15 15 0 20.678 16.822 37.5 37.5 37.5s37.5-16.822 37.5-37.5-16.823-37.5-37.5-37.5z"/><path d="m429.5 308.475c-13.444 0-26.889-5.117-37.123-15.351-5.667-5.667-8.787-13.2-8.787-21.214 0-5.715 1.587-11.187 4.553-15.91-2.966-4.724-4.553-10.195-4.553-15.91 0-8.013 3.12-15.547 8.787-21.213 20.47-20.471 53.777-20.47 74.247 0 20.469 20.47 20.469 53.776 0 74.246 0 .001-.001.001-.001.001-10.234 10.233-23.679 15.351-37.123 15.351zm0-89.975c-10.017 0-19.434 3.901-26.517 10.984-2.834 2.833-4.394 6.6-4.394 10.606 0 4.007 1.56 7.773 4.394 10.607 2.929 2.929 2.929 7.678 0 10.606-5.849 5.849-5.849 15.365 0 21.213 14.621 14.621 38.411 14.619 53.034 0 14.62-14.621 14.62-38.412-.001-53.033-7.082-7.083-16.499-10.983-26.516-10.983zm31.82 69.32h.01z"/><path d="m378.683 185.817c-14.226 0-26.171-9.955-29.237-23.263-13.309-3.066-23.263-15.011-23.263-29.237 0-28.949 23.552-52.5 52.5-52.5s52.5 23.551 52.5 52.5-23.552 52.5-52.5 52.5zm0-90c-20.678 0-37.5 16.822-37.5 37.5 0 8.271 6.729 15 15 15 4.143 0 7.5 3.358 7.5 7.5 0 8.271 6.729 15 15 15 20.678 0 37.5-16.822 37.5-37.5s-16.823-37.5-37.5-37.5z"/><path d="m271.91 128.41c-5.715 0-11.187-1.587-15.91-4.554-4.724 2.966-10.195 4.554-15.91 4.554-8.013 0-15.547-3.121-21.213-8.787-9.917-9.916-15.377-23.1-15.377-37.123s5.461-27.207 15.377-37.123c9.916-9.917 23.1-15.377 37.123-15.377s27.207 5.461 37.123 15.377c20.469 20.47 20.469 53.776 0 74.246-5.666 5.667-13.2 8.787-21.213 8.787zm-15.91-21.59c1.989 0 3.897.79 5.303 2.197 2.833 2.833 6.6 4.394 10.607 4.394 4.006 0 7.773-1.561 10.606-4.394 14.62-14.621 14.62-38.412 0-53.033-7.082-7.084-16.499-10.984-26.516-10.984s-19.434 3.901-26.517 10.984-10.983 16.499-10.983 26.516 3.901 19.434 10.984 26.517c2.833 2.833 6.6 4.394 10.606 4.394 4.007 0 7.773-1.561 10.607-4.394 1.406-1.407 3.314-2.197 5.303-2.197z"/><path d="m256 512c-64.376 0-116.75-52.374-116.75-116.75 0-12.406-10.093-22.5-22.5-22.5-64.376 0-116.75-52.374-116.75-116.75 0-68.38 26.628-132.667 74.98-181.02s112.64-74.98 181.02-74.98 132.668 26.628 181.02 74.98 74.98 112.64 74.98 181.02-26.629 132.668-74.98 181.02-112.64 74.98-181.02 74.98zm0-497c-132.888 0-241 108.112-241 241 0 56.105 45.645 101.75 101.75 101.75 20.678 0 37.5 16.822 37.5 37.5 0 56.105 45.645 101.75 101.75 101.75 132.888 0 241-108.112 241-241s-108.112-241-241-241z"/><path d="m116.75 327.75c-39.563 0-71.75-32.187-71.75-71.75 0-13.265 3.657-26.23 10.575-37.497 2.167-3.53 6.787-4.634 10.316-2.466 3.53 2.167 4.634 6.786 2.466 10.316-5.467 8.903-8.357 19.155-8.357 29.647 0 31.292 25.458 56.75 56.75 56.75s56.75-25.458 56.75-56.75-25.458-56.75-56.75-56.75c-10.494 0-20.745 2.89-29.646 8.357-3.53 2.167-8.148 1.063-10.316-2.466-2.167-3.53-1.063-8.148 2.466-10.316 11.265-6.918 24.231-10.575 37.497-10.575 39.563 0 71.75 32.187 71.75 71.75-.001 39.563-32.188 71.75-71.751 71.75z"/></svg>