<svg id="Capa_1" enable-background="new 0 0 512.012 512.012" height="512" viewBox="0 0 512.012 512.012" width="512" xmlns="http://www.w3.org/2000/svg"><g><g><path d="m328.2 147.54 18.327-31.743h7.584l114.25 65.913 3.028 6.176-39.482 68.385h-8.463l-96.958-55.311-1.875-6.209v-39.482z" fill="#88ed88"/><path d="m354.111 115.797h-7.584l-18.327 31.743-3.589 7.729v39.482l1.875 6.209 31.043 17.709 43.992-75.52z" fill="#64d465"/><path d="m502.339 134.279-30.95 53.607-124.862-72.089 30.95-53.607c4.693-8.128 15.182-10.938 23.31-6.246l95.306 55.025c8.128 4.693 10.938 15.182 6.246 23.31z" fill="#bfb"/><path d="m400.787 55.945c-8.128-4.693-18.617-1.882-23.31 6.246l-30.95 53.607 53.076 30.644 39.747-68.232z" fill="#88ed88"/><path d="m328.2 196.396 103.707 59.875-39.482 68.385h-7.314l-60.5-34.946v-88.583z" fill="#64d465"/><path d="m359.856 214.673-31.656-18.277-3.589 4.731v74.051z" fill="#40c140"/><path d="m328.2 287.576 64.225 37.08-39.482 68.384h-7.832l-20.5-11.58v-91.75z" fill="#40c140"/><path d="m328.2 378.755 24.743 14.285-25.658 44.441-2.674-3.355v-52.666z" fill="#ddeafb"/><path d="m183.688 147.54-18.327-31.743h-7.584l-114.25 65.913-3.028 6.176 39.482 68.385h8.463l96.958-55.311 1.875-6.209v-39.482z" fill="#e490b7"/><path d="m88.205 155.935-44.678 25.775-3.028 6.176 39.482 68.385h8.463l42.867-24.454z" fill="#df75a5"/><path d="m9.549 134.279 30.95 53.607 124.862-72.089-30.95-53.607c-4.693-8.128-15.182-10.938-23.31-6.246l-95.306 55.025c-8.128 4.693-10.938 15.182-6.246 23.31z" fill="#f9c6da"/><path d="m51.087 90.594-35.292 20.376c-8.128 4.693-10.938 15.182-6.246 23.31l30.95 53.607 49.592-28.632z" fill="#e490b7"/><path d="m183.688 196.396-103.707 59.875 39.482 68.385h7.314l60.5-34.946v-88.583z" fill="#df75a5"/><path d="m126.777 324.656 43.122-24.908-40.804-71.833-49.114 28.356 39.482 68.385z" fill="#dd5790"/><path d="m183.688 287.576-64.225 37.08 39.482 68.384h7.832l20.5-11.58v-91.75z" fill="#dd5790"/><path d="m166.777 393.04 20.5-11.58v-51.121l-19.179-33.763-48.635 28.08 39.482 68.384z" fill="#da387d"/><path d="m183.688 378.755-24.743 14.285 25.658 44.441 2.674-3.355v-52.666z" fill="#bed8fb"/><path d="m183.688 112.524h144.178v85.489h-144.178z" fill="#fff0af" transform="matrix(-1 0 0 -1 511.553 310.538)"/><path d="m183.688 112.524h48.918v85.489h-48.918z" fill="#ffe07d"/><path d="m183.688 270.452h144.178v85.489h-144.178z" fill="#ffd064" transform="matrix(-1 0 0 -1 511.553 626.393)"/><path d="m183.688 270.452h48.918v85.489h-48.918z" fill="#f2ab08"/><path d="m183.688 194.751h144.178v78.964h-144.178z" fill="#ffe07d" transform="matrix(-1 0 0 -1 511.553 468.465)"/><path d="m183.688 194.751h48.918v78.964h-48.918z" fill="#ffd064"/><path d="m327.865 53.887v61.9h-144.177v-61.9c0-9.385 7.679-17.064 17.064-17.064h110.05c9.385 0 17.063 7.678 17.063 17.064z" fill="#f9e7af"/><path d="m249.67 36.823h-48.918c-9.385 0-17.064 7.679-17.064 17.064v61.9h48.918v-61.9c0-9.386 7.678-17.064 17.064-17.064z" fill="#fff0af"/><path d="m327.865 352.678v75.608c0 25.825-21.129 46.954-46.954 46.954h-50.27c-25.825 0-46.954-21.129-46.954-46.954v-75.608z" fill="#ecf4ff"/><path d="m232.606 428.287v-75.608h-48.918v75.608c0 25.825 21.129 46.954 46.954 46.954h48.918c-25.825-.001-46.954-21.13-46.954-46.954z" fill="#ddeafb"/><circle cx="255.776" cy="419.752" fill="#477b9e" r="23.171"/><path d="m255.777 419.752c0-8.575 4.662-16.056 11.585-20.063-3.409-1.973-7.364-3.108-11.585-3.108-12.797 0-23.171 10.374-23.171 23.171s10.374 23.171 23.171 23.171c4.222 0 8.176-1.135 11.585-3.108-6.924-4.006-11.585-11.488-11.585-20.063z" fill="#365e7d"/></g><g><path d="m256.006 450.398c16.912 0 30.671-13.759 30.671-30.671s-13.759-30.671-30.671-30.671-30.671 13.759-30.671 30.671 13.759 30.671 30.671 30.671zm0-46.342c8.641 0 15.671 7.03 15.671 15.671s-7.03 15.671-15.671 15.671-15.671-7.03-15.671-15.671 7.03-15.671 15.671-15.671z"/><path d="m499.737 104.449-95.306-55.025c-11.731-6.774-26.783-2.738-33.556 8.991-6.427 11.132-28.344 49.095-35.281 61.11 0-6.666 0-55.012 0-65.664 0-13.544-11.02-24.564-24.563-24.564h-37.525c-4.143 0-7.5 3.358-7.5 7.5s3.357 7.5 7.5 7.5h37.525c5.273 0 9.563 4.291 9.563 9.564v54.4h-129.177v-54.4c0-5.273 4.291-9.564 9.564-9.564h37.524c4.143 0 7.5-3.358 7.5-7.5s-3.357-7.5-7.5-7.5h-37.524c-13.545 0-24.564 11.02-24.564 24.564v65.662c-6.937-12.015-28.856-49.98-35.281-61.109-6.767-11.724-21.83-15.762-33.555-8.991l-95.307 55.025c-11.725 6.769-15.76 21.83-8.99 33.555 6.376 11.045 85.377 147.88 174.464 302.18 5.453 24.308 27.193 42.531 53.123 42.531h50.27c25.93 0 47.67-18.223 53.123-42.531 11.348-19.655 102.24-177.085 114.06-197.555 2.071-3.587.842-8.174-2.745-10.245-3.587-2.072-8.174-.843-10.245 2.745l-6.278 10.872-93.461-53.959v-42.517l13.572-23.507c4.911 2.835 106.96 61.754 111.871 64.589l-8.205 14.211c-2.071 3.587-.842 8.174 2.745 10.245s8.174.842 10.245-2.745c4.908-8.5 37.679-65.261 42.905-74.313 6.77-11.725 2.735-26.786-8.991-33.555zm-483.463 26.055c-2.626-4.546-1.044-10.44 3.5-13.064l95.307-55.025c4.564-2.634 10.449-1.031 13.064 3.5l27.2 47.112c-4.912 2.836-106.961 61.754-111.872 64.589zm160.143 277.375-6.997-12.119 6.997-4.04zm0-33.479c-11.183 6.457-9.12 5.266-14.497 8.37l-31.981-55.395c9.633-5.562 36.795-21.244 46.479-26.835-.001 8.687-.001 65.321-.001 73.86zm0-91.18c-5.417 3.128-47.224 27.265-53.979 31.165l-31.982-55.394 85.961-49.629zm0-91.179-93.461 53.959-31.982-55.394c4.912-2.836 106.961-61.754 111.872-64.589l13.571 23.507zm144.178 236.22c0 21.748-17.693 39.454-39.454 39.454h-50.27c-21.754 0-39.454-17.699-39.454-39.454 0-7.097 0-60.206 0-68.108h129.178zm0-83.108h-129.178c0-6.881 0-57.18 0-63.964h129.178zm0-78.964h-129.178v-63.964h129.178zm0-78.964h-129.178c0-6.858 0-56.748 0-63.964h129.178zm15 220.654v-16.159l6.997 4.04zm14.497-25.109c-5.444-3.143-3.233-1.866-14.497-8.37 0-8.553 0-65.173 0-73.859l46.479 26.835zm71.464-123.779-31.981 55.394-53.979-31.165c0-22.893 0-23.876 0-73.859zm74.182-128.487-27.2 47.112c-4.911-2.835-106.96-61.754-111.871-64.589l27.199-47.111c2.637-4.566 8.498-6.139 13.065-3.501l95.306 55.025c4.568 2.636 6.138 8.497 3.501 13.064z"/></g></g></svg>