<svg height="512" viewBox="0 0 48 48" width="512" xmlns="http://www.w3.org/2000/svg"><g id="Paint_Palette" data-name="Paint Palette"><path d="m47.89 21.65a24 24 0 1 0 -15.18 24.72 4.84 4.84 0 0 0 -1.71-9.37 3 3 0 0 1 0-6h8.26a8.61 8.61 0 0 0 8.63-9.35zm-8.63 7.35h-8.26a5 5 0 0 0 0 10 2.84 2.84 0 0 1 1 5.51c-14.24 5.55-29.28-5-30-19.45a22 22 0 0 1 43.86-3.42 6.62 6.62 0 0 1 -6.6 7.36z"/><path d="m36 13a7 7 0 1 0 7 7 7 7 0 0 0 -7-7zm0 12a5 5 0 1 1 5-5 5 5 0 0 1 -5 5z"/><path d="m22 4a6 6 0 1 0 6 6 6 6 0 0 0 -6-6zm0 10a4 4 0 1 1 4-4 4 4 0 0 1 -4 4z"/><path d="m15 19a5 5 0 1 0 -5 5 5 5 0 0 0 5-5zm-8 0a3 3 0 1 1 3 3 3 3 0 0 1 -3-3z"/><path d="m12 28a5 5 0 1 0 5 5 5 5 0 0 0 -5-5zm0 8a3 3 0 1 1 3-3 3 3 0 0 1 -3 3z"/><path d="m22 36a4 4 0 1 0 4 4 4 4 0 0 0 -4-4zm0 6a2 2 0 1 1 2-2 2 2 0 0 1 -2 2z"/></g></svg>