<?xml version="1.0" encoding="utf-8"?>
<!-- Generator: Adobe Illustrator 25.2.1, SVG Export Plug-In . SVG Version: 6.00 Build 0)  -->
<svg version="1.1" id="Layer_1" xmlns="http://www.w3.org/2000/svg" xmlns:xlink="http://www.w3.org/1999/xlink" x="0px" y="0px"
	 viewBox="0 0 511 511" style="enable-background:new 0 0 511 511;" xml:space="preserve">
<style type="text/css">
	.st0{fill:#386895;}
	.st1{fill:#273B7A;}
	.st2{fill:#FFC61B;}
	.st3{fill:#EAA22F;}
</style>
<path class="st0" d="M436.1,150.7H196.6c-41.3,0-74.8,33.5-74.8,74.8v149.7c0,41.3,33.5,74.8,74.8,74.8h145.2l85.9,58.5
	c4.8,3,10.8,3.3,15.6,0.6c4.8-2.7,7.8-7.8,7.8-13.2v-47.4c34.1-6.9,60.9-37.1,60.9-73.3V225.5C511.9,184.2,477.4,150.7,436.1,150.7z
	"/>
<path class="st1" d="M511.9,225.5v149.7c0,36.2-26.7,66.5-60.9,73.3V496c0,5.4-3,10.5-7.8,13.2c-4.8,2.7-10.8,2.4-15.6-0.6
	l-85.9-58.5h-25.4V150.7h119.8C477.4,150.7,511.9,184.2,511.9,225.5z"/>
<path class="st2" d="M316.3,0H76.8C35.5,0,1,33.5,1,74.8v150.7c0,36.2,26.7,66.5,60.9,73.4v46.4c0,5.4,3,10.5,7.8,13.2
	c4.8,2.7,10.8,2.4,15.6-0.6l85.9-57.5h145.2c41.3,0,74.8-33.5,74.8-74.8V74.8C391.2,33.5,357.7,0,316.3,0z"/>
<path class="st3" d="M391.2,74.8v150.7c0,41.3-33.5,74.8-74.8,74.8H196.6V0h119.8C357.7,0,391.2,33.5,391.2,74.8z"/>
<g>
	<path class="st0" d="M241.5,89.8c0,8.4-6.6,15-15,15H106.8c-8.4,0-15-6.6-15-15c0-8.4,6.6-15,15-15h119.8
		C234.9,74.8,241.5,81.4,241.5,89.8z"/>
	<path class="st0" d="M241.5,150.7c0,8.4-6.6,15-15,15H106.8c-8.4,0-15-6.6-15-15s6.6-15,15-15h119.8
		C234.9,135.7,241.5,142.3,241.5,150.7z"/>
	<path class="st0" d="M301.4,210.6c0,8.4-6.6,15-15,15H106.8c-8.4,0-15-6.6-15-15c0-8.4,6.6-15,15-15h179.6
		C294.8,195.6,301.4,202.2,301.4,210.6z"/>
</g>
<path class="st1" d="M301.4,89.8c0,8.3-6.7,15-15,15c-8.3,0-15-6.7-15-15c0-8.3,6.7-15,15-15C294.7,74.8,301.4,81.5,301.4,89.8z"/>
<path class="st1" d="M301.4,150.7c0,8.3-6.7,15-15,15c-8.3,0-15-6.7-15-15c0-8.3,6.7-15,15-15C294.7,135.7,301.4,142.4,301.4,150.7z
	"/>
<path class="st2" d="M421.1,360.3c0,8.4-6.6,15-15,15H226.5c-8.4,0-15-6.6-15-15c0-8.4,6.6-15,15-15h179.6
	C414.5,345.3,421.1,351.9,421.1,360.3z"/>
<path class="st1" d="M226.5,165.7h-29.9v-29.9h29.9c8.4,0,15,6.6,15,15S234.9,165.7,226.5,165.7z"/>
<path class="st1" d="M226.5,104.8h-29.9V74.8h29.9c8.4,0,15,6.6,15,15C241.5,98.2,234.9,104.8,226.5,104.8z"/>
<path class="st1" d="M301.4,210.6c0,8.4-6.6,15-15,15h-89.8v-29.9h89.8C294.8,195.6,301.4,202.2,301.4,210.6z"/>
<path class="st3" d="M421.1,360.3c0,8.4-6.6,15-15,15h-89.8v-29.9h89.8C414.5,345.3,421.1,351.9,421.1,360.3z"/>
</svg>
