<?xml version="1.0" encoding="utf-8"?>
<!-- Generator: Adobe Illustrator 25.2.1, SVG Export Plug-In . SVG Version: 6.00 Build 0)  -->
<svg version="1.1" id="Layer_1" xmlns="http://www.w3.org/2000/svg" xmlns:xlink="http://www.w3.org/1999/xlink" x="0px" y="0px"
	 viewBox="0 0 512 512" style="enable-background:new 0 0 512 512;" xml:space="preserve">
<g>
	<path d="M256,1C115.2,1,1,115.2,1,256s114.2,255,255,255s255-114.2,255-255C510.8,115.2,396.8,1.2,256,1z M256,487.8
		C128,487.8,24.2,384,24.2,256S128,24.2,256,24.2S487.8,128,487.8,256C487.7,384,384,487.7,256,487.8z"/>
	<path d="M274.6,111.9L117.8,268.7c-2.5,2.4-4,5.7-4.3,9.1L103,392.8c-0.3,4.4,1.2,8.7,4.3,11.8c2.8,2.7,6.4,4.3,10.3,4.5
		c0.4,0,0.9,0,1.3,0l115.1-10.4c3.4-0.3,6.7-1.8,9.1-4.3l156.8-156.8c34.7-34.6,34.9-90.8,0.3-125.6
		C365.5,77.4,309.3,77.3,274.6,111.9L274.6,111.9z M358.3,237.4L232.7,362.9l-31.4-31.4L326.9,206L358.3,237.4z M180.4,310.6
		L149,279.2l125.5-125.5l31.4,31.4L180.4,310.6z M140,312l29.9,30l29.9,29.9l-65.9,5.9L140,312z M379.2,216.5l-41.8-41.8l-41.9-41.9
		c23.1-23.1,60.6-23.1,83.7,0C402.3,155.9,402.3,193.4,379.2,216.5z"/>
</g>
</svg>
