<?xml version="1.0" encoding="iso-8859-1"?>
<!-- Generator: Adobe Illustrator 19.0.0, SVG Export Plug-In . SVG Version: 6.00 Build 0)  -->
<svg version="1.1" id="Layer_1" xmlns="http://www.w3.org/2000/svg" xmlns:xlink="http://www.w3.org/1999/xlink" x="0px" y="0px"
	 viewBox="0 0 369.997 369.997" style="enable-background:new 0 0 369.997 369.997;" xml:space="preserve">
<g id="XMLID_844_">
	<polygon id="XMLID_845_" points="174.997,8.787 174.997,99.997 266.21,99.997 	"/>
	<path id="XMLID_846_" d="M134.999,330v-20.336c0-12.021,4.682-23.322,13.181-31.82L166.024,260H79.997c-8.284,0-15-6.716-15-15
		c0-8.284,6.716-15,15-15h116.026l76.82-76.821c0.697-0.697,1.42-1.359,2.153-2.004v-21.178h-115c-8.284,0-15-6.716-15-15V0h-125
		c-8.284,0-15,6.716-15,15v300c0,8.284,6.716,15,15,15H134.999z M79.997,170h120c8.284,0,15,6.716,15,15c0,8.284-6.716,15-15,15
		h-120c-8.284,0-15-6.716-15-15C64.997,176.716,71.713,170,79.997,170z"/>
	<path id="XMLID_849_" d="M360.606,219.724l-45.334-45.334c-2.929-2.929-6.768-4.394-10.606-4.394s-7.678,1.465-10.607,4.394
		l-19.061,19.062L169.393,299.058c-2.813,2.813-4.394,6.628-4.394,10.606V330v24.997c0,8.284,6.716,15,15,15h45.332
		c3.979,0,7.794-1.581,10.607-4.394l124.668-124.666c2.814-2.813,4.394-6.628,4.394-10.606
		C365,226.352,363.419,222.537,360.606,219.724z"/>
</g>
<g>
</g>
<g>
</g>
<g>
</g>
<g>
</g>
<g>
</g>
<g>
</g>
<g>
</g>
<g>
</g>
<g>
</g>
<g>
</g>
<g>
</g>
<g>
</g>
<g>
</g>
<g>
</g>
<g>
</g>
</svg>
