<?xml version="1.0" encoding="utf-8"?>
<!-- Generator: Adobe Illustrator 25.2.1, SVG Export Plug-In . SVG Version: 6.00 Build 0)  -->
<svg version="1.1" id="flat_gradient" xmlns="http://www.w3.org/2000/svg" xmlns:xlink="http://www.w3.org/1999/xlink" x="0px"
	 y="0px" viewBox="0 0 64 64" style="enable-background:new 0 0 64 64;" xml:space="preserve">
<style type="text/css">
	.st0{fill:url(#SVGID_1_);}
</style>
<linearGradient id="SVGID_1_" gradientUnits="userSpaceOnUse" x1="14.9229" y1="33.9904" x2="49.0758" y2="33.9904" gradientTransform="matrix(1 0 0 -1 0 66)">
	<stop  offset="0" style="stop-color:#096FE0"/>
	<stop  offset="0.1584" style="stop-color:#167CE3"/>
	<stop  offset="1" style="stop-color:#5EC3F6"/>
</linearGradient>
<path class="st0" d="M49,21.7c0,0-18.2,41.5-18.2,41.5c-0.5,1.1-2.2,0.6-2.1-0.5l3-30.4H16c-0.4,0-0.7-0.2-0.9-0.5
	c-0.2-0.3-0.2-0.7-0.1-1L27.5,0.9c0.2-0.4,0.6-0.7,1-0.7h13.2c0.4,0,0.7,0.2,0.9,0.5c0.2,0.3,0.2,0.7,0.1,1l-8.1,18.4H48
	c0.4,0,0.7,0.2,0.9,0.5C49.1,20.9,49.1,21.3,49,21.7L49,21.7z"/>
</svg>
