<?xml version="1.0" encoding="utf-8"?>
<!-- Generator: Adobe Illustrator 25.2.1, SVG Export Plug-In . SVG Version: 6.00 Build 0)  -->
<svg version="1.1" id="line" xmlns="http://www.w3.org/2000/svg" xmlns:xlink="http://www.w3.org/1999/xlink" x="0px" y="0px"
	 viewBox="0 0 64 64" style="enable-background:new 0 0 64 64;" xml:space="preserve">
<path d="M48.9,20.6c-0.2-0.3-0.5-0.5-0.9-0.5H34.6l8.1-18.4c0.3-0.7-0.2-1.6-1-1.5c0,0-13.2,0-13.2,0c-0.4,0-0.8,0.3-1,0.7L15,30.7
	c-0.1,0.3-0.1,0.7,0.1,1c0.2,0.3,0.5,0.5,0.9,0.5h15.7l-3,30.4c-0.1,1.2,1.6,1.7,2.1,0.6c0,0,18.2-41.5,18.2-41.5
	C49.1,21.3,49.1,20.9,48.9,20.6z M31.5,55.9L34,31.3c0-0.3-0.1-0.6-0.3-0.8c-0.2-0.2-0.5-0.4-0.8-0.4H17.7L29.3,2.4H40l-8.1,18.4
	c-0.3,0.7,0.2,1.6,1,1.5c0,0,13.4,0,13.4,0S31.5,55.9,31.5,55.9z"/>
</svg>
