<?xml version="1.0" encoding="utf-8"?>
<!-- Generator: Adobe Illustrator 25.2.1, SVG Export Plug-In . SVG Version: 6.00 Build 0)  -->
<svg version="1.1" id="Layer_1" xmlns="http://www.w3.org/2000/svg" xmlns:xlink="http://www.w3.org/1999/xlink" x="0px" y="0px"
	 viewBox="0 0 477 477" style="enable-background:new 0 0 477 477;" xml:space="preserve">
<style type="text/css">
	.st0{fill:#273B7A;}
	.st1{fill:#FFC61B;}
	.st2{fill:#386895;}
	.st3{fill:#FEDB41;}
</style>
<path class="st0" d="M371.7,12.4c45.4,0,85.7,29.2,100,72.3c14.3,43.1-0.7,90.5-37.1,117.7c-36.4,27.1-86.1,27.9-123.4,1.9
	c-37.2-26-53.6-73-40.6-116.5C283.9,43,325,12.4,371.7,12.4z"/>
<path class="st1" d="M357.5,411v0.1c0,30.2-24.5,54.7-54.7,54.7h-0.2c-1.3,0-2.5,0-3.8-0.1c-28.7-2-51-25.9-50.9-54.7v-35.4H64.5
	v-0.5l1.9-287.4h204l0.1,0.1c-8.8,29.5-4.2,61.5,12.5,87.3c16.7,25.9,43.9,43.2,74.5,47.3V411z"/>
<path class="st2" d="M298.8,465.7l0,0.1H54.7C24.5,465.8,0,441.3,0,411.1v-35.5h247.9V411C247.9,439.8,270.1,463.7,298.8,465.7z"/>
<path class="st3" d="M371.2,109.9c-9.7,0-17.6-7.7-17.9-17.4c-0.3-9.7,7.2-17.8,16.9-18.3c0.1,0,0.1,0,0.2,0c0.3,0,0.6,0,0.9-0.1
	c9.8,0.1,17.7,8,17.7,17.8c0,4.4,3.6,8,8,8s8-3.6,8-8c0-15.9-11.1-29.6-26.6-33.1v-7.7c0-4.4-3.6-8-8-8s-8,3.6-8,8v8
	c-16.4,4.4-27,20.3-24.8,37.1c2.2,16.8,16.6,29.4,33.5,29.4c9.9,0,17.9,8,17.9,17.9c0,9.9-8,17.9-17.9,17.9c-9.9,0-17.9-8-17.9-17.9
	c0-4.4-3.6-8-8-8c-4.4,0-8,3.6-8,8c0,15.3,10.3,28.7,25.1,32.7v8.8c0,4.4,3.6,8,8,8s8-3.6,8-8v-8.4c16.9-3.7,28.3-19.5,26.4-36.7
	S388.5,109.9,371.2,109.9z"/>
<g>
	<path class="st2" d="M298.9,249.1H192.3c-4.4,0-8-3.6-8-8c0-4.4,3.6-8,8-8h106.6c4.4,0,8,3.6,8,8
		C306.9,245.5,303.3,249.1,298.9,249.1z"/>
	<path class="st2" d="M280.8,179.7h-88.4c-4.4,0-8-3.6-8-8c0-4.4,3.6-8,8-8h88.4c4.4,0,8,3.6,8,8
		C288.8,176.1,285.2,179.7,280.8,179.7z"/>
	<path class="st2" d="M298.9,318.6H192.3c-4.4,0-8-3.6-8-8c0-4.4,3.6-8,8-8h106.6c4.4,0,8,3.6,8,8
		C306.9,315,303.3,318.6,298.9,318.6z"/>
	<path class="st2" d="M158.6,171.7c0,9.3-7.9,16.8-17.6,16.8c-9.7,0-17.6-7.5-17.6-16.8c0-9.3,7.9-16.8,17.6-16.8
		C150.8,154.9,158.6,162.4,158.6,171.7z"/>
	<path class="st2" d="M158.6,241.1c0,9.3-7.9,16.8-17.6,16.8c-9.7,0-17.6-7.5-17.6-16.8c0-9.3,7.9-16.8,17.6-16.8
		C150.8,224.4,158.6,231.9,158.6,241.1z"/>
	<path class="st2" d="M158.6,310.6c0,9.3-7.9,16.8-17.6,16.8c-9.7,0-17.6-7.5-17.6-16.8c0-9.3,7.9-16.8,17.6-16.8
		C150.8,293.8,158.6,301.3,158.6,310.6z"/>
</g>
</svg>
