<svg id="Capa_1" enable-background="new 0 0 512 512" height="512" viewBox="0 0 512 512" width="512" xmlns="http://www.w3.org/2000/svg"><g><path d="m255.72 472.91c-9.37 0-18.74-2.78-26.9-8.34-147.03-100.17-201.36-203.06-207.48-215.33-14.07-22.09-21.45-47.64-21.34-73.97.15-35.9 14.23-69.83 39.66-95.52 25.43-25.7 59.21-40.14 95.1-40.65 32.12-.48 63.8 10.36 89.23 30.46 12.82 10.14 23.62 22.28 31.98 35.77 8.37-13.49 19.18-25.63 32.01-35.77 25.44-20.1 57.15-30.94 89.25-30.45 35.9.51 69.67 14.95 95.1 40.65s39.51 59.62 39.66 95.52c.11 26.33-7.27 51.88-21.35 73.98-2.85 5.7-16.78 32.26-46.27 69.13-29.78 37.22-82.07 92.83-162.09 146.41-8.07 5.41-17.32 8.11-26.56 8.11z"/></g></svg>