<?xml version="1.0" encoding="utf-8"?>
<!-- Generator: Adobe Illustrator 25.2.1, SVG Export Plug-In . SVG Version: 6.00 Build 0)  -->
<svg version="1.1" id="Layer_1" xmlns="http://www.w3.org/2000/svg" xmlns:xlink="http://www.w3.org/1999/xlink" x="0px" y="0px"
	 viewBox="0 0 512 512" style="enable-background:new 0 0 512 512;" xml:space="preserve">
<g>
	<path d="M482.2,42.1H29.8C13.9,42.1,1,55,1,70.9v304.4c0,15.9,12.9,28.8,28.8,28.8h166.8l-4.9,24.7h-34.4c-4.5,0-8.2,3.7-8.2,8.2
		v24.7c0,4.5,3.7,8.2,8.2,8.2h197.4c4.5,0,8.2-3.7,8.2-8.2V437c0-4.5-3.7-8.2-8.2-8.2h-34.4l-4.9-24.7h166.8
		c15.9,0,28.8-12.9,28.8-28.8V70.9C511,55,498.1,42.1,482.2,42.1z M346.5,445.2v8.2h-181v-8.2H346.5z M208.5,428.7l4.9-24.7h85.2
		l4.9,24.7H208.5z M494.5,375.3c0,6.8-5.5,12.3-12.3,12.3H29.8c-6.8,0-12.3-5.5-12.3-12.3v-20.6h477.1V375.3z M494.5,338.3H17.5
		V70.9c0-6.8,5.5-12.3,12.3-12.3h452.4c6.8,0,12.3,5.5,12.3,12.3V338.3z"/>
	<path d="M264.2,362.9h-16.5c-4.5,0-8.2,3.7-8.2,8.2c0,4.5,3.7,8.2,8.2,8.2h16.5c4.5,0,8.2-3.7,8.2-8.2
		C272.5,366.6,268.8,362.9,264.2,362.9z"/>
</g>
</svg>
