<svg id="Layer_1" enable-background="new 0 0 512 512" height="512" viewBox="0 0 512 512" width="512" xmlns="http://www.w3.org/2000/svg"><path d="m37.958 387.66 213.042 123c1.547.893 3.273 1.34 5 1.34s3.453-.447 5-1.34l213.042-123c3.094-1.786 5-5.087 5-8.66v-246c0-3.573-1.906-6.874-5-8.66l-213.042-123c-3.094-1.786-6.906-1.786-10 0l-213.042 123c-3.094 1.786-5 5.087-5 8.66v246c0 3.573 1.906 6.874 5 8.66zm15-227.464 193.042 111.452v213.032l-193.042-111.453zm58.031-54.927 201.595 116.39-56.584 32.669-201.594-116.39zm74-42.724 201.594 116.391-54 31.177-201.594-116.391zm157.594 164.888 54-31.177v81.119l-17.557-12.714c-2.264-1.639-5.109-2.255-7.847-1.703-2.739.554-5.121 2.228-6.569 4.617l-22.026 36.33v-76.472zm-76.583 257.247v-213.032l56.583-32.668v100.708c0 4.486 2.988 8.423 7.309 9.631.893.25 1.797.37 2.691.37 3.432 0 6.706-1.773 8.551-4.816l34.951-57.647 24.632 17.838c3.043 2.204 7.066 2.516 10.412.808 3.347-1.708 5.453-5.149 5.453-8.907v-112.256l42.459-24.514v213.031zm-10-463.133 201.594 116.391-51.011 29.451-201.594-116.391zm-114.469 374.726c-1.852 3.208-5.213 5.002-8.669 5.002-1.697 0-3.416-.432-4.991-1.342l-51.798-29.905c-4.783-2.761-6.422-8.877-3.66-13.66s8.877-6.422 13.66-3.66l51.798 29.905c4.782 2.762 6.421 8.878 3.66 13.66zm-69.118-86.475c2.762-4.782 8.878-6.422 13.66-3.66l51.798 29.906c4.783 2.761 6.422 8.877 3.66 13.66-1.852 3.208-5.213 5.002-8.669 5.002-1.697 0-3.416-.433-4.991-1.342l-51.798-29.906c-4.783-2.761-6.422-8.877-3.66-13.66z"/></svg>