<?xml version="1.0" encoding="utf-8"?>
<!-- Generator: Adobe Illustrator 25.2.1, SVG Export Plug-In . SVG Version: 6.00 Build 0)  -->
<svg version="1.1" id="Capa_1" xmlns="http://www.w3.org/2000/svg" xmlns:xlink="http://www.w3.org/1999/xlink" x="0px" y="0px"
	 viewBox="0 0 512 512" style="enable-background:new 0 0 512 512;" xml:space="preserve">
<style type="text/css">
	.st0{fill:#FFE17D;}
	.st1{fill:#FFC350;}
	.st2{fill:#FFD164;}
	.st3{fill:#273B7A;}
	.st4{fill:#386895;}
</style>
<path class="st0" d="M248.8,1.7L19.5,112.3c-2.9,1.4-4.7,4.3-4.7,7.5v272.3c0,3.2,1.8,6.1,4.7,7.5l229.3,110.7
	c4.6,2.2,9.9,2.2,14.5,0l229.3-110.7c2.9-1.4,4.7-4.3,4.7-7.5V119.8c0-3.2-1.8-6.1-4.7-7.5L263.2,1.7C258.7-0.6,253.3-0.6,248.8,1.7
	z"/>
<path class="st1" d="M16.2,115.3c-0.9,1.3-1.4,2.9-1.4,4.6v272.3c0,3.2,1.8,6.1,4.7,7.5l229.3,110.7c2.3,1.1,4.8,1.7,7.2,1.7V231
	L16.2,115.3z"/>
<path class="st2" d="M495.8,115.3c0.9,1.3,1.4,2.9,1.4,4.6v272.3c0,3.2-1.8,6.1-4.7,7.5L263.2,510.3c-2.3,1.1-4.8,1.7-7.2,1.7V231
	L495.8,115.3z"/>
<path class="st3" d="M83.4,377.7c-1.2,0-2.4-0.3-3.6-0.8l-35.4-17.1c-4.1-2-5.9-7-3.9-11.1c2-4.1,7-5.9,11.1-3.9L87,361.9
	c4.1,2,5.9,7,3.9,11.1C89.5,375.9,86.5,377.7,83.4,377.7z"/>
<path class="st4" d="M116,356.5c-1.2,0-2.4-0.3-3.6-0.8l-67.9-32.8c-4.1-2-5.9-7-3.9-11.1c2-4.1,7-5.9,11.1-3.9l67.9,32.8
	c4.1,2,5.9,7,3.9,11.1C122.1,354.7,119.1,356.5,116,356.5z"/>
<polygon class="st4" points="414.5,154.4 173.9,38.1 110.4,68.9 351.6,185.3 "/>
<path class="st3" d="M351.6,185.3v90.2c0,3.1,3.2,5.1,6,3.7l52.2-25.2c2.9-1.4,4.7-4.3,4.7-7.5v-92.2L351.6,185.3z"/>
</svg>
