<?xml version="1.0" encoding="utf-8"?>
<!-- Generator: Adobe Illustrator 25.2.1, SVG Export Plug-In . SVG Version: 6.00 Build 0)  -->
<svg version="1.1" id="Layer_1" xmlns="http://www.w3.org/2000/svg" xmlns:xlink="http://www.w3.org/1999/xlink" x="0px" y="0px"
	 viewBox="0 0 512 512" style="enable-background:new 0 0 512 512;" xml:space="preserve">
<style type="text/css">
	.st0{fill:#FFC61B;}
	.st1{fill:#EAA22F;}
	.st2{fill:#386895;}
	.st3{fill:#273B7A;}
</style>
<path class="st0" d="M439.7,232.9h-154c-21.3,0-38.5-17.2-38.5-38.5v-154c0-21.3,17.2-38.5,38.5-38.5h154
	c21.3,0,38.5,17.2,38.5,38.5v154C478.2,215.7,461,232.9,439.7,232.9z"/>
<path class="st1" d="M247.3,117v77.5c0,21.3,17.2,38.5,38.5,38.5h154c21.3,0,38.5-17.2,38.5-38.5V117H247.3z"/>
<g>
	<path class="st2" d="M319.8,141.2h-4.7c-13.1,0-23.8-10.7-23.8-23.8s10.7-23.8,23.8-23.8h4.7c13.1,0,23.8,10.7,23.8,23.8
		C343.6,130.6,333,141.2,319.8,141.2z"/>
	<path class="st2" d="M250.3,141.2h-4.7c-13.1,0-23.8-10.7-23.8-23.8s10.7-23.8,23.8-23.8h4.7c13.1,0,23.8,10.7,23.8,23.8
		S263.4,141.2,250.3,141.2z"/>
	<path class="st2" d="M406.1,141.2h-4.7c-13.1,0-23.8-10.7-23.8-23.8s10.7-23.8,23.8-23.8h4.7c13.1,0,23.8,10.7,23.8,23.8
		C429.9,130.6,419.3,141.2,406.1,141.2z"/>
	<path class="st2" d="M190.4,93.6H91.2L115,69.9c9.3-9.3,9.3-24.4,0-33.7c-9.3-9.3-24.4-9.3-33.7,0L17,100.6
		c-9.3,9.3-9.3,24.4,0,33.7l64.4,64.4c4.6,4.6,10.7,7,16.8,7c6.1,0,12.2-2.3,16.8-7c9.3-9.3,9.3-24.4,0-33.7l-23.8-23.8h99.2
		c13.1,0,23.8-10.7,23.8-23.8S203.6,93.6,190.4,93.6z"/>
</g>
<g>
	<path class="st3" d="M291.4,117c0,0.2,0,0.3,0,0.5c0,13.1,10.7,23.8,23.8,23.8h4.7c13.1,0,23.8-10.7,23.8-23.8c0-0.2,0-0.3,0-0.5
		H291.4z"/>
	<path class="st3" d="M221.8,117c0,0.2,0,0.3,0,0.5c0,13.1,10.7,23.8,23.8,23.8h4.7c13.1,0,23.8-10.7,23.8-23.8c0-0.2,0-0.3,0-0.5
		H221.8z"/>
	<path class="st3" d="M377.7,117c0,0.2,0,0.3,0,0.5c0,13.1,10.7,23.8,23.8,23.8h4.7c13.1,0,23.8-10.7,23.8-23.8c0-0.2,0-0.3,0-0.5
		H377.7z"/>
	<path class="st3" d="M10,117c-0.1,6.2,2.2,12.5,6.9,17.3l64.4,64.4c4.6,4.6,10.7,7,16.8,7s12.2-2.3,16.8-7c9.3-9.3,9.3-24.4,0-33.7
		l-23.8-23.8h99.2c13.1,0,23.8-10.7,23.8-23.8c0-0.2,0-0.3,0-0.5L10,117L10,117z"/>
</g>
<path class="st0" d="M72.3,279.1h154c21.3,0,38.5,17.2,38.5,38.5v154c0,21.3-17.2,38.5-38.5,38.5h-154c-21.3,0-38.5-17.2-38.5-38.5
	v-154C33.8,296.3,51,279.1,72.3,279.1z"/>
<path class="st1" d="M33.8,393.2v78.4c0,21.3,17.2,38.5,38.5,38.5h154c21.3,0,38.5-17.2,38.5-38.5v-78.4H33.8z"/>
<g>
	<path class="st2" d="M196.8,418.4h-4.7c-13.1,0-23.8-10.7-23.8-23.8c0-13.1,10.7-23.8,23.8-23.8h4.7c13.1,0,23.8,10.7,23.8,23.8
		C220.6,407.7,210,418.4,196.8,418.4z"/>
	<path class="st2" d="M266.4,418.4h-4.7c-13.1,0-23.8-10.7-23.8-23.8c0-13.1,10.7-23.8,23.8-23.8h4.7c13.1,0,23.8,10.7,23.8,23.8
		C290.2,407.7,279.5,418.4,266.4,418.4z"/>
	<path class="st2" d="M110.6,418.4h-4.7c-13.1,0-23.8-10.7-23.8-23.8c0-13.1,10.7-23.8,23.8-23.8h4.7c13.1,0,23.8,10.7,23.8,23.8
		C134.4,407.7,123.7,418.4,110.6,418.4z"/>
	<path class="st2" d="M495,377.7l-64.4-64.4c-9.3-9.3-24.4-9.3-33.7,0c-9.3,9.3-9.3,24.4,0,33.7l23.8,23.8h-99.2
		c-13.1,0-23.8,10.7-23.8,23.8c0,13.1,10.7,23.8,23.8,23.8h99.2L397,442.1c-9.3,9.3-9.3,24.4,0,33.7c4.6,4.6,10.7,7,16.8,7
		c6.1,0,12.2-2.3,16.8-7l64.4-64.4C504.3,402.1,504.3,387,495,377.7z"/>
</g>
<g>
	<path class="st3" d="M168.4,393.2c0,0.5-0.1,0.9-0.1,1.4c0,13.1,10.7,23.8,23.8,23.8h4.7c13.1,0,23.8-10.7,23.8-23.8
		c0-0.5,0-0.9-0.1-1.4H168.4z"/>
	<path class="st3" d="M238,393.2c0,0.5-0.1,0.9-0.1,1.4c0,13.1,10.7,23.8,23.8,23.8h4.7c13.1,0,23.8-10.7,23.8-23.8
		c0-0.5,0-0.9-0.1-1.4H238z"/>
	<path class="st3" d="M82.2,393.2c0,0.5-0.1,0.9-0.1,1.4c0,13.1,10.7,23.8,23.8,23.8h4.7c13.1,0,23.8-10.7,23.8-23.8
		c0-0.5,0-0.9-0.1-1.4H82.2z"/>
	<path class="st3" d="M297.8,393.2c0,0.5-0.1,0.9-0.1,1.4c0,13.1,10.7,23.8,23.8,23.8h99.2L397,442.1c-9.3,9.3-9.3,24.4,0,33.7
		c4.6,4.6,10.7,7,16.8,7c6.1,0,12.2-2.3,16.8-7l64.4-64.4c5-5,7.3-11.7,6.9-18.2L297.8,393.2L297.8,393.2z"/>
</g>
</svg>
