<?xml version="1.0" encoding="iso-8859-1"?>
<!-- Generator: Adobe Illustrator 19.0.0, SVG Export Plug-In . SVG Version: 6.00 Build 0)  -->
<svg version="1.1" id="Layer_1" xmlns="http://www.w3.org/2000/svg" xmlns:xlink="http://www.w3.org/1999/xlink" x="0px" y="0px"
	 viewBox="0 0 512 512" style="enable-background:new 0 0 512 512;" xml:space="preserve">
<circle style="fill:#FFC61B;" cx="256" cy="256" r="256"/>
<path style="fill:#EAA22F;" d="M510.829,231.524L384.693,105.388l-74.892,104.858l-15.929,17.948l-67.917-67.918l-5.261,11.886
	l-51.51-51.51l-41.039,43.12l10.849,47.447l101.881,101.45l-114.669,92.881l105.775,105.32C239.89,511.605,247.898,512,256,512
	c141.384,0,256-114.616,256-256C512,247.742,511.593,239.582,510.829,231.524z"/>
<path style="fill:#FFFFFF;" d="M369.131,241.778h-94.813c-13.091,0-23.704-10.612-23.704-23.704v-94.815
	c0-13.091,10.612-23.704,23.704-23.704h94.813c13.091,0,23.704,10.612,23.704,23.704v94.815
	C392.835,231.165,382.223,241.778,369.131,241.778z"/>
<path style="fill:#D0D1D3;" d="M250.613,170.379v47.695c0,13.091,10.612,23.704,23.704,23.704h94.813
	c13.091,0,23.704-10.612,23.704-23.704v-47.695H250.613z"/>
<g>
	<path style="fill:#386895;" d="M295.319,185.32h-2.893c-8.092,0-14.653-6.561-14.653-14.653c0-8.092,6.561-14.653,14.653-14.653
		h2.893c8.092,0,14.653,6.561,14.653,14.653C309.972,178.759,303.411,185.32,295.319,185.32z"/>
	<path style="fill:#386895;" d="M252.49,185.32h-2.893c-8.092,0-14.653-6.561-14.653-14.653c0-8.092,6.561-14.653,14.653-14.653
		h2.893c8.092,0,14.653,6.561,14.653,14.653C267.143,178.759,260.582,185.32,252.49,185.32z"/>
	<path style="fill:#386895;" d="M348.444,185.32h-2.891c-8.092,0-14.653-6.561-14.653-14.653c0-8.092,6.561-14.653,14.653-14.653
		h2.891c8.092,0,14.653,6.561,14.653,14.653C363.098,178.759,356.536,185.32,348.444,185.32z"/>
	<path style="fill:#386895;" d="M215.626,156.013h-61.085l14.641-14.639c5.722-5.722,5.722-15.001,0-20.723
		c-5.723-5.72-15-5.72-20.723,0l-39.657,39.653c-5.722,5.722-5.722,15.001,0,20.723l39.655,39.655
		c2.862,2.86,6.611,4.291,10.362,4.291s7.501-1.431,10.362-4.291c5.722-5.722,5.722-15.001,0-20.723l-14.641-14.639h61.085
		c8.092,0,14.653-6.561,14.653-14.653S223.718,156.013,215.626,156.013z"/>
</g>
<g>
	<path style="fill:#273B7A;" d="M277.787,170.379c-0.002,0.097-0.014,0.19-0.014,0.288c0,8.092,6.561,14.653,14.653,14.653h2.893
		c8.092,0,14.653-6.561,14.653-14.653c0-0.097-0.012-0.191-0.014-0.288H277.787z"/>
	<path style="fill:#273B7A;" d="M234.96,170.379c-0.002,0.097-0.014,0.19-0.014,0.288c0,8.092,6.561,14.653,14.653,14.653h2.893
		c8.092,0,14.653-6.561,14.653-14.653c0-0.097-0.012-0.191-0.014-0.288H234.96z"/>
	<path style="fill:#273B7A;" d="M330.916,170.379c-0.002,0.097-0.014,0.19-0.014,0.288c0,8.092,6.561,14.653,14.653,14.653h2.891
		c8.092,0,14.653-6.561,14.653-14.653c0-0.097-0.012-0.191-0.014-0.288H330.916z"/>
	<path style="fill:#273B7A;" d="M104.526,170.379c-0.076,3.846,1.343,7.714,4.279,10.649l39.655,39.655
		c2.862,2.86,6.611,4.291,10.362,4.291s7.501-1.431,10.362-4.291c5.722-5.722,5.722-15.001,0-20.723l-14.641-14.639h61.085
		c8.092,0,14.653-6.561,14.653-14.653c0-0.097-0.012-0.191-0.014-0.288L104.526,170.379L104.526,170.379z"/>
</g>
<path style="fill:#FFFFFF;" d="M142.869,270.222h94.813c13.091,0,23.704,10.612,23.704,23.704v94.813
	c0,13.091-10.612,23.704-23.704,23.704h-94.813c-13.091,0-23.704-10.612-23.704-23.704v-94.813
	C119.165,280.835,129.777,270.222,142.869,270.222z"/>
<path style="fill:#D0D1D3;" d="M119.165,340.471v48.269c0,13.091,10.612,23.704,23.704,23.704h94.815
	c13.091,0,23.704-10.612,23.704-23.704v-48.269H119.165z"/>
<g>
	<path style="fill:#386895;" d="M219.574,355.987h-2.893c-8.092,0-14.653-6.561-14.653-14.653c0-8.092,6.561-14.653,14.653-14.653
		h2.893c8.092,0,14.653,6.561,14.653,14.653C234.227,349.425,227.666,355.987,219.574,355.987z"/>
	<path style="fill:#386895;" d="M262.403,355.987h-2.893c-8.092,0-14.653-6.561-14.653-14.653c0-8.092,6.561-14.653,14.653-14.653
		h2.893c8.092,0,14.653,6.561,14.653,14.653C277.056,349.425,270.495,355.987,262.403,355.987z"/>
	<path style="fill:#386895;" d="M166.447,355.987h-2.891c-8.092,0-14.653-6.561-14.653-14.653c0-8.092,6.561-14.653,14.653-14.653
		h2.891c8.092,0,14.653,6.561,14.653,14.653C181.1,349.425,174.539,355.987,166.447,355.987z"/>
	<path style="fill:#386895;" d="M403.197,330.971l-39.655-39.655c-5.723-5.72-15-5.72-20.723,0c-5.722,5.722-5.722,15.001,0,20.723
		l14.641,14.639h-61.087c-8.092,0-14.653,6.561-14.653,14.653c0,8.092,6.561,14.653,14.653,14.653h61.085l-14.641,14.639
		c-5.722,5.722-5.722,15.001,0,20.723c2.862,2.86,6.611,4.291,10.362,4.291s7.501-1.431,10.362-4.291l39.655-39.655
		C408.919,345.972,408.919,336.694,403.197,330.971z"/>
</g>
<g>
	<path style="fill:#273B7A;" d="M202.073,340.471c-0.017,0.286-0.043,0.571-0.043,0.862c0,8.092,6.561,14.653,14.653,14.653h2.893
		c8.092,0,14.653-6.561,14.653-14.653c0-0.291-0.028-0.576-0.043-0.862H202.073z"/>
	<path style="fill:#273B7A;" d="M244.9,340.471c-0.017,0.286-0.043,0.571-0.043,0.862c0,8.092,6.561,14.653,14.653,14.653h2.893
		c8.092,0,14.653-6.561,14.653-14.653c0-0.291-0.028-0.576-0.043-0.862H244.9z"/>
	<path style="fill:#273B7A;" d="M148.945,340.471c-0.017,0.286-0.043,0.571-0.043,0.862c0,8.092,6.561,14.653,14.653,14.653h2.891
		c8.092,0,14.653-6.561,14.653-14.653c0-0.291-0.028-0.576-0.043-0.862H148.945z"/>
	<path style="fill:#273B7A;" d="M281.764,340.471c-0.017,0.286-0.043,0.571-0.043,0.862c0,8.092,6.561,14.653,14.653,14.653h61.085
		l-14.641,14.639c-5.722,5.722-5.722,15.001,0,20.723c2.862,2.86,6.611,4.291,10.362,4.291s7.501-1.431,10.362-4.291l39.655-39.655
		c3.081-3.081,4.487-7.192,4.251-11.224H281.764V340.471z"/>
</g>
<g>
</g>
<g>
</g>
<g>
</g>
<g>
</g>
<g>
</g>
<g>
</g>
<g>
</g>
<g>
</g>
<g>
</g>
<g>
</g>
<g>
</g>
<g>
</g>
<g>
</g>
<g>
</g>
<g>
</g>
</svg>
