<svg id="Layer_1" enable-background="new 0 0 50 50" height="512" viewBox="0 0 50 50" width="512" xmlns="http://www.w3.org/2000/svg"><g><g><g><g enable-background="new"><g><path d="m46.8424 37.6794v1.6802c-.06.0498-16.57 9.6499-16.57 9.6499-.43.25-1.03.3301-1.59.2803l.01-1.6699c.56.0596 1.15-.04 1.58-.29 0-.0001 16.51-9.6002 16.57-9.6505z" fill="#bfbfbf"/><g fill="#787677"><path d="m45.4959 39.0658v.4879l-1.2997.7575v-.4879z"/><path d="m43.9188 39.9858v.4879l-1.2998.7576v-.488z"/></g></g><g><path d="m3.6429 32.5122 24.0349 14.8156c.2854.1635.6429.2432 1.0096.2775v1.6853c-.3683-.0338-.7264-.114-1.0096-.2785l-24.0349-14.8155c-.3617-.2064-.5374-.4753-.5374-.7438v-1.6848c0 .2689.1757.5379.5374.7442z" fill="#b0afb0"/></g><g><path d="m45.998 36.668c.7192.4152.723 1.0857.0085 1.5009l-15.7362 9.1599c-.7145.4152-1.8719.4152-2.5911 0l-24.0367-14.8107c-.7126-.4114-.7164-1.0818-.0019-1.4971l14.7937-8.6672c.7145-.4152 1.8719-.4152 2.5845-.0038z" fill="#e8e8e8"/></g></g></g><g><g enable-background="new"><path d="m18.3962 1.6497c.2894-.1655.6924-.1448 1.1368.1135l24.3129 14.0401c.8887.5167 1.6018 1.7464 1.5914 2.7697l-.0517 19.9546 1.4571-.8472.0517-19.9551c0-1.0228-.7027-2.2525-1.5915-2.7692l-24.3232-14.0401c-.434-.2584-.8371-.279-1.1264-.114z" fill="#787677"/><g><path d="m43.8482 15.8049c.8841.5104 1.5944 1.7482 1.5915 2.7642l-.0566 19.962-27.5137-15.8851.0566-19.962c.0029-1.016.7178-1.4309 1.6019-.9205z" fill="#4f4d4d"/><path d="m44.4063 18.5662c.002-.6509-.5106-1.5404-1.0748-1.8662 0 0-24.3545-14.0608-24.3707-14.0686 0 .0167-.0565 19.419-.0565 19.419l25.4505 14.6938z" fill="#fee44b"/><path d="m44.4063 18.5662c.002-.6509-.5106-1.5404-1.0748-1.8662 0 0-24.3545-14.0608-24.3707-14.0686 0 .0167 25.394 34.1127 25.394 34.1127z" fill="#f6d341"/></g></g></g></g><g><g enable-background="new"><g><path d="m20.214 25.4654-.0005.1738-1.5863.9218.0005-.1737z" fill="#686868"/></g><g><path d="m18.6277 26.3873-.0005.1737-1.5922-.9192.0004-.1738z" fill="#4f4d4d"/></g><g><path d="m20.214 25.4654-1.5863.9219-1.5923-.9193 1.5864-.9219z" fill="#929393"/></g></g><g enable-background="new"><g><path d="m22.2054 26.6151-.0005.1738-1.5863.9219.0004-.1738z" fill="#686868"/></g><g><path d="m20.619 27.537-.0004.1738-1.5922-.9193.0004-.1737z" fill="#4f4d4d"/></g><g><path d="m22.2054 26.6151-1.5864.9219-1.5922-.9192 1.5864-.9219z" fill="#929393"/></g></g><g enable-background="new"><g><path d="m24.1968 27.7649-.0005.1737-1.5864.9219.0005-.1737z" fill="#686868"/></g><g><path d="m22.6104 28.6868-.0005.1737-1.5967-.9219.0005-.1737z" fill="#4f4d4d"/></g><g><path d="m24.1968 27.7649-1.5864.9219-1.5967-.9219 1.5863-.9219z" fill="#929393"/></g></g><g enable-background="new"><g><path d="m26.1836 28.912-.0004.1737-1.5864.9219.0005-.1737z" fill="#686868"/></g><g><path d="m24.5973 29.8339-.0005.1737-1.5922-.9192.0005-.1738z" fill="#4f4d4d"/></g><g><path d="m26.1836 28.912-1.5863.9219-1.5922-.9193 1.5863-.9219z" fill="#929393"/></g></g><g enable-background="new"><g><path d="m28.175 30.0617-.0005.1738-1.5863.9218.0005-.1737z" fill="#686868"/></g><g><path d="m26.5887 30.9836-.0005.1737-1.5922-.9192.0005-.1738z" fill="#4f4d4d"/></g><g><path d="m28.175 30.0617-1.5863.9219-1.5922-.9193 1.5863-.9219z" fill="#929393"/></g></g><g enable-background="new"><g><path d="m30.1619 31.2088-.0005.1738-1.5863.9219.0005-.1738z" fill="#686868"/></g><g><path d="m28.5756 32.1307-.0005.1738-1.5923-.9193.0005-.1738z" fill="#4f4d4d"/></g><g><path d="m30.1619 31.2088-1.5863.9219-1.5923-.9193 1.5864-.9218z" fill="#929393"/></g></g><g enable-background="new"><g><path d="m32.1533 32.3586-.0005.1737-1.5864.9219.0005-.1738z" fill="#686868"/></g><g><path d="m30.5669 33.2804-.0005.1738-1.5922-.9193.0005-.1737z" fill="#4f4d4d"/></g><g><path d="m32.1533 32.3586-1.5864.9218-1.5922-.9192 1.5864-.9219z" fill="#929393"/></g></g><g enable-background="new"><g><path d="m36.1315 34.6554-.0005.1737-1.5819.9194.0005-.1738z" fill="#686868"/></g><g><path d="m34.5496 35.5747-.0005.1738-3.5836-2.069.0005-.1738z" fill="#4f4d4d"/></g><g><path d="m36.1315 34.6554-1.5819.9193-3.5836-2.069 1.5819-.9193z" fill="#929393"/></g></g><g enable-background="new"><g><path d="m38.1229 35.8051-.0005.1738-1.5863.9219.0005-.1738z" fill="#686868"/></g><g><path d="m36.5366 36.727-.0005.1738-1.5968-.9219.0005-.1738z" fill="#4f4d4d"/></g><g><path d="m38.1229 35.8051-1.5863.9219-1.5968-.9219 1.5864-.9219z" fill="#929393"/></g></g><g enable-background="new"><g><path d="m40.1098 36.9522-.0005.1738-1.5864.9219.0005-.1738z" fill="#686868"/></g><g><path d="m38.5234 37.8741-.0005.1738-1.5922-.9193.0005-.1737z" fill="#4f4d4d"/></g><g><path d="m40.1098 36.9522-1.5864.9219-1.5922-.9192 1.5864-.9219z" fill="#929393"/></g></g><g enable-background="new"><g><path d="m42.1012 38.102-.0005.1737-1.5864.9219.0005-.1737z" fill="#686868"/></g><g><path d="m40.5148 39.0239-.0005.1737-1.5922-.9193.0005-.1737z" fill="#4f4d4d"/></g><g><path d="m42.1012 38.102-1.5864.9219-1.5922-.9193 1.5864-.9219z" fill="#929393"/></g></g><g enable-background="new"><g><path d="m18.1499 26.6649-.0005.1738-1.5819.9193.0005-.1737z" fill="#686868"/></g><g><path d="m16.568 27.5843-.0005.1737-1.5923-.9193.0005-.1737z" fill="#4f4d4d"/></g><g><path d="m18.1499 26.6649-1.5819.9194-1.5923-.9193 1.582-.9193z" fill="#929393"/></g></g><g enable-background="new"><g><path d="m20.1413 27.8147-.0005.1737-1.582.9193.0005-.1737z" fill="#686868"/></g><g><path d="m18.5593 28.734-.0005.1737-1.5922-.9192.0005-.1738z" fill="#4f4d4d"/></g><g><path d="m20.1413 27.8147-1.582.9193-1.5922-.9193 1.582-.9193z" fill="#929393"/></g></g><g enable-background="new"><g><path d="m22.1327 28.9644-.0005.1737-1.582.9194.0005-.1738z" fill="#686868"/></g><g><path d="m20.5507 29.8837-.0005.1738-1.5967-.9219.0005-.1738z" fill="#4f4d4d"/></g><g><path d="m22.1327 28.9644-1.582.9193-1.5967-.9219 1.5819-.9193z" fill="#929393"/></g></g><g enable-background="new"><g><path d="m24.1195 30.1115-.0005.1738-1.5819.9193.0005-.1738z" fill="#686868"/></g><g><path d="m22.5376 31.0308-.0005.1738-1.5922-.9193.0005-.1737z" fill="#4f4d4d"/></g><g><path d="m24.1195 30.1115-1.5819.9193-1.5922-.9192 1.5819-.9193z" fill="#929393"/></g></g><g enable-background="new"><g><path d="m26.1109 31.2612-.0005.1738-1.5819.9193.0005-.1737z" fill="#686868"/></g><g><path d="m24.529 32.1806-.0005.1737-1.5922-.9192.0005-.1738z" fill="#4f4d4d"/></g><g><path d="m26.1109 31.2612-1.5819.9194-1.5922-.9193 1.5819-.9193z" fill="#929393"/></g></g><g enable-background="new"><g><path d="m28.0978 32.4084-.0005.1737-1.582.9193.0005-.1737z" fill="#686868"/></g><g><path d="m26.5158 33.3277-.0005.1737-1.5922-.9192.0005-.1738z" fill="#4f4d4d"/></g><g><path d="m28.0978 32.4084-1.582.9193-1.5922-.9193 1.582-.9193z" fill="#929393"/></g></g><g enable-background="new"><g><path d="m30.0892 33.5581-.0005.1737-1.582.9194.0005-.1738z" fill="#686868"/></g><g><path d="m28.5072 34.4774-.0005.1738-1.5922-.9193.0005-.1737z" fill="#4f4d4d"/></g><g><path d="m30.0892 33.5581-1.582.9193-1.5922-.9192 1.582-.9194z" fill="#929393"/></g></g><g enable-background="new"><g><path d="m32.076 34.7052-.0005.1737-1.5819.9194.0005-.1738z" fill="#686868"/></g><g><path d="m30.4941 35.6245-.0005.1738-1.5922-.9193.0005-.1737z" fill="#4f4d4d"/></g><g><path d="m32.076 34.7052-1.5819.9193-1.5922-.9192 1.5819-.9194z" fill="#929393"/></g></g><g enable-background="new"><g><path d="m34.0674 35.8549-.0005.1738-1.5819.9193.0005-.1737z" fill="#686868"/></g><g><path d="m32.4855 36.7743-.0005.1737-1.5922-.9193.0005-.1737z" fill="#4f4d4d"/></g><g><path d="m34.0674 35.8549-1.5819.9194-1.5922-.9193 1.5819-.9193z" fill="#929393"/></g></g><g enable-background="new"><g><path d="m36.0588 37.0047-.0005.1737-1.5819.9193.0005-.1737z" fill="#686868"/></g><g><path d="m34.4769 37.924-.0005.1737-1.5968-.9219.0005-.1737z" fill="#4f4d4d"/></g><g><path d="m36.0588 37.0047-1.5819.9193-1.5968-.9219 1.582-.9193z" fill="#929393"/></g></g><g enable-background="new"><g><path d="m38.0457 38.1518-.0005.1737-1.582.9193.0005-.1737z" fill="#686868"/></g><g><path d="m36.4637 39.0711-.0005.1737-1.5922-.9192.0005-.1738z" fill="#4f4d4d"/></g><g><path d="m38.0457 38.1518-1.582.9193-1.5922-.9193 1.582-.9193z" fill="#929393"/></g></g><g enable-background="new"><g><path d="m40.0371 39.3015-.0005.1737-1.582.9194.0005-.1738z" fill="#686868"/></g><g><path d="m38.4551 40.2208-.0005.1738-1.5922-.9193.0005-.1737z" fill="#4f4d4d"/></g><g><path d="m40.0371 39.3015-1.582.9193-1.5922-.9192 1.582-.9194z" fill="#929393"/></g></g><g enable-background="new"><g><path d="m16.0903 27.8671-.0005.1737-3.6458 2.1187.0005-.1737z" fill="#686868"/></g><g><path d="m12.4445 29.9858-.0005.1737-1.5967-.9218.0005-.1738z" fill="#4f4d4d"/></g><g><path d="m16.0903 27.8671-3.6458 2.1187-1.5967-.9219 3.6458-2.1187z" fill="#929393"/></g></g><g enable-background="new"><g><path d="m18.0772 29.0142-.0005.1737-1.5817.9192.0005-.1737z" fill="#686868"/></g><g><path d="m16.4955 29.9334-.0005.1737-1.5922-.9192.0005-.1738z" fill="#4f4d4d"/></g><g><path d="m18.0772 29.0142-1.5817.9192-1.5922-.9193 1.5817-.9192z" fill="#929393"/></g></g><g enable-background="new"><g><path d="m20.0686 30.1639-.0005.1738-1.5817.9192.0005-.1738z" fill="#686868"/></g><g><path d="m18.4869 31.0831-.0005.1738-1.5968-.9219.0005-.1738z" fill="#4f4d4d"/></g><g><path d="m20.0686 30.1639-1.5817.9192-1.5968-.9219 1.5817-.9192z" fill="#929393"/></g></g><g enable-background="new"><g><path d="m22.0554 31.311-.0005.1738-1.5817.9192.0005-.1738z" fill="#686868"/></g><g><path d="m20.4737 32.2302-.0005.1738-1.5922-.9193.0005-.1737z" fill="#4f4d4d"/></g><g><path d="m22.0554 31.311-1.5817.9192-1.5922-.9192 1.5817-.9192z" fill="#929393"/></g></g><g enable-background="new"><g><path d="m24.0468 32.4608-.0005.1737-1.5817.9192.0005-.1737z" fill="#686868"/></g><g><path d="m22.4651 33.38-.0005.1737-1.5922-.9193.0005-.1737z" fill="#4f4d4d"/></g><g><path d="m24.0468 32.4608-1.5817.9192-1.5922-.9193 1.5817-.9192z" fill="#929393"/></g></g><g enable-background="new"><g><path d="m26.0337 33.6079-.0005.1737-1.5817.9192.0005-.1737z" fill="#686868"/></g><g><path d="m24.452 34.5271-.0005.1737-1.5922-.9192.0005-.1738z" fill="#4f4d4d"/></g><g><path d="m26.0337 33.6079-1.5817.9192-1.5922-.9193 1.5817-.9192z" fill="#929393"/></g></g><g enable-background="new"><g><path d="m28.0251 34.7576-.0005.1738-1.5817.9191.0005-.1737z" fill="#686868"/></g><g><path d="m26.4434 35.6768-.0005.1737-1.5922-.9192.0005-.1738z" fill="#4f4d4d"/></g><g><path d="m28.0251 34.7576-1.5817.9192-1.5922-.9193 1.5817-.9191z" fill="#929393"/></g></g><g enable-background="new"><g><path d="m30.0119 35.9047-.0005.1738-1.5817.9192.0005-.1738z" fill="#686868"/></g><g><path d="m28.4302 36.8239-.0005.1738-1.5922-.9193.0005-.1738z" fill="#4f4d4d"/></g><g><path d="m30.0119 35.9047-1.5817.9192-1.5922-.9193 1.5817-.9191z" fill="#929393"/></g></g><g enable-background="new"><g><path d="m16.0131 30.2137-.0005.1738-1.5817.9192.0005-.1738z" fill="#686868"/></g><g><path d="m14.4314 31.1329-.0005.1738-1.5922-.9193.0005-.1737z" fill="#4f4d4d"/></g><g><path d="m16.0131 30.2137-1.5817.9192-1.5922-.9192 1.5817-.9192z" fill="#929393"/></g></g><g enable-background="new"><g><path d="m18.0044 31.3635-.0004.1737-1.5817.9192.0004-.1738z" fill="#686868"/></g><g><path d="m16.4227 32.2826-.0004.1738-1.5968-.9219.0005-.1737z" fill="#4f4d4d"/></g><g><path d="m18.0044 31.3635-1.5817.9191-1.5967-.9218 1.5817-.9192z" fill="#929393"/></g></g><g enable-background="new"><g><path d="m25.952 35.9571-.0005.1737-1.5773.9167.0005-.1738z" fill="#686868"/></g><g><path d="m24.3747 36.8737-.0005.1738-7.5573-4.3633.0005-.1737z" fill="#4f4d4d"/></g><g><path d="m25.952 35.9571-1.5773.9166-7.5573-4.3632 1.5773-.9166z" fill="#929393"/></g></g><g enable-background="new"><g><path d="m27.9478 37.1043-.0005.1737-1.5817.9192.0005-.1738z" fill="#686868"/></g><g><path d="m26.3661 38.0234-.0005.1738-1.5922-.9193.0005-.1737z" fill="#4f4d4d"/></g><g><path d="m27.9478 37.1043-1.5817.9191-1.5922-.9192 1.5817-.9192z" fill="#929393"/></g></g><g enable-background="new"><g><path d="m32.0033 37.0545-.0005.1737-3.6458 2.1187.0005-.1737z" fill="#686868"/></g><g><path d="m28.3575 39.1732-.0005.1737-1.5967-.9219.0005-.1737z" fill="#4f4d4d"/></g><g><path d="m32.0033 37.0545-3.6458 2.1187-1.5967-.9219 3.6458-2.1187z" fill="#929393"/></g></g><g enable-background="new"><g><path d="m33.9947 38.2042-.0005.1737-1.5817.9192.0005-.1737z" fill="#686868"/></g><g><path d="m32.413 39.1234-.0005.1737-1.5967-.9219.0005-.1737z" fill="#4f4d4d"/></g><g><path d="m33.9947 38.2042-1.5817.9192-1.5967-.9219 1.5817-.9192z" fill="#929393"/></g></g><g enable-background="new"><g><path d="m35.9816 39.3513-.0005.1738-1.5817.9191.0005-.1737z" fill="#686868"/></g><g><path d="m34.3999 40.2705-.0005.1737-1.5923-.9192.0005-.1738z" fill="#4f4d4d"/></g><g><path d="m35.9816 39.3513-1.5817.9192-1.5923-.9193 1.5817-.9192z" fill="#929393"/></g></g><g enable-background="new"><g><path d="m31.9306 39.4037-.0005.1738-1.5817.9192.0005-.1738z" fill="#686868"/></g><g><path d="m30.3489 40.3229-.0005.1738-1.5968-.9219.0005-.1738z" fill="#4f4d4d"/></g><g><path d="m31.9306 39.4037-1.5817.9192-1.5968-.9219 1.5817-.9192z" fill="#929393"/></g></g><g enable-background="new"><g><path d="m33.9174 40.5508-.0004.1738-1.5817.9192.0004-.1738z" fill="#686868"/></g><g><path d="m32.3357 41.47-.0004.1738-1.5923-.9193.0005-.1737z" fill="#4f4d4d"/></g><g><path d="m33.9174 40.5508-1.5817.9192-1.5922-.9192 1.5817-.9192z" fill="#929393"/></g></g><g enable-background="new"><g><path d="m37.9729 40.501-.0004.1738-3.6459 2.1187.0005-.1738z" fill="#686868"/></g><g><path d="m34.3271 42.6197-.0005.1738-1.5967-.9219.0005-.1737z" fill="#4f4d4d"/></g><g><path d="m37.9729 40.501-3.6458 2.1187-1.5967-.9218 3.6458-2.1187z" fill="#929393"/></g></g></g><g><path d="m13.9415 36.8649 3.3973-1.9784c.1255-.0674.2702-.0674.3957 0l6.8333 3.9473c.0965.058.1255.1645.0772.2512-.0097-.0485-.029-.0773-.0772-.106l-6.8333-3.9478c-.1255-.0674-.2702-.0674-.3957 0l-3.3973 1.9689c-.0386.0193-.0579.0485-.0772.0872-.0386-.0773-.0096-.1739.0772-.2224z" fill="#b0afb0"/><path d="m17.3388 35.0312c.1255-.0674.2702-.0674.3957 0l6.8333 3.9478c.0482.0287.0676.0575.0772.106-.0097.0386-.0386.0773-.0772.0966l-3.3973 1.9784c-.1158.0679-.2702.0679-.386 0l-6.8333-3.9473c-.0482-.0292-.0869-.0773-.0869-.1254.0193-.0386.0386-.0679.0772-.0872z" fill="#b9b9ba"/></g></g></svg>