<svg id="Layer_2" enable-background="new 0 0 32 32" height="512" viewBox="0 0 32 32" width="512" xmlns="http://www.w3.org/2000/svg"><g><path d="m25.21601 0h-2.81601v2.13333 1.06667c0 1.75996-1.43997 3.2-3.2 3.2h-6.4c-1.76003 0-3.2-1.44004-3.2-3.2v-1.06667-2.13333h-2.81602c-1.75996 0-3.2 1.43997-3.2 3.2v25.6c0 1.75996 1.44004 3.2 3.2 3.2h18.43203c1.75996 0 3.2-1.44004 3.2-3.2v-25.6c.00001-1.76003-1.44003-3.2-3.2-3.2zm-9.07734 10.21862h6.74134c.58665 0 1.06667.48001 1.06667 1.06667 0 .58672-.48001 1.06667-1.06667 1.06667h-6.74134c-.58665 0-1.06667-.47995-1.06667-1.06667.00001-.58666.48002-1.06667 1.06667-1.06667zm-5.50404 13.24805c.83203 0 1.51471.68268 1.51471 1.51465 0 .83203-.68268 1.51465-1.51471 1.51465-.84264 0-1.51465-.68262-1.51465-1.51465.00001-.83197.67201-1.51465 1.51465-1.51465zm-1.51464-5.33334c0-.83203.67201-1.51471 1.51465-1.51471.83203 0 1.51471.68268 1.51471 1.51471 0 .83197-.68268 1.51465-1.51471 1.51465-.84265 0-1.51465-.68268-1.51465-1.51465zm7.01868-1.06666h6.74134c.58665 0 1.06667.48001 1.06667 1.06667 0 .58665-.48001 1.06667-1.06667 1.06667h-6.74134c-.58665 0-1.06667-.48001-1.06667-1.06667.00001-.58666.48002-1.06667 1.06667-1.06667zm0 6.84798h6.74134c.58665 0 1.06667.48001 1.06667 1.06667 0 .58665-.48001 1.06667-1.06667 1.06667h-6.74134c-.58665 0-1.06667-.48001-1.06667-1.06667.00001-.58666.48002-1.06667 1.06667-1.06667zm-5.50404-14.14401c.83203 0 1.51471.68268 1.51471 1.51465 0 .83203-.68268 1.51471-1.51471 1.51471-.84264 0-1.51465-.68268-1.51465-1.51471.00001-.83197.67201-1.51465 1.51465-1.51465z"/><path d="m19.2 4.26667c.58665 0 1.06667-.48001 1.06667-1.06667v-1.06667-2.13333h-8.53333v2.13333 1.06667c0 .58665.48001 1.06667 1.06667 1.06667z"/></g></svg>