<?xml version="1.0" encoding="utf-8"?>
<!-- Generator: Adobe Illustrator 25.2.1, SVG Export Plug-In . SVG Version: 6.00 Build 0)  -->
<svg version="1.1" id="Layer_1" xmlns="http://www.w3.org/2000/svg" xmlns:xlink="http://www.w3.org/1999/xlink" x="0px" y="0px"
	 viewBox="0 0 512 512" style="enable-background:new 0 0 512 512;" xml:space="preserve">
<path d="M480,96.6c0,10.8-8.8,19.6-19.6,19.6H143.8c-10.8,0-19.6-8.8-19.6-19.6s8.8-19.6,19.6-19.6h316.5
	C471.2,77,480,85.8,480,96.6z M480,202.9c0,10.8-8.8,19.6-19.6,19.6H143.8c-10.8,0-19.6-8.8-19.6-19.6c0-10.8,8.8-19.6,19.6-19.6
	h316.5C471.2,183.2,480,192.1,480,202.9z M480,309.1c0,10.8-8.8,19.6-19.6,19.6H143.8c-10.8,0-19.6-8.8-19.6-19.6
	c0-10.8,8.8-19.6,19.6-19.6h316.5C471.2,289.5,480,298.2,480,309.1z M79.4,96.6c0,10.8-8.8,19.6-19.6,19.6h-8.2
	c-10.8,0-19.6-8.7-19.6-19.6S40.8,77,51.6,77h8.2C70.6,77,79.4,85.8,79.4,96.6z M79.4,202.9c0,10.8-8.8,19.6-19.6,19.6h-8.2
	c-10.8,0-19.6-8.7-19.6-19.6c0-10.8,8.8-19.6,19.6-19.6h8.2C70.6,183.2,79.4,192.1,79.4,202.9z M79.4,309.1
	c0,10.8-8.8,19.6-19.6,19.6h-8.2c-10.8,0.1-19.6-8.7-19.6-19.6c0-10.8,8.8-19.6,19.6-19.6h8.2C70.6,289.5,79.4,298.2,79.4,309.1z
	 M480,415.4c0,10.8-8.8,19.6-19.6,19.6H143.8c-10.8,0-19.6-8.8-19.6-19.6c0-10.8,8.8-19.6,19.6-19.6h316.5
	C471.2,395.8,480,404.5,480,415.4z M79.4,415.4c0,10.8-8.8,19.6-19.6,19.6h-8.2C40.8,435,32,426.2,32,415.4s8.8-19.6,19.6-19.6h8.2
	C70.6,395.8,79.4,404.5,79.4,415.4z"/>
</svg>
