<?xml version="1.0"?>
<svg xmlns="http://www.w3.org/2000/svg" id="Layer_2" data-name="Layer 2" viewBox="0 0 64 64" width="512" height="512"><path d="M32.5,17h-.42V15.5h-2V17H29.5a3,3,0,0,0-3,3v1a3,3,0,0,0,3,3h3a1,1,0,0,1,1,1v1a1,1,0,0,1-1,1h-3a1,1,0,0,1-1-1V25h-2v1a3,3,0,0,0,3,3h.25v1.42h2V29h.75a3,3,0,0,0,3-3V25a3,3,0,0,0-3-3h-3a1,1,0,0,1-1-1V20a1,1,0,0,1,1-1h3a1,1,0,0,1,1,1v1h2V20A3,3,0,0,0,32.5,17Z"/><path d="M21.75,42.83,22,52a1,1,0,0,0,1.79.58l2.57-3.35,8.28,12A1,1,0,0,0,36.38,61L59.72,6.6A1,1,0,0,0,58.4,5.28L41.73,12.55A15,15,0,0,0,16,23.75L3.25,29.33a1,1,0,0,0-.14,1.76Zm2.17,6.33-.09-3.56,1.34,1.93Zm11.34,9.43L24,42.38l31.8-31.8ZM22,23a9,9,0,1,1,18,.61L31.61,32A9,9,0,0,1,22,23ZM54.36,9.23l-9.11,9.11a14.89,14.89,0,0,0-2.15-4.2ZM31,10A13,13,0,0,1,43.63,20l-1.72,1.71A11,11,0,1,0,29.67,33.91L28,35.63A13,13,0,0,1,31,10ZM16.27,25.83A15,15,0,0,0,26.34,37.25L22.59,41,5.78,30.4Z"/></svg>
