<svg id="Capa_1" enable-background="new 0 0 512 512" height="512" viewBox="0 0 512 512" width="512" xmlns="http://www.w3.org/2000/svg"><g><path clip-rule="evenodd" d="m272.456 6.816c-9.088-9.089-23.824-9.089-32.912 0l-232.728 232.728c-9.089 9.088-9.089 23.824 0 32.912 9.089 9.089 23.824 9.089 32.913 0l216.271-216.271 216.271 216.271c9.089 9.089 23.824 9.089 32.913 0 9.088-9.088 9.088-23.824 0-32.912zm232.728 465.455-232.728-232.727c-9.088-9.089-23.824-9.089-32.912 0l-232.728 232.727c-9.089 9.089-9.089 23.824 0 32.913 9.089 9.088 23.824 9.088 32.913 0l216.271-216.271 216.271 216.271c9.089 9.088 23.824 9.088 32.913 0 9.088-9.089 9.088-23.824 0-32.913z" fill-rule="evenodd"/></g></svg>