<svg id="Layer_1" enable-background="new 0 0 152 152" height="512" viewBox="0 0 152 152" width="512" xmlns="http://www.w3.org/2000/svg"><path d="m99 61.1c-.2-.6-.7-1-1.3-1h-4.7l1.7-14.3c0-.2 0-.5-.1-.7s-.4-.4-.6-.5c-.4-.2-.9-.3-1.4-.4-.8-.1-1.6-.1-2.4-.1s-1.7 0-2.5.1c-.5 0-1 .2-1.5.4-.3.1-.6.3-.8.6-.2.2-.3.5-.3.7l-1.7 14.3h-11l1.8-14.3c0-.2 0-.5-.1-.7-.1-.3-.3-.5-.6-.6-.5-.2-.9-.3-1.4-.4-.8-.1-1.6-.1-2.4-.1s-1.7 0-2.5.1c-.5.1-1.1.2-1.6.4-.3.1-.6.3-.8.6-.2.2-.3.5-.3.8l-1.7 14.3h-5.9c-.6 0-1.1.4-1.4.9-.4 1-.6 2.2-.5 3.3-.1 1.1.1 2.2.5 3.2.2.5.8.9 1.3.9h4.9l-1.7 13.9h-5.7c-.3 0-.5.1-.8.2-.3.2-.5.4-.6.7-.2.4-.3.9-.4 1.3-.1.7-.2 1.3-.2 2-.1 1.1.1 2.2.5 3.2.2.5.8.9 1.3.9h4.9l-1.8 15.3c-.1.2-.1.5.1.8s.4.5.7.6c.5.2.9.3 1.4.3.6.1 1.4.1 2.4.1s1.9 0 2.5-.1c.5 0 1-.2 1.5-.3.6-.2.9-.7 1-1.3l1.8-15.3h10.9l-1.9 15.3c0 .3 0 .5.1.8.2.3.4.4.7.6.5.2.9.3 1.4.3.7.1 1.5.1 2.5.1s1.8 0 2.4-.1c.5 0 1-.2 1.5-.3.3-.1.6-.3.8-.6.2-.2.2-.5.3-.8l1.8-15.3h5.8c.3 0 .5-.1.8-.2.3-.2.5-.4.6-.7.2-.4.3-.9.4-1.3.1-.7.2-1.3.2-2 .1-1.1-.1-2.2-.5-3.2-.2-.6-.7-1-1.3-1h-4.8l1.7-14h5.6c.3 0 .5-.1.8-.2.3-.2.5-.4.7-.7.2-.4.3-.8.4-1.3.1-.7.2-1.3.2-2-.1-1.1-.3-2.2-.7-3.2zm-18.4 21.3h-10.9l1.7-13.9h10.9z"/></svg>