<svg id="Layer_1" enable-background="new 0 0 32 32" height="512" viewBox="0 0 32 32" width="512" xmlns="http://www.w3.org/2000/svg"><path d="m16 13.217c-1.535 0-2.783 1.249-2.783 2.783s1.249 2.783 2.783 2.783 2.783-1.249 2.783-2.783-1.248-2.783-2.783-2.783z"/><path d="m16 4c-1.535 0-2.783 1.249-2.783 2.783s1.248 2.783 2.783 2.783 2.783-1.249 2.783-2.783-1.248-2.783-2.783-2.783z"/><path d="m16 22.434c-1.535 0-2.783 1.249-2.783 2.783s1.248 2.783 2.783 2.783 2.783-1.249 2.783-2.783-1.248-2.783-2.783-2.783z"/></svg>