<svg width="15" height="15" viewBox="0 0 15 15" fill="none" xmlns="http://www.w3.org/2000/svg">
<g clip-path="url(#clip0)">
<path d="M14.4241 4.65502C13.874 3.34065 12.9443 2.20216 11.7818 1.38882L11.7304 1.35311L11.7126 1.34097C11.6947 1.32883 11.6768 1.31687 11.659 1.30526C11.6344 1.28847 11.6095 1.27205 11.5845 1.25598L11.5577 1.23812L11.5083 1.20634L11.4795 1.18848L11.431 1.15813C11.4049 1.14206 11.3788 1.12599 11.3526 1.11027L11.3206 1.09063L11.2406 1.04439L11.193 1.01689L11.1601 0.999031L11.1124 0.972426C11.0853 0.957427 11.0589 0.942786 11.031 0.928144C11.0198 0.922073 11.0085 0.916002 10.9971 0.910288C10.9812 0.901717 10.9651 0.893325 10.949 0.884933L10.9148 0.867077L10.8665 0.842436L10.7835 0.80101L10.7492 0.782976C10.7328 0.775119 10.7166 0.767084 10.7001 0.759406L10.6658 0.743336L10.6159 0.720123L10.5825 0.705124L10.5307 0.681911C10.5228 0.67834 10.515 0.675126 10.5071 0.671734L10.4469 0.645307C10.4052 0.627451 10.3634 0.609595 10.3219 0.593168L10.3086 0.587811C10.2703 0.572455 10.232 0.557337 10.1936 0.542457L10.1843 0.538886C10.1436 0.523173 10.1027 0.507936 10.0618 0.493175C8.3387 -0.134101 6.40294 -0.102496 4.70182 0.580133L4.67271 0.591561L4.66485 0.594775C4.62486 0.611202 4.58504 0.62763 4.5454 0.644593C4.4929 0.667091 4.44082 0.690125 4.38916 0.713695H4.38791C4.33756 0.736729 4.28774 0.760299 4.23792 0.785118L4.23024 0.788868C4.18263 0.812676 4.13465 0.836484 4.08633 0.860291L4.07472 0.866184C4.02794 0.890468 3.98115 0.915109 3.93491 0.940286L3.92187 0.947249C3.8758 0.972248 3.83009 0.99796 3.78456 1.02403L3.77153 1.03135C3.72582 1.05754 3.68046 1.08426 3.63546 1.11152L3.62422 1.11831C3.5785 1.14593 3.53309 1.17408 3.48798 1.20277L3.48012 1.20794C3.43381 1.23735 3.38792 1.26711 3.34245 1.29722C0.388735 3.27369 -0.806536 7.15751 0.568008 10.4439C3.08354 16.4577 11.9074 16.4613 14.4241 10.4439C15.192 8.60759 15.192 6.49131 14.4241 4.65502ZM13.5285 4.59966L11.7876 5.32693L9.74931 3.28797L9.84127 3.0737L10.4957 1.54256C11.8113 2.20591 12.8757 3.27882 13.5285 4.59966ZM5.91637 3.73651H9.07561L11.2992 5.9601L11.3088 9.12916L9.07561 11.3624H5.91637L3.68278 9.1288V5.9701L5.91637 3.73651ZM9.19221 1.05188L9.20078 1.05438C9.39112 1.1042 9.58021 1.16277 9.76609 1.22955L9.034 2.94371H5.95869L5.2266 1.22955C5.2735 1.21277 5.32064 1.19646 5.36802 1.18063L5.37284 1.17902C5.41795 1.16402 5.46331 1.14944 5.5089 1.13527L5.51908 1.13224C5.5639 1.11849 5.60836 1.1051 5.65389 1.09224L5.66032 1.09045C5.70764 1.07706 5.75495 1.06403 5.80227 1.05171L5.81049 1.04938C6.91976 0.763887 8.08336 0.764747 9.19221 1.05188ZM3.74867 1.98039C3.76653 1.96789 3.78563 1.95539 3.80438 1.94307C3.85271 1.91117 3.90146 1.8798 3.95062 1.84897C3.96848 1.83754 3.98723 1.82594 4.00562 1.81469C4.02401 1.80344 4.04401 1.79147 4.06329 1.78005C4.07972 1.77005 4.09632 1.76023 4.11293 1.75041C4.16828 1.71791 4.22453 1.68595 4.28095 1.65506L4.33095 1.62791C4.3675 1.60804 4.40428 1.58869 4.4413 1.56988C4.46005 1.56042 4.47862 1.5506 4.49737 1.54131L5.24374 3.28762L3.2046 5.32693L1.46419 4.59966C1.98611 3.54363 2.77329 2.64122 3.74867 1.98075V1.98039ZM0.782278 7.54945C0.781015 6.7941 0.907801 6.04401 1.15725 5.33104L2.88927 6.05492V9.04381L1.15725 9.76768C0.907788 9.05478 0.781 8.30474 0.782278 7.54945ZM4.49737 13.5572C3.18151 12.8937 2.11698 11.8205 1.46419 10.4992L3.20514 9.77179L5.24374 11.8115L4.49737 13.5572ZM7.49608 14.2627C6.72236 14.2643 5.95427 14.1313 5.22606 13.8699L5.95815 12.1557H9.03293L9.76502 13.8699C9.03715 14.1312 8.26943 14.2641 7.49608 14.2627ZM10.4948 13.5572L9.74931 11.8115L11.7884 9.77233L13.5294 10.4998C12.8761 11.821 11.8111 12.8941 10.4948 13.5572ZM13.8349 9.76768L12.1013 9.04381L12.0924 6.0592L13.8349 5.33122C14.3322 6.74969 14.332 8.34939 13.8349 9.76768Z" fill="#404040"/>
</g>
<defs>
<clipPath id="clip0">
<rect width="15" height="15" fill="white"/>
</clipPath>
</defs>
</svg>
