<svg width="26" height="25" viewBox="0 0 26 25" fill="none" xmlns="http://www.w3.org/2000/svg">
<path d="M24.1901 24.9318C24.6464 24.9009 25.0048 24.5269 25.0152 24.0697L25.0745 16.273C25.0781 15.7893 24.6891 15.3945 24.2054 15.3907C23.7219 15.387 23.327 15.7761 23.3232 16.2597L23.2799 21.9612L19.237 17.9184L19.2679 7.051L23.3281 2.99082L23.3247 16.2716C23.3242 16.7551 23.716 17.1474 24.1997 17.1478C24.6834 17.1482 25.0742 16.7566 25.0745 16.273L25.0807 0.882589C25.0807 0.882589 25.0807 0.876089 25.0807 0.871074C25.0787 0.38827 24.6844 -0.00209658 24.2015 8.47376e-06L1.0224 0.0653272C1.01485 0.0653272 0.98971 0.067061 0.952376 0.0699709C0.498485 0.105819 0.146938 0.484732 0.145947 0.940046L0.0806885 24.1229L0.0809359 24.1274C0.110345 24.5921 0.480404 24.963 0.944635 24.9989L0.958751 25L24.1362 24.9347C24.1433 24.9346 24.1623 24.9336 24.1901 24.9318ZM17.4875 17.4068L7.64608 17.4345L7.67381 7.59306L17.5152 7.56538L17.4875 17.4068ZM22.0851 1.75718L18.0295 5.81279L7.16228 5.84337L3.12945 1.81055L22.0851 1.75718ZM5.924 7.08165L5.89341 17.9489L1.83781 22.0045L1.89118 3.04883L5.924 7.08165ZM3.07608 23.2428L7.13169 19.1872L17.9989 19.1566L22.0318 23.1895L3.07608 23.2428Z" fill="#404040"/>
</svg>
