<svg viewBox="-32 0 512 512" xmlns="http://www.w3.org/2000/svg"><path d="m176.617188 0h90.351562v244.332031h-90.351562zm0 0"/><path d="m355.371094 105.535156-13.105469-8.40625-50.445313 73.839844 11.746094 8.613281c34.285156 25.140625 54.753906 65.542969 54.753906 108.082031 0 73.878907-60.105468 133.984376-133.984374 133.984376-73.878907 0-133.984376-60.105469-133.984376-133.984376 0-40.996093 19.351563-80.546874 51.761719-105.800781l11.152344-8.6875-50.835937-74.519531-12.601563 9.457031c-56.246094 42.210938-89.828125 109.332031-89.828125 179.550781-.00390625 123.699219 100.636719 224.335938 224.335938 224.335938 123.699218 0 224.335937-100.636719 224.335937-224.339844 0-72.011718-34.878906-140.09375-93.300781-182.125zm0 0"/></svg>