<?xml version="1.0" encoding="utf-8"?>
<!-- Generator: Adobe Illustrator 25.2.1, SVG Export Plug-In . SVG Version: 6.00 Build 0)  -->
<svg version="1.1" id="Layer_1" xmlns="http://www.w3.org/2000/svg" xmlns:xlink="http://www.w3.org/1999/xlink" x="0px" y="0px"
	 viewBox="0 0 512 512" style="enable-background:new 0 0 512 512;" xml:space="preserve">
<g id="save-disk-storage-button-file">
	<path d="M256,509C116.3,509,3,395.7,3,256S116.3,3,256,3s253,113.3,253,253C508.8,395.7,395.7,508.8,256,509z M256,31
		C131.7,31,31,131.7,31,256s100.7,225,225,225s225-100.7,225-225C480.9,131.8,380.2,31.1,256,31z"/>
	<g>
		<path d="M412.1,179.4l-79.5-79.5c-1.9-1.8-4.4-2.9-7.1-2.9H106.9c-5.5,0-9.9,4.4-9.9,9.9v298.1c0,5.5,4.4,9.9,9.9,9.9h298.1
			c5.5,0,9.9-4.4,9.9-9.9V186.4C415,183.8,413.9,181.3,412.1,179.4z M176.5,116.9h139.1v79.5H176.5V116.9z M335.5,395.1h-159v-99.4
			h159V395.1z M395.1,395.1h-39.8V285.8c0-5.5-4.4-9.9-9.9-9.9H166.6c-5.5,0-9.9,4.4-9.9,9.9v109.3h-39.8V116.9h39.8v89.4
			c0,5.5,4.4,9.9,9.9,9.9h159c5.5,0,9.9-4.4,9.9-9.9v-75.4l59.6,59.6V395.1z"/>
		<path d="M305.7,315.6h-99.4c-5.5,0-9.9,4.4-9.9,9.9s4.4,9.9,9.9,9.9h99.4c5.5,0,9.9-4.4,9.9-9.9S311.2,315.6,305.7,315.6z"/>
		<path d="M305.7,355.4h-99.4c-5.5,0-9.9,4.4-9.9,9.9s4.4,9.9,9.9,9.9h99.4c5.5,0,9.9-4.4,9.9-9.9S311.2,355.4,305.7,355.4z"/>
		<path d="M295.8,126.8h-29.8c-5.5,0-9.9,4.4-9.9,9.9v39.8c0,5.5,4.4,9.9,9.9,9.9h29.8c5.5,0,9.9-4.4,9.9-9.9v-39.8
			C305.7,131.3,301.2,126.8,295.8,126.8z M285.8,166.6h-9.9v-19.9h9.9V166.6z"/>
	</g>
</g>
</svg>
