<svg id="Gradient" enable-background="new 0 0 384 384" viewBox="0 0 384 384" xmlns="http://www.w3.org/2000/svg" xmlns:xlink="http://www.w3.org/1999/xlink"><linearGradient id="SVGID_1_" gradientUnits="userSpaceOnUse" x1="192" x2="192" y1="384" y2="0"><stop offset="0" stop-color="#54012c"/><stop offset="1" stop-color="#e1126d"/></linearGradient><path d="m384 12v120c0 6.63-5.37 12-12 12s-12-5.37-12-12v-91.03l-99.52 99.52c-4.69 4.69-12.28 4.69-16.97 0s-4.69-12.28 0-16.97l99.52-99.52h-91.03c-6.63 0-12-5.37-12-12s5.37-12 12-12h120c6.63 0 12 5.37 12 12zm-252-12h-120c-6.63 0-12 5.37-12 12v120c0 6.63 5.37 12 12 12s12-5.37 12-12v-91.03l99.52 99.52c4.69 4.69 12.28 4.69 16.97 0s4.69-12.28 0-16.97l-99.52-99.52h91.03c6.63 0 12-5.37 12-12s-5.37-12-12-12zm240 240c-6.63 0-12 5.37-12 12v91.03l-99.52-99.52c-4.69-4.69-12.28-4.69-16.97 0s-4.69 12.28 0 16.97l99.52 99.52h-91.03c-6.63 0-12 5.37-12 12s5.37 12 12 12h120c6.63 0 12-5.37 12-12v-120c0-6.63-5.37-12-12-12zm-240 120h-91.03l99.52-99.52c4.69-4.69 4.69-12.28 0-16.97s-12.28-4.69-16.97 0l-99.52 99.52v-91.03c0-6.63-5.37-12-12-12s-12 5.37-12 12v120c0 6.63 5.37 12 12 12h120c6.63 0 12-5.37 12-12s-5.37-12-12-12z" fill="url(#SVGID_1_)"/></svg>