<?xml version="1.0" encoding="iso-8859-1"?>
<!-- Generator: Adobe Illustrator 19.0.0, SVG Export Plug-In . SVG Version: 6.00 Build 0)  -->
<svg version="1.1" id="Layer_1" xmlns="http://www.w3.org/2000/svg" xmlns:xlink="http://www.w3.org/1999/xlink" x="0px" y="0px"
	 viewBox="0 0 496 496" style="enable-background:new 0 0 496 496;" xml:space="preserve">
<g>
	<g>
		<path d="M416,0H310.4c-9.6,0-16,6.4-16,16s6.4,16,16,16H416c22.4,0,48,22.4,48,44.8v94.4c0,9.6,6.4,16,16,16c9.6,0,16-8,16-17.6
			V76.8C496,38.4,457.6,0,416,0z"/>
	</g>
</g>
<g>
	<g>
		<path d="M169.6,0H67.2C30.4,0,0,33.6,0,76.8v94.4c0,9.6,6.4,16,16,16s16-8,16-17.6V76.8C32,56,44.8,32,68.8,32h100.8
			c9.6,0,16-6.4,16-16S179.2,0,169.6,0z"/>
	</g>
</g>
<g>
	<g>
		<path d="M480,310.4c-9.6,0-16,6.4-16,16v99.2c0,22.4-25.6,38.4-48,38.4H310.4c-9.6,0-16,6.4-16,16c0,9.6,6.4,16,16,16H416
			c38.4,0,80-28.8,80-70.4v-99.2C496,316.8,489.6,310.4,480,310.4z"/>
	</g>
</g>
<g>
	<g>
		<path d="M171.2,464H68.8c-25.6,0-35.2-19.2-35.2-38.4v-99.2c0-9.6-6.4-16-16-16c-9.6,0-16,6.4-16,16v99.2
			c0,41.6,27.2,70.4,67.2,70.4h102.4c8,0,16-6.4,16-16C187.2,470.4,180.8,464,171.2,464z"/>
	</g>
</g>
<g>
	<g>
		<path d="M190.4,302.4c-6.4-6.4-16-6.4-22.4,0l-152,152c-6.4,6.4-6.4,16,0,22.4c3.2,3.2,6.4,4.8,11.2,4.8c3.2,0,8-1.6,11.2-4.8
			l152-152C196.8,318.4,196.8,308.8,190.4,302.4z"/>
	</g>
</g>
<g>
	<g>
		<path d="M467.2,25.6c-6.4-6.4-16-6.4-22.4,0l-152,152c-6.4,6.4-6.4,16,0,22.4c3.2,3.2,6.4,4.8,11.2,4.8c3.2,0,8-1.6,11.2-4.8
			l152-152C473.6,41.6,473.6,32,467.2,25.6z"/>
	</g>
</g>
<g>
	<g>
		<path d="M467.2,454.4l-152-152c-6.4-6.4-16-6.4-22.4,0c-6.4,6.4-6.4,16,0,22.4l152,152c3.2,3.2,6.4,4.8,11.2,4.8s8-1.6,11.2-4.8
			C473.6,470.4,473.6,460.8,467.2,454.4z"/>
	</g>
</g>
<g>
	<g>
		<path d="M192,179.2L38.4,25.6c-6.4-6.4-16-6.4-22.4,0C9.6,32,9.6,41.6,16,48l152,152c3.2,3.2,6.4,4.8,11.2,4.8s9.6-1.6,12.8-3.2
			C198.4,195.2,198.4,185.6,192,179.2z"/>
	</g>
</g>
<g>
</g>
<g>
</g>
<g>
</g>
<g>
</g>
<g>
</g>
<g>
</g>
<g>
</g>
<g>
</g>
<g>
</g>
<g>
</g>
<g>
</g>
<g>
</g>
<g>
</g>
<g>
</g>
<g>
</g>
</svg>
