<?xml version="1.0" encoding="utf-8"?>
<!-- Generator: Adobe Illustrator 25.2.1, SVG Export Plug-In . SVG Version: 6.00 Build 0)  -->
<svg version="1.1" id="Layer_1" xmlns="http://www.w3.org/2000/svg" xmlns:xlink="http://www.w3.org/1999/xlink" x="0px" y="0px"
	 viewBox="0 0 512 512" style="enable-background:new 0 0 512 512;" xml:space="preserve">
<path d="M401.7,111.8c-1.6-3.3-4.9-5.4-8.6-5.4H118.9c-3.7,0-7,2.1-8.6,5.4L69,197.6c-0.6,1.3-1,2.7-1,4.1
	c0,21.3,14.9,39.7,35.7,44.2v150.1c0,5.3,4.3,9.5,9.5,9.5h285.5c5.3,0,9.5-4.3,9.5-9.5V246c20.8-4.5,35.7-22.9,35.7-44.2
	c0-1.4-0.3-2.9-1-4.1L401.7,111.8z M353.5,202.4c-0.3,14.4-12.3,25.9-26.7,25.5c-14.2-0.3-25.5-11.9-25.5-26.1v-76.3h40.6
	L353.5,202.4z M170.2,125.5h40.6v76.3c0,14.4-11.7,26.1-26.1,26.1c-14.2,0-25.8-11.3-26.1-25.5L170.2,125.5z M229.9,125.5h52.3v76.3
	c0,14.4-11.7,26.1-26.1,26.1c-14.4,0-26.1-11.7-26.1-26.1c0,0,0,0,0,0L229.9,125.5z M87.2,203.8l37.8-78.3h25.9l-11.4,74.9
	c0,0.1,0,0.1,0,0.2c0,0.2,0,0.3-0.1,0.5c0,0.2,0,0.3,0,0.5c0,0.1,0,0.1,0,0.2c0,14.4-11.7,26.2-26.1,26.2
	C99.6,227.9,88.2,217.4,87.2,203.8L87.2,203.8z M300.7,386.5h-89.4v-58.4c0-24.7,20-44.7,44.7-44.7s44.7,20,44.7,44.7V386.5z
	 M319.8,386.5v-58.4c0-35.2-28.6-63.8-63.8-63.8c-35.2,0-63.8,28.6-63.8,63.8c0,0,0,0,0,0v58.4h-69.4V246
	c10.4-2.2,19.6-8.1,26.1-16.4c15.3,19.7,43.7,23.3,63.4,8c3-2.3,5.7-5,8-8c15.3,19.7,43.7,23.3,63.4,8c3-2.3,5.7-5,8-8
	c15.3,19.7,43.7,23.3,63.4,8c3-2.3,5.7-5,8-8c6.5,8.4,15.8,14.2,26.1,16.4v140.5H319.8z M398.8,227.9c-14.4,0-26.1-11.7-26.1-26.1
	c0-0.1,0-0.1,0-0.2c0-0.2,0-0.3,0-0.5s0-0.3-0.1-0.5c0-0.1,0-0.1,0-0.2l-11.4-74.9h25.9l37.8,78.3
	C423.8,217.4,412.4,227.9,398.8,227.9L398.8,227.9z M256,0C114.8,0,0,114.8,0,256s114.8,256,256,256s256-114.8,256-256
	S397.2,0,256,0L256,0z M256,496C123.7,496,16,388.3,16,256S123.7,16,256,16s240,107.7,240,240S388.3,496,256,496L256,496z"/>
</svg>
