<?xml version="1.0" encoding="utf-8"?>
<!-- Generator: Adobe Illustrator 25.2.1, SVG Export Plug-In . SVG Version: 6.00 Build 0)  -->
<svg version="1.1" id="Capa_1" xmlns="http://www.w3.org/2000/svg" xmlns:xlink="http://www.w3.org/1999/xlink" x="0px" y="0px"
	 viewBox="0 0 512 512" style="enable-background:new 0 0 512 512;" xml:space="preserve">
<style type="text/css">
	.st0{fill:#386895;}
	.st1{fill:#273B7A;}
	.st2{fill:#FFC61B;}
	.st3{fill:#EAA22F;}
	.st4{fill:#6D7183;}
	.st5{fill:#FEDC63;}
	.st6{fill:#F4CC4D;}
</style>
<path class="st0" d="M485.8,402.9l-3.8-8l-113-241.2c-2.8-5.9-7.8-10.4-14-12.3l-70-22.1l-32.5-10.3c-8.3-2.6-39.6,11.3-44,20.6
	c-0.1,0.1-0.1,0.3-0.2,0.4l-38.6,98.2c-2.3,5.9-2.1,12.6,0.6,18.4l80.9,172.8l35.9,76.6c5.5,11.6,19.3,16.6,30.9,11.2l156.6-73.3
	C486.2,428.3,491.3,414.5,485.8,402.9z M257.7,174.6c-9.1,4.2-19.8,0.3-24.1-8.7c-4.2-9.1-0.3-19.8,8.7-24.1
	c9.1-4.2,19.8-0.3,24.1,8.7C270.7,159.5,266.8,170.3,257.7,174.6z"/>
<path class="st1" d="M485.8,402.9l-3.8-8l-149.1,69.8c-5.9,2.8-13,0.2-15.8-5.7l-19.3-41.3L353,284.5c2.5-6,2.4-12.8-0.4-18.7
	L282,118.2l-29.5-9.3c-8.3-2.6-39.6,11.3-44,20.6c-0.1,0.1-0.1,0.3-0.2,0.4l-38.6,98.2c-2.3,5.9-2.1,12.6,0.6,18.4l80.9,172.8
	l35.9,76.6c5.5,11.6,19.3,16.6,30.9,11.2l156.6-73.3C486.2,428.3,491.3,414.5,485.8,402.9z M257.7,174.6c-9.1,4.2-19.8,0.3-24.1-8.7
	c-4.2-9.1-0.3-19.8,8.7-24.1c9.1-4.2,19.8-0.3,24.1,8.7C270.7,159.5,266.8,170.3,257.7,174.6z"/>
<path class="st2" d="M333.5,224.7l-12-25.9l-33.2-71.7c-7.9-17.1-27.7-25.2-45.3-18.4l-98.6,37.7c-6,2.3-10.7,6.9-13.2,12.8
	L25.8,413.6c-4.9,11.9,0.7,25.5,12.6,30.4l152.3,63.1l7.5,3.1c11.9,4.9,25.5-0.7,30.4-12.6l105.4-254.3
	C336.4,237.4,336.2,230.6,333.5,224.7z M233.5,151.6c3.8-9.2,14.4-13.6,23.7-9.8c9.2,3.8,13.6,14.4,9.8,23.6
	c-3.8,9.2-14.4,13.6-23.7,9.8C234.1,171.4,229.7,160.9,233.5,151.6z"/>
<path class="st3" d="M333.9,243.4L228.5,497.6c-4.9,11.9-18.5,17.5-30.4,12.6l-7.5-3.1l130.9-308.3l12,25.9
	C336.2,230.6,336.4,237.4,333.9,243.4z"/>
<path class="st4" d="M254.4,149.7c0.3,0,0.6,0,0.8,0c3.8,0,7.1-2.9,7.6-6.8c0.1-0.8,8.9-82.1,18.4-105.1
	c3.5-8.3,12.9-27.1,26.2-21.6c13.3,5.5,6.7,25.5,3.2,33.8c-5.2,12.6-21.8,42.9-35.9,61.7c2.9,1.8,5.6,4,7.9,6.6l2.5,0.8l2.5,0.8
	c14.7-19.9,31.6-51,37.1-64.1c12.8-30.8,2.5-47.9-11.4-53.7c-13.9-5.8-33.3-0.9-46.1,29.9c-10.4,25-19.1,105.9-19.5,109.3
	C247.1,145.5,250.2,149.2,254.4,149.7z"/>
<g>
	<circle class="st5" cx="185.8" cy="318.4" r="77.6"/>
	<circle class="st5" cx="185.8" cy="318.4" r="77.6"/>
</g>
<circle class="st0" cx="185.8" cy="318.4" r="61.6"/>
<path class="st6" d="M215,297.7c-1.8-3.4-4.9-5.9-8.6-7.1l-3.5-1.1l2.4-7.7c1.2-4-1-8.3-5.1-9.5c-4-1.2-8.3,1-9.5,5.1l-2.4,7.9
	c-10.1-1.8-20.3,4.3-23.4,14.4c-1.6,5.3-1.1,10.9,1.5,15.8c2.6,4.9,7,8.5,12.3,10.1l9.6,2.9c1.4,0.4,2.6,1.4,3.3,2.7
	c0.7,1.3,0.8,2.8,0.4,4.2c-0.4,1.4-1.4,2.6-2.7,3.3c-1.3,0.7-2.8,0.8-4.2,0.4l-4.8-1.5l0,0l0,0l-10.1-3.1c0.8-3.8-1.4-7.7-5.2-8.8
	c-4-1.2-8.3,1-9.5,5.1c-2.3,7.7,2,15.8,9.6,18.1l3.5,1.1l-2.4,7.7c-1.2,4,1,8.3,5.1,9.5c0.7,0.2,1.5,0.3,2.2,0.3
	c3.3,0,6.3-2.1,7.3-5.4l2.4-7.9c1.2,0.2,2.4,0.3,3.5,0.3c3.4,0,6.7-0.8,9.7-2.4c4.9-2.6,8.5-7,10.1-12.3
	c3.3-10.9-2.8-22.6-13.8-25.9l-9.6-2.9c-1.4-0.4-2.6-1.4-3.3-2.7c-0.7-1.3-0.8-2.8-0.4-4.2c0.9-2.9,4-4.6,6.9-3.7l4.8,1.5
	c0,0,0,0,0,0c0,0,0,0,0,0l10.1,3.1c-0.8,3.8,1.4,7.7,5.2,8.8c4,1.2,8.3-1,9.5-5.1C217.2,305,216.9,301.1,215,297.7z"/>
<g>
	<path class="st6" d="M435.4,410.1c-2.9,0-5.6-1.6-6.9-4.4l-48.7-103.5c-1.8-3.8-0.2-8.3,3.6-10.1c3.8-1.8,8.3-0.2,10.1,3.6
		l48.7,103.5c1.8,3.8,0.2,8.3-3.6,10.1C437.6,409.9,436.5,410.1,435.4,410.1z"/>
	<path class="st6" d="M401.4,428.3c-2.9,0-5.6-1.6-6.9-4.4l-48.7-103.5c-1.8-3.8-0.2-8.3,3.6-10.1c3.8-1.8,8.3-0.2,10.1,3.6
		l48.7,103.5c1.8,3.8,0.2,8.3-3.6,10.1C403.6,428.1,402.5,428.3,401.4,428.3z"/>
</g>
</svg>
