<svg fill="none" height="64" viewBox="0 0 64 64" width="64" xmlns="http://www.w3.org/2000/svg"><g fill="rgb(0,0,0)"><path d="m35 15c-1.1046 0-2 .8954-2 2s.8954 2 2 2h14c1.1046 0 2-.8954 2-2s-.8954-2-2-2z"/><path d="m35 25c-1.1046 0-2 .8954-2 2s.8954 2 2 2h14c1.1046 0 2-.8954 2-2s-.8954-2-2-2z"/><path d="m15 35c-1.1046 0-2 .8954-2 2s.8954 2 2 2h34c1.1046 0 2-.8954 2-2s-.8954-2-2-2z"/><path d="m15 45c-1.1046 0-2 .8954-2 2s.8954 2 2 2h34c1.1046 0 2-.8954 2-2s-.8954-2-2-2z"/><path d="m14 17c0-1.1046.8954-2 2-2h12c1.1046 0 2 .8954 2 2s-.8954 2-2 2h-4v8c0 1.1046-.8954 2-2 2s-2-.8954-2-2v-8h-4c-1.1046 0-2-.8954-2-2z"/><path clip-rule="evenodd" d="m20 2c-9.9411 0-18 8.0589-18 18v24c0 9.9411 8.0589 18 18 18h24c9.9411 0 18-8.0589 18-18v-24c0-9.9411-8.0589-18-18-18zm-14 18c0-7.732 6.268-14 14-14h24c7.732 0 14 6.268 14 14v24c0 7.732-6.268 14-14 14h-24c-7.732 0-14-6.268-14-14z" fill-rule="evenodd"/></g></svg>