<svg id="Layer_1" enable-background="new 0 0 512 512" height="512" viewBox="0 0 512 512" width="512" xmlns="http://www.w3.org/2000/svg"><path d="m397 161.358v50.893c0 8.836-7.163 16-16 16h-50.893c-8.837 0-16-7.164-16-16s7.163-16 16-16h17.12c-19.834-30.476-53.677-49.251-91.227-49.251-45.211 0-85.069 27.2-101.544 69.295-3.221 8.229-12.508 12.289-20.73 9.068-8.229-3.22-12.289-12.502-9.068-20.73 10.222-26.12 27.841-48.417 50.953-64.483 23.669-16.453 51.467-25.15 80.389-25.15s56.721 8.697 80.391 25.15c10.809 7.514 20.398 16.406 28.609 26.399v-5.192c0-8.836 7.163-16 16-16s16 7.164 16 16.001zm-18.726 125.278c-8.226-3.223-17.51.838-20.73 9.068-16.475 42.096-56.333 69.296-101.544 69.296-36.814 0-70.076-18.038-90.058-47.464h15.95c8.837 0 16-7.164 16-16s-7.163-16-16-16h-50.892c-8.837 0-16 7.164-16 16v50.893c0 8.836 7.163 16 16 16s16-7.164 16-16v-6.978c8.211 9.994 17.801 18.886 28.61 26.399 23.67 16.453 51.468 25.15 80.39 25.15s56.72-8.697 80.39-25.15c23.112-16.065 40.731-38.363 50.953-64.483 3.22-8.229-.84-17.511-9.069-20.731zm133.726-30.636c0 141.159-114.841 256-256 256s-256-114.841-256-256 114.841-256 256-256 256 114.841 256 256zm-32 0c0-123.514-100.486-224-224-224s-224 100.486-224 224 100.486 224 224 224 224-100.486 224-224z"/></svg>