<?xml version="1.0" encoding="utf-8"?>
<!-- Generator: Adobe Illustrator 25.2.1, SVG Export Plug-In . SVG Version: 6.00 Build 0)  -->
<svg version="1.1" id="Layer_1" xmlns="http://www.w3.org/2000/svg" xmlns:xlink="http://www.w3.org/1999/xlink" x="0px" y="0px"
	 viewBox="0 0 512 512" style="enable-background:new 0 0 512 512;" xml:space="preserve">
<g>
	<g>
		<path d="M329.3,238.3c31.1-22.7,51.3-59.4,51.3-100.7C380.6,68.9,324.7,13,256,13S131.4,68.9,131.4,137.6
			c0,41.3,20.2,78.1,51.3,100.7C105.4,267.9,50.4,342.9,50.4,430.5c0,37.8,30.7,68.5,68.5,68.5h274.2c37.8,0,68.5-30.7,68.5-68.5
			C461.6,342.9,406.6,267.9,329.3,238.3z M168.8,137.6c0-48.1,39.1-87.2,87.2-87.2s87.2,39.1,87.2,87.2s-39.1,87.2-87.2,87.2
			S168.8,185.7,168.8,137.6z M393.1,461.6H118.9c-17.2,0-31.2-14-31.2-31.2c0-92.8,75.5-168.2,168.2-168.2s168.2,75.5,168.2,168.2
			C424.2,447.6,410.3,461.6,393.1,461.6z"/>
	</g>
</g>
</svg>
