<svg id="Capa_1" enable-background="new 0 0 512 512" height="512" viewBox="0 0 512 512" width="512" xmlns="http://www.w3.org/2000/svg"><g><path d="m512 256c0 92.077-48.609 172.796-121.572 217.904-39.072 24.153-85.125 38.096-134.428 38.096-27.292 0-53.588-4.275-78.255-12.192-19.918-6.378-38.78-15.14-56.234-25.944-72.922-45.108-121.511-125.817-121.511-217.864 0-141.389 114.621-256 256-256 141.39 0 256 114.611 256 256z" fill="#66b49d"/><path d="m469.381 298.619c0 76.748-40.516 144.029-101.333 181.627-32.567 20.132-70.953 31.754-112.048 31.754-22.748 0-44.667-3.564-65.227-10.163-16.602-5.316-32.324-12.619-46.872-21.625-60.783-37.598-101.282-104.871-101.282-181.593 0-117.851 95.539-213.381 213.381-213.381 117.851-.001 213.381 95.53 213.381 213.381z" fill="#86f1a7"/><g><path d="m390.423 446.499v27.405c-39.066 24.153-85.116 38.091-134.418 38.091-27.302 0-53.589-4.267-78.255-12.184-19.928-6.379-38.789-15.138-56.235-25.948v-27.364c0-25.353 35.138-38.297 58.737-44.122h.01c4.39-1.087 8.379-1.918 11.671-2.544 5.661-1.087 9.251-1.538 9.251-1.538h109.557s6.072.759 14.871 2.667c23.058 5.014 64.811 17.896 64.811 45.537z" fill="#dd636e"/><path d="m325.614 400.961c-.974 29.271-30.522 52.758-66.84 52.758-36.779 0-66.614-24.092-66.84-53.886 5.661-1.087 9.251-1.538 9.251-1.538h109.557s6.072.759 14.872 2.666z" fill="#ffb983"/><path d="m177.745 499.808c-19.918-6.378-38.78-15.14-56.234-25.944v-27.362c0-25.361 35.139-38.297 58.739-44.122-3.903 10.502-4.597 54.231-2.505 97.428z" fill="#c63d4f"/><path d="m385.197 306.882h.181c15.541 0 28.133-12.603 28.133-28.133 0-15.541-12.592-28.144-28.133-28.144-.202 0-.404 0-.607.011h-257.614c-.202-.011-.404-.011-.607-.011-15.541 0-28.133 12.603-28.133 28.144 0 15.53 12.592 28.133 28.133 28.133h.181" fill="#ffb983"/><path d="m378.726 177.14c-81.841-7.934-163.682-7.934-245.522 0-6.351 50.886-8.221 101.771-5.612 152.657 1.9 37.042 31.541 66.526 68.59 68.275 39.855 1.882 79.71 1.882 119.565 0 37.049-1.749 66.69-31.233 68.59-68.275 2.61-50.886.74-101.771-5.611-152.657z" fill="#fcd0a3"/><path d="m133.208 177.132c40.913-3.968 81.839-5.946 122.764-5.946-20.719 0-41.438 2.002-62.157 6.007-3.223 51.377-4.163 102.753-2.845 154.118.867 33.807 13.223 61.376 29.437 67.664-8.07-.22-16.153-.525-24.223-.903-37.043-1.746-66.687-31.231-68.592-68.274-2.601-50.89-.733-101.778 5.616-152.666z" fill="#ffb983"/><path d="m384.081 227.815c-26.128 26.14-77.871-26.128-77.871-26.128 1.465 9.462-1.197 18.68-11.452 26.006-7.265 5.189-15.481 7.472-23.991 7.814-34.1 1.367-72.755-28.619-72.755-28.619-6.886 18.937-27.202 18.558-44.039 14.407-15.494-3.822-28.582-14.077-36.054-28.179-12.844-24.235-30.255-65.234-12.502-82.986 26.006-26.006 58.263 0 58.263 0s31.329-11.757 71.314-20.084c.012 0 .037-.012.049-.012 47.848-9.963 108.076-15.042 141.908 10.744 34.918 26.616 33.27 100.909 7.13 127.037z" fill="#617881"/><path d="m270.766 235.507c-34.1 1.367-72.755-28.619-72.755-28.619-6.886 18.937-27.202 18.558-44.039 14.407-15.494-3.822-28.582-14.077-36.054-28.179-12.844-24.235-30.255-65.234-12.502-82.986 26.006-26.006 58.263 0 58.263 0s31.329-11.757 71.314-20.084c-51.694 13.576-9.316 129.271 35.773 145.461z" fill="#404a4a"/><g fill="#404a4a"><path d="m196.061 251.444c-6.453 0-11.702 7.816-11.702 17.423s5.249 17.423 11.702 17.423c6.452 0 11.701-7.816 11.701-17.423s-5.249-17.423-11.701-17.423z"/><ellipse cx="315.868" cy="268.867" rx="11.701" ry="17.423"/></g><path d="m255.965 336.547c-14.335 0-27.569-8.37-33.717-21.323-1.83-3.855-.188-8.463 3.667-10.293 3.853-1.828 8.463-.188 10.293 3.667 3.603 7.591 11.358 12.496 19.758 12.496 8.399 0 16.155-4.905 19.758-12.496 1.83-3.856 6.441-5.497 10.293-3.667 3.855 1.83 5.497 6.438 3.667 10.293-6.15 12.953-19.384 21.323-33.719 21.323z" fill="#dd636e"/></g></g></svg>