<svg id="Layer_1" height="512" viewBox="0 0 512 512" width="512" xmlns="http://www.w3.org/2000/svg" data-name="Layer 1"><path d="m490.536 462.499-48.554-48.554c-1.851-1.851-4.778-1.926-6.742-.269l-15.495-15.495c12.463-18.178 19.766-40.157 19.766-63.813 0-44.991-26.401-83.929-64.521-102.146v-58.01c10.64-5.021 18.023-15.849 18.023-28.373v-18.052c0-.878-.231-1.74-.67-2.5l-53.645-92.915v-4.978c0-11.785-9.588-21.373-21.373-21.373h-227.623c-11.785 0-21.373 9.588-21.373 21.373v4.978l-53.645 92.915c-.438.76-.67 1.622-.67 2.5v18.052c0 12.524 7.383 23.352 18.023 28.373v174.097h-13.023c-2.762 0-5 2.238-5 5v22.689c0 2.762 2.238 5 5 5h204.289c17.798 39.187 57.305 66.506 103.073 66.506 23.656 0 45.635-7.303 63.813-19.766l15.494 15.494c-.756.898-1.195 2.023-1.195 3.206 0 1.326.527 2.598 1.465 3.535l48.554 48.556c4.967 4.966 11.491 7.449 18.015 7.449s13.049-2.483 18.015-7.45c9.934-9.933 9.934-26.096 0-36.029zm-128.879-295.303c-11.776 0-21.357-9.581-21.357-21.357v-13.051h42.714v13.051c0 11.776-9.58 21.357-21.356 21.357zm-258.602-128.484-34.673 84.075h-40.708s48.542-84.075 48.542-84.075zm227.758 0 48.541 84.076h-40.708s-34.673-84.076-34.673-84.076h26.839zm-37.655 0 34.673 84.076h-41.33l-20.804-84.076zm-37.763 0 20.804 84.076h-41.722s-6.934-84.076-6.934-84.076zm-37.887 0 6.934 84.076h-41.855l6.934-84.076zm-44.955 84.076h-41.722s20.804-84.076 20.804-84.076h27.852zm-52.023 0h-41.33l34.671-84.076h27.461l-20.804 84.075zm-43.8 10h42.714v13.052c0 11.776-9.58 21.357-21.356 21.357s-21.357-9.581-21.357-21.357v-13.052zm52.714 0h42.715v13.052c0 11.776-9.581 21.357-21.357 21.357s-21.357-9.581-21.357-21.357v-13.052zm52.715 0h42.714v13.051c0 11.776-9.581 21.357-21.357 21.357s-21.356-9.581-21.356-21.357v-13.051zm52.714 0h42.715v13.051c0 11.776-9.581 21.357-21.357 21.357s-21.357-9.581-21.357-21.357v-13.051zm52.715 0h42.714v13.051c0 11.776-9.581 21.357-21.357 21.357s-21.356-9.581-21.356-21.357v-13.051zm-197.886-116.767h227.624c6.271 0 11.373 5.102 11.373 11.373v1.317h-250.37v-1.317c0-6.271 5.102-11.373 11.373-11.373zm-65.688 129.818v-13.052h42.715v13.052c0 11.776-9.581 21.357-21.357 21.357s-21.357-9.581-21.357-21.357zm18.023 31.178c1.096.116 2.208.179 3.334.179 11.042 0 20.769-5.736 26.357-14.386 5.589 8.649 15.315 14.386 26.357 14.386s20.769-5.736 26.356-14.386c5.589 8.649 15.315 14.386 26.357 14.386s20.769-5.736 26.357-14.386c5.588 8.649 15.314 14.386 26.356 14.386s20.769-5.736 26.357-14.386c5.589 8.649 15.315 14.386 26.357 14.386s20.769-5.736 26.357-14.386c5.588 8.649 15.314 14.386 26.356 14.386s20.769-5.736 26.357-14.386c5.589 8.649 15.315 14.386 26.357 14.386 1.126 0 2.237-.063 3.333-.179v51.004c-5.767-2.101-11.753-3.741-17.911-4.884v-22.243c0-2.762-2.238-5-5-5h-79.475c-2.762 0-5 2.238-5 5v43.706c-6.577 5.051-12.585 10.805-17.911 17.152v-60.858c0-2.762-2.238-5-5-5h-169.739c-2.762 0-5 2.238-5 5v124.504c0 2.762 2.238 5 5 5h148.369c-.046 1.319-.077 2.641-.077 3.971 0 4.719.295 9.371.859 13.94h-172.063zm295.042 44.724c-3.524-.332-7.093-.51-10.703-.51-21.508 0-41.632 6.034-58.771 16.497v-31.835h69.475v15.848zm-122.976 98.656h-144.154v-114.504h159.744v69.772c-8.138 13.354-13.585 28.517-15.591 44.732zm-190.089 50.601v-12.689h191.784c.936 4.326 2.115 8.562 3.532 12.689zm199.227-36.63c0-56.87 46.267-103.137 103.136-103.137s103.136 46.267 103.136 103.137-46.267 103.136-103.136 103.136-103.136-46.267-103.136-103.136zm190.436 71.884 14.464 14.464-15.416 15.416-14.464-14.464c5.618-4.634 10.782-9.798 15.416-15.416zm69.79 85.206c-6.033 6.033-15.852 6.034-21.889 0l-45.018-45.02 21.888-21.887 45.018 45.018c6.035 6.035 6.035 15.854 0 21.889zm-157.09-245.7c-48.859 0-88.61 39.751-88.61 88.61s39.751 88.61 88.61 88.61 88.61-39.751 88.61-88.61-39.751-88.61-88.61-88.61zm0 167.221c-43.346 0-78.61-35.265-78.61-78.61s35.265-78.61 78.61-78.61 78.61 35.265 78.61 78.61-35.265 78.61-78.61 78.61z"/></svg>