<?xml version="1.0" encoding="iso-8859-1"?>
<!-- Generator: Adobe Illustrator 19.0.0, SVG Export Plug-In . SVG Version: 6.00 Build 0)  -->
<svg version="1.1" id="Capa_1" xmlns="http://www.w3.org/2000/svg" xmlns:xlink="http://www.w3.org/1999/xlink" x="0px" y="0px"
	 viewBox="0 0 512 512" style="enable-background:new 0 0 512 512;" xml:space="preserve">
<path style="fill:#0C5177;" d="M255.999,130.002c-33.468,0-60.696-27.228-60.696-60.695s27.228-60.696,60.696-60.696
	s60.696,27.228,60.696,60.696S289.466,130.002,255.999,130.002z M255.999,24.063c-24.947,0-45.243,20.296-45.243,45.243
	s20.296,45.243,45.243,45.243c24.947,0,45.243-20.296,45.243-45.243S280.946,24.063,255.999,24.063z"/>
<path style="fill:#3D6687;" d="M490.353,503.387H21.645c-13.586,0-23.811-12.374-21.251-25.716l63.783-332.439
	c1.956-10.193,10.873-17.562,21.251-17.562h341.143c10.379,0,19.296,7.369,21.251,17.562l63.783,332.439
	C514.164,491.013,503.939,503.387,490.353,503.387z"/>
<path style="fill:#0C5177;" d="M511.605,477.671l-63.783-332.439c-1.956-10.193-10.873-17.561-21.251-17.561h-44.032l72.086,375.717
	h35.728C503.939,503.387,514.164,491.013,511.605,477.671z"/>
<circle style="fill:#FD9727;" cx="255.999" cy="315.529" r="126.74"/>
<path style="fill:#FF6D3A;" d="M255.999,188.792c-9.883,0-19.502,1.133-28.734,3.273c56.153,13.017,98.003,63.352,98.003,123.464
	s-41.85,110.447-98.003,123.464c9.232,2.14,18.851,3.273,28.734,3.273c69.995,0,126.737-56.742,126.737-126.737
	C382.736,245.534,325.994,188.792,255.999,188.792z"/>
<g>
	<path style="fill:#FFFFFF;" d="M190.003,252.953c-4.061,0-8.279,1.562-8.279,5.311V361.67c0,3.593,4.217,5.467,8.279,5.467
		c4.217,0,8.279-1.874,8.279-5.467v-32.646l10.153-12.808l31.865,48.267c1.406,2.187,3.594,3.124,5.936,3.124
		c4.686,0,9.685-4.061,9.685-8.123c0-1.094-0.313-2.031-0.938-2.968l-35.614-54.202l29.991-37.489
		c0.937-1.094,1.249-2.499,1.249-3.28c0-4.217-5.311-8.591-9.528-8.591c-1.874,0-3.593,0.625-4.686,2.343l-38.114,50.453v-47.485
		C198.282,254.515,194.22,252.953,190.003,252.953z"/>
	<path style="fill:#FFFFFF;" d="M297.939,267.636c13.591,0,17.651,7.654,18.589,16.713c0.156,4.061,3.905,5.467,8.279,5.467
		c5.467,0,8.279-1.562,8.279-7.966c0-17.651-14.683-28.897-35.614-28.897c-19.057,0-34.521,9.528-34.521,34.833v45.455
		c0,25.305,15.152,34.833,34.989,34.833c19.682,0,35.146-9.528,35.146-34.833v-20.463c0-2.968-2.03-5.623-5.467-5.623h-26.867
		c-3.437,0-5.311,3.437-5.311,6.56c0,3.437,1.874,6.717,5.311,6.717h15.777v12.809c0,13.745-7.029,20.15-18.589,20.15
		c-11.714,0-18.432-6.404-18.432-20.15v-45.455C279.507,274.04,286.224,267.636,297.939,267.636z"/>
</g>
<g>
</g>
<g>
</g>
<g>
</g>
<g>
</g>
<g>
</g>
<g>
</g>
<g>
</g>
<g>
</g>
<g>
</g>
<g>
</g>
<g>
</g>
<g>
</g>
<g>
</g>
<g>
</g>
<g>
</g>
</svg>
