<svg id="Layer_1" enable-background="new 0 0 512 512" height="512" viewBox="0 0 512 512" width="512" xmlns="http://www.w3.org/2000/svg"><g><path d="m437.018 74.98c-48.353-48.352-112.64-74.98-181.02-74.98-.004 0 .002 0-.002 0-68.374 0-132.666 26.631-181.016 74.98-48.351 48.352-74.98 112.639-74.98 181.02.002 43.529 11.08 86.312 32.092 124.152l-31.538 112.808c-1.458 5.217.01 10.815 3.84 14.645s9.426 5.297 14.646 3.84l112.811-31.539c37.836 21.015 80.617 32.093 124.148 32.094 68.381 0 132.668-26.629 181.021-74.981s74.98-112.64 74.98-181.02c-.002-68.381-26.632-132.667-74.982-181.019zm-181.02 407.02c-40.346-.001-79.949-10.773-114.531-31.151-2.329-1.373-4.961-2.077-7.615-2.077-1.354 0-2.712.183-4.039.554l-93.194 26.054 26.054-93.191c1.099-3.93.549-8.137-1.522-11.653-20.378-34.587-31.149-74.193-31.151-114.537 0-60.367 23.508-117.12 66.194-159.806s99.439-66.193 159.804-66.193c124.614 0 225.998 101.383 226.002 225.999 0 124.617-101.384 226.001-226.002 226.001z"/><path d="m366.507 275.182c-9.169-9.17-21.396-14.22-34.428-14.22s-25.258 5.05-34.425 14.219l-6.954 6.953c-1.715 1.714-4.02 2.659-6.489 2.659-2.471 0-4.776-.945-6.494-2.663l-47.873-47.872c-1.715-1.714-2.659-4.02-2.66-6.491 0-2.471.943-4.775 2.656-6.488l6.956-6.955c18.983-18.983 18.983-49.871.001-68.854l-13.911-13.915c-9.171-9.167-21.397-14.214-34.428-14.214s-25.257 5.048-34.427 14.218l-10.372 10.374c-21.929 21.929-29.889 54.585-22.416 91.955 7.033 35.164 27.136 70.762 56.607 100.236 37.139 37.135 84.439 59.307 126.53 59.31h.008c26.521 0 49.226-8.684 65.655-25.113l10.373-10.373c18.983-18.983 18.983-49.873 0-68.858zm-7.303 61.553-10.373 10.373c-10.682 10.681-26.048 16.326-44.442 16.326-.001 0-.005 0-.005 0-34.312-.002-73.684-18.889-105.319-50.522-25.33-25.332-42.52-55.486-48.403-84.907-5.443-27.217-.396-50.25 14.212-64.859l10.371-10.373c3.503-3.502 8.195-5.431 13.214-5.431 5.021 0 9.715 1.929 13.216 5.429l13.909 13.912c7.286 7.287 7.286 19.142.001 26.428l-6.956 6.955c-7.381 7.38-11.445 17.22-11.444 27.706.001 10.484 4.067 20.323 11.447 27.702l47.873 47.871c7.382 7.384 17.222 11.45 27.707 11.45 10.483 0 20.321-4.065 27.701-11.445l6.955-6.954c3.502-3.503 8.194-5.432 13.212-5.432 5.019 0 9.711 1.929 13.215 5.433l13.909 13.909c7.286 7.285 7.287 19.142 0 26.429z"/></g></svg>