<svg id="Glyph_Icon" height="512" viewBox="0 0 64 64" width="512" xmlns="http://www.w3.org/2000/svg" data-name="Glyph Icon"><path d="m52.593 19.312c1.804-1.804 2.965-4.089 3.358-6.611.202-1.3-.215-2.578-1.146-3.508-.93-.93-2.21-1.346-3.506-1.144-2.521.393-4.807 1.553-6.611 3.357l-5.579 5.579-3.34-.727c.57-.865.475-2.043-.285-2.804-.87-.868-2.283-.869-3.153 0l-1.687 1.687-3.958-.862.276-.276c.869-.869.868-2.284 0-3.152-.839-.842-2.308-.843-3.152 0l-2.3 2.3-8.192-1.784c-.644-.141-1.309.055-1.778.522l-1.649 1.649c-.433.433-.633 1.03-.547 1.637s.443 1.125.98 1.422l19.239 10.628-9.739 10.656-9.891.526-1.532 1.531c-.328.329-.466.798-.369 1.253.098.455.415.825.849.99l9.363 3.576 3.577 9.364c.166.434.536.752.991.849.096.02.193.03.288.03.358 0 .704-.141.965-.401l1.53-1.53.526-9.892 10.656-9.739 10.621 19.232c.296.537.814.894 1.421.98.607.084 1.204-.114 1.637-.547l1.65-1.649c.467-.467.662-1.131.522-1.777l-1.781-8.184 2.303-2.302c.421-.421.653-.981.653-1.577s-.232-1.156-.653-1.577c-.87-.868-2.283-.869-3.153 0l-.277.277-.861-3.958 1.688-1.688c.421-.421.653-.981.653-1.577s-.232-1.156-.652-1.576c-.735-.735-1.948-.828-2.804-.281l-.728-3.345 5.579-5.579z"/></svg>