<svg clip-rule="evenodd" fill-rule="evenodd" height="512" image-rendering="optimizeQuality" shape-rendering="geometricPrecision" text-rendering="geometricPrecision" viewBox="0 0 4335 4335" width="512" xmlns="http://www.w3.org/2000/svg"><g id="Layer_x0020_1"><path d="m1551 239 860-230c134-36 274 44 310 179l52 195c7 27-9 55-36 62l-1250 335c-27 7-55-9-63-36l-52-196c-36-137 51-279 179-309zm886-132-862 231c-77 19-125 100-104 187l38 144 1153-309c-27-100-35-195-110-238-34-19-75-26-115-15z" fill="#596c76" fill-rule="nonzero"/><path d="m952 1370h2659c28 0 51 23 51 51 0 2-1 4-1 7l-174 2610v2c-6 81-40 156-93 209s-125 86-207 86h-1811c-82 0-153-33-206-86-54-54-89-129-94-211l-174-2613c-2-28 19-53 47-54 1 0 2-1 3-1z" fill="#d1d1d1" fill-rule="nonzero"/><path d="m693 1382c0-4-1-7-1-11" fill="none"/><g fill="#596c76" fill-rule="nonzero"><path d="m3617 760-2733 732c-2 1-4 1-6 2-39 9-79 2-112-17s-59-50-71-89c-1-2-1-4-2-6l-84-314c-10-40-4-81 16-115s52-61 93-72l2735-733c41-11 82-4 116 16 34 19 61 52 72 92l84 316c11 41 5 82-15 116s-52 61-93 72z"/><path d="m2282 1677c57 0 109 24 147 62h1c37 38 61 90 61 147v1933c0 58-24 110-62 148-37 38-90 61-147 61-58 0-110-23-148-61-1-1-2-2-3-3-36-38-59-89-59-145v-1933c0-57 24-110 62-147 38-38 90-62 148-62z"/><path d="m3164 1685c2 0 4 0 6 1 56 7 104 36 137 77 33 43 50 97 44 154l-225 1920c-7 57-36 106-78 139s-95 50-151 45c-2-1-4-1-6-1-56-8-104-37-137-78-33-42-50-97-44-154l225-1919c7-57 36-107 78-140s95-50 151-44z"/><path d="m1393 1686c2-1 4-1 6-1 56-6 110 11 151 44s70 81 78 136c0 2 0 4 1 6l224 1917c6 57-11 112-44 154-33 41-81 70-136 78-3 0-5 0-7 1-56 5-109-12-151-45s-71-82-78-139l-224-1920c-7-57 10-111 44-154 32-41 80-70 136-77z"/></g></g></svg>