<svg id="Layer_1" enable-background="new 0 0 512 512" height="512" viewBox="0 0 512 512" width="512" xmlns="http://www.w3.org/2000/svg" xmlns:xlink="http://www.w3.org/1999/xlink"><linearGradient id="SVGID_1_" gradientTransform="matrix(1 0 0 -1 0 512)" gradientUnits="userSpaceOnUse" x1="256" x2="256" y1="512.7" y2="5.76"><stop offset="0" stop-color="#fdae3e"/><stop offset="1" stop-color="#ff0749"/></linearGradient><g id="Layer_2_00000027567577787007567470000008690566077662126733_"><g id="cross"><path d="m359.8 256 140.3-140.3c15.9-15.9 15.9-41.7 0-57.6l-46.1-46.1c-16-16-41.8-16-57.7-.1l-140.3 140.3-140.3-140.3c-15.9-15.9-41.7-15.9-57.6 0l-46.2 46.2c-15.9 15.9-15.9 41.7 0 57.6l140.3 140.3-140.3 140.3c-15.9 15.9-15.9 41.7 0 57.6l46.1 46.1c15.9 15.9 41.7 15.9 57.6 0l140.4-140.2 140.3 140.3c15.9 15.9 41.7 15.9 57.6 0l46.1-46.1c15.9-15.9 15.9-41.7 0-57.6z" fill="url(#SVGID_1_)"/></g></g></svg>