<?xml version="1.0" encoding="utf-8"?>
<!-- Generator: Adobe Illustrator 25.2.1, SVG Export Plug-In . SVG Version: 6.00 Build 0)  -->
<svg version="1.1" id="Capa_1" xmlns="http://www.w3.org/2000/svg" xmlns:xlink="http://www.w3.org/1999/xlink" x="0px" y="0px"
	 viewBox="0 0 512 512" style="enable-background:new 0 0 512 512;" xml:space="preserve">
<style type="text/css">
	.st0{fill:#FFC107;}
	.st1{fill:#455A64;}
	.st2{fill:#FAFAFA;}
</style>
<path class="st0" d="M394.7,256c-76.5-0.1-138.6-62.1-138.7-138.7c0-3.6,0.3-7.1,0.5-10.7H96c-5.9,0-10.7,4.8-10.7,10.7
	c0,0.7,0.1,1.3,0.2,2l32,170.7c0.9,5,5.3,8.7,10.5,8.7h293c26.9,0,49.6-20,52.9-46.7l2.9-23.2C453.1,246.4,424.3,256,394.7,256z"/>
<g>
	<circle class="st1" cx="394.7" cy="458.7" r="53.3"/>
	<circle class="st1" cx="181.3" cy="458.7" r="53.3"/>
	<path class="st1" d="M437.3,384H191.1c-35.6-0.1-66.2-25.2-73.2-60l-52-260H10.7C4.8,64,0,59.2,0,53.3s4.8-10.7,10.7-10.7h64
		c5.1,0,9.4,3.6,10.5,8.5l53.7,268.6c5,24.9,26.9,42.8,52.3,42.9h246.2c5.9,0,10.7,4.8,10.7,10.7S443.2,384,437.3,384z"/>
</g>
<circle class="st1" cx="394.7" cy="117.3" r="117.3"/>
<g>
	<path class="st2" d="M437.3,128H352c-5.9,0-10.7-4.8-10.7-10.7s4.8-10.7,10.7-10.7h85.3c5.9,0,10.7,4.8,10.7,10.7
		S443.2,128,437.3,128z"/>
	<path class="st2" d="M394.7,170.7c-5.9,0-10.7-4.8-10.7-10.7V74.7c0-5.9,4.8-10.7,10.7-10.7s10.7,4.8,10.7,10.7V160
		C405.3,165.9,400.6,170.7,394.7,170.7z"/>
</g>
</svg>
