<svg id="Layer_1" enable-background="new 0 0 468.004 468.004" height="512" viewBox="0 0 468.004 468.004" width="512" xmlns="http://www.w3.org/2000/svg"><g><g><path id="XMLID_6246_" d="m418.002 395.468-199 57.563v-203.831l199-57.562z" fill="#fff"/><path d="m252.728 293.869-6.713-52.473-27.013 7.804v203.831l199-57.563v-27.197l-49.01 9.602c-55.776 10.91-109.066-27.627-116.264-84.004z" fill="#e6e7e8"/><path id="XMLID_6245_" d="m219.002 453.031-150-57.563v-204.018l150 57.75z" fill="#fff"/><path d="m193.015 239.178-2.589 40.975c-3.863 60.978-61.941 103.689-121.32 89.304h-.103v26.012l150 57.563v-203.832z" fill="#e6e7e8"/><path d="m204.002 298.015h30v28.001h-30z" fill="#3e4d6c"/><path id="XMLID_12_" d="m418.17 190.637-166.107-53.427-182.849 53.24 149.813 57.75z" fill="#fff"/></g><g><path d="m304.502 106.879c0-3.787-.315-7.502-.912-11.124l22.599-15.937-22.215-37.746-25.375 11.234c-5.838-4.685-12.457-8.472-19.635-11.141l-2.769-27.164h-44.43l-2.769 27.164c-7.178 2.668-13.796 6.453-19.635 11.138l-25.375-11.233-22.215 37.747 22.599 15.937c-.597 3.622-.912 7.337-.912 11.124s.315 7.502.912 11.124l-22.599 15.937 22.215 37.746 25.375-11.234c5.838 4.685 12.457 8.599 19.635 11.268l2.769 27.291h44.43l2.769-27.291c7.178-2.668 13.796-6.517 19.635-11.202l25.375 11.201 22.215-37.762-22.599-15.945c.597-3.621.912-7.344.912-11.132z" fill="#fff"/><path d="m163.987 42.073-22.215 37.746 22.599 15.937c-.597 3.622-.912 7.336-.912 11.124s.315 7.502.912 11.124l-22.599 15.937 22.215 37.746 25.375-11.234c5.838 4.685 12.457 8.599 19.635 11.268l2.768 27.291h44.43l2.769-27.291c7.178-2.668 13.796-6.517 19.635-11.202l25.375 11.201-1.868-.947c-57.514-28.636-105.491-73.343-138.119-128.692z" fill="#e6e7e8"/><circle cx="233.981" cy="106.728" fill="#0795fe" r="23.205"/></g><path d="m427.111 179.638c-1.353-1.017-92.362-30.61-92.362-30.61l4.405-7.483c3.961-6.729 2.098-15.37-4.285-19.87l-15.431-10.878c.124-2.614.124-5.234 0-7.848l15.432-10.879c6.383-4.5 8.246-13.141 4.285-19.87l-22.224-37.75c-3.865-6.566-12.039-9.191-19.007-6.108l-17.569 7.776c-2.376-1.511-4.827-2.903-7.342-4.173l-1.883-18.467c-.781-7.656-7.23-13.477-14.929-13.477h-44.447c-7.698 0-14.148 5.82-14.929 13.477l-1.883 18.465c-2.515 1.27-4.965 2.664-7.342 4.174l-17.569-7.776c-6.969-3.085-15.142-.458-19.007 6.108l-22.223 37.751c-3.961 6.729-2.098 15.37 4.285 19.87l15.431 10.879c-.124 2.614-.124 5.234 0 7.849l-15.431 10.879c-6.383 4.5-8.246 13.144-4.285 19.872l8.52 14.474s-75.116 21.98-76.674 23.05c-4.077 2.797-6.644 7.424-6.644 12.368v204.018c0 6.209 3.941 11.776 9.737 14.003l149.872 57.563c3.139 1.206 6.832 1.299 10.03.267l198.591-57.422c6.417-1.855 10.771-7.73 10.771-14.411v-203.832c-.002-4.715-2.124-9.156-5.893-11.989-1.353-1.018 3.769 2.833 0 0zm-247.963-64.081c-.945-5.732-.946-11.636 0-17.369.936-5.676-1.456-11.386-6.159-14.701l-11.313-7.976 8.432-14.323 13.16 5.825c5.128 2.271 11.093 1.493 15.466-2.017 4.658-3.736 9.866-6.688 15.48-8.775 5.359-1.992 9.12-6.853 9.7-12.539l1.395-13.679h17.34l1.395 13.679c.58 5.686 4.341 10.547 9.7 12.538 5.614 2.086 10.822 5.039 15.48 8.775 4.374 3.509 10.34 4.287 15.466 2.017l13.16-5.824 8.432 14.323-11.314 7.976c-4.703 3.315-7.095 9.026-6.159 14.702.945 5.732.945 11.637 0 17.369-.936 5.675 1.457 11.387 6.159 14.702l11.314 7.978-8.432 14.327-13.16-5.816c-5.127-2.269-11.092-1.474-15.465 2.033-4.659 3.737-9.868 6.723-15.48 8.809-5.359 1.991-9.12 6.92-9.7 12.607l-1.395 13.813h-17.34l-1.395-13.813c-.58-5.686-4.341-10.681-9.7-12.672-5.613-2.086-10.821-5.039-15.48-8.776-4.373-3.508-10.339-4.284-15.465-2.017l-13.16 5.825-8.432-14.323 11.313-7.976c4.7-3.316 7.092-9.027 6.157-14.702zm223.854 268.622-169 48.861v-81.024h-30v79.171l-120-46.036v-182.387l69.737-20.089c4.295 3.998 10.683 5.227 16.292 2.744l17.57-7.76c2.377 1.511 4.826 2.936 7.342 4.207l1.883 18.534c.781 7.656 7.23 13.611 14.929 13.611h44.448c7.698 0 14.148-5.955 14.929-13.611l1.883-18.599c2.515-1.27 4.965-2.663 7.342-4.174l17.57 7.776c6.967 3.082 15.14.457 19.006-6.109l2.278-3.869 83.793 27.135v181.619z" fill="#3e4d6c"/><g fill="#0795fe"><path id="XMLID_6242_" d="m468.004 254.692-187.439 63.465-62.561-74.37 212.802-61.511z"/><path id="XMLID_6243_" d="m164.827 318.716-164.827-73.896 58.474-63.844 162.53 62.763z"/></g></g></svg>