<svg id="Flat" height="512" viewBox="0 0 512 512" width="512" xmlns="http://www.w3.org/2000/svg"><path d="m272 72a8 8 0 0 1 -8-8v-16a8 8 0 0 0 -16 0v16a8 8 0 0 1 -16 0v-16a24 24 0 0 1 48 0v16a8 8 0 0 1 -8 8z" fill="#4f5659"/><path d="m400 104a8 8 0 0 1 -8-8v-16a8 8 0 0 0 -16 0v16a8 8 0 0 1 -16 0v-16a24 24 0 0 1 48 0v16a8 8 0 0 1 -8 8z" fill="#4f5659"/><path d="m440 168h-112l8-80h96z" fill="#f7b030"/><path d="m408 168h-112l8-80h96z" fill="#ffd33a"/><path d="m368 120a8 8 0 0 1 -8-8v-32a8 8 0 0 0 -16 0v32a8 8 0 0 1 -16 0v-32a24 24 0 0 1 48 0v32a8 8 0 0 1 -8 8z" fill="#4f5659"/><path d="m312 152h-112l8-96h96z" fill="#c7312e"/><path d="m144 152 48 160 256-16 32-144z" fill="#9aa3a8"/><path d="m280 152h-112l8-96h96z" fill="#eb423f"/><path d="m240 88a8 8 0 0 1 -8-8v-32a8 8 0 0 0 -16 0v32a8 8 0 0 1 -16 0v-32a24 24 0 0 1 48 0v32a8 8 0 0 1 -8 8z" fill="#4f5659"/><circle cx="192" cy="440" fill="#4f5659" r="48"/><circle cx="192" cy="440" fill="#e9eef2" r="16"/><circle cx="440" cy="440" fill="#4f5659" r="48"/><circle cx="440" cy="440" fill="#e9eef2" r="16"/><path d="m486.24 146.994a8 8 0 0 0 -6.24-2.994h-320a8 8 0 0 0 0 16h49.509l6.737 32h-48.246a8 8 0 0 0 0 16h51.614l10.106 48h-37.72a8 8 0 0 0 0 16h41.088l6.293 29.89-31.913 2.128a8 8 0 0 0 .524 15.982c.179 0 .36-.006.54-.018l240-16a8 8 0 0 0 7.278-6.247l32-144a8 8 0 0 0 -1.57-6.741zm-23.324 45.006h-39.61l7.111-32h39.61zm-14.23 64.035c-.227-.02-.454-.035-.686-.035h-38.916l10.667-48h39.61zm-96.455 38.332 2.485-22.367h34.422l-4.49 20.206zm-48.858 3.257-2.697-25.624h37.941l-2.568 23.116c-.013.111-.012.22-.02.331zm110.654-137.624-7.111 32h-43.311l3.555-32zm-66.521 32h-55.251l-3.369-32h62.176zm-1.778 16-5.328 48h-41.4l-5.053-48zm10.766 48 5.333-48h41.533l-10.666 48zm-130.635-96h46.941l3.368 32h-43.568zm10.106 48h41.885l5.053 48h-36.833zm13.473 64h35.149l2.81 26.689-31.892 2.126zm151.847 19.1 4.244-19.1h39.609l-3.648 16.416z" fill="#e9eef2"/><path d="m208 360v-48l-68.718-244.332a16 16 0 0 0 -15.403-11.668h-83.879a16 16 0 0 0 -16 16 16 16 0 0 0 16 16h59.931a16 16 0 0 1 15.385 11.6l60.684 212.4v80h296a16 16 0 0 0 16-16 16 16 0 0 0 -16-16z" fill="#dadcde"/><path d="m88 56v32h-48a16 16 0 0 1 0-32z" fill="#eb423f"/></svg>