<svg id="Layer_4" height="512" viewBox="0 0 24 24" width="512" xmlns="http://www.w3.org/2000/svg" xmlns:xlink="http://www.w3.org/1999/xlink" data-name="Layer 4"><linearGradient id="linear-gradient" gradientUnits="userSpaceOnUse" x1="5.293" x2="18.707" y1="5.293" y2="18.707"><stop offset="0" stop-color="#6be8a7"/><stop offset="1" stop-color="#01b59c"/></linearGradient><linearGradient id="linear-gradient-2" gradientUnits="userSpaceOnUse" x1="10.293" x2="13.707" y1="9.293" y2="12.707"><stop offset="0" stop-color="#effff4"/><stop offset="1" stop-color="#d1ffec"/></linearGradient><g id="Gradient"><g id="Quality_Badge" data-name="Quality Badge"><path d="m21.707 11.293-2.707-2.707v-2.586a1 1 0 0 0 -1-1h-2.586l-2.707-2.707a1 1 0 0 0 -1.414 0l-2.707 2.707h-2.586a1 1 0 0 0 -1 1v2.586l-2.707 2.707a1 1 0 0 0 0 1.414l2.707 2.707v2.586a1 1 0 0 0 1 1h2.586l2.707 2.707a1 1 0 0 0 1.414 0l2.707-2.707h2.586a1 1 0 0 0 1-1v-2.586l2.707-2.707a1 1 0 0 0 0-1.414z" fill="url(#linear-gradient)"/><path d="m10.5 15.5a1 1 0 0 1 -.707-.293l-2-2a1 1 0 1 1 1.414-1.414l1.293 1.293 4.293-4.293a1 1 0 0 1 1.414 1.414l-5 5a1 1 0 0 1 -.707.293z" fill="url(#linear-gradient-2)"/></g></g></svg>