<svg id="Capa_1" enable-background="new 0 0 512 512" height="512" viewBox="0 0 512 512" width="512" xmlns="http://www.w3.org/2000/svg" xmlns:xlink="http://www.w3.org/1999/xlink"><linearGradient id="SVGID_1_" gradientUnits="userSpaceOnUse" x1="270.764" x2="409.58" y1="145.966" y2="529.998"><stop offset=".04738747" stop-opacity=".32"/><stop offset=".3522" stop-opacity="0"/></linearGradient><linearGradient id="SVGID_2_" gradientUnits="userSpaceOnUse" x1="259.011" x2="283.279" y1="381" y2="472.135"><stop offset="0" stop-opacity=".4"/><stop offset=".9419" stop-opacity="0"/></linearGradient><path d="m486.5 213.1v85.9c0 2.4-.7 4.7-1.9 6.6-2.2 3.5-6.1 5.9-10.6 5.9h-30.9c-3.9 13.2-9.2 25.9-15.6 37.8l21.9 21.9c4.9 4.9 4.9 12.7 0 17.6l-60.7 60.7c-4.9 4.9-12.7 4.9-17.6 0l-21.9-21.9c-11.9 6.5-24.5 11.7-37.8 15.6v30.9c0 6.9-5.6 12.4-12.4 12.4h-85.9c-6.9 0-12.4-5.6-12.4-12.4v-30.9c-13.2-3.9-25.9-9.2-37.8-15.6l-21.9 21.7c-4.9 4.9-12.7 4.9-17.6 0l-60.7-60.7c-4.9-4.9-4.9-12.7 0-17.6l21.9-21.9c-6.5-11.9-11.7-24.5-15.6-37.8h-31.1c-6.9 0-12.4-5.6-12.4-12.4v-85.9c0-6.9 5.6-12.4 12.4-12.4h30.9c3.9-13.2 9.2-25.9 15.6-37.8l-21.7-21.8c-4.9-4.9-4.9-12.7 0-17.6l60.7-60.7c4.9-4.9 12.7-4.9 17.6 0l21.9 21.9c11.9-6.5 24.5-11.7 37.8-15.6v-31.1c0-6.9 5.6-12.4 12.4-12.4h85.9c6.9 0 12.4 5.6 12.4 12.4v30.9c13.2 3.9 25.9 9.2 37.8 15.6l21.8-21.8c4.9-4.9 12.7-4.9 17.6 0l60.7 60.7c4.9 4.9 4.9 12.7 0 17.6l-21.9 21.9c6.5 11.9 11.7 24.5 15.6 37.8h30.9c7 0 12.6 5.6 12.6 12.5z" fill="#4071d9"/><path d="m484.6 305.5c-2.2 3.5-6.1 5.9-10.6 5.9h-30.9c-3.9 13.2-9.2 25.9-15.6 37.8l21.9 21.9c4.9 4.9 4.9 12.7 0 17.6l-60.7 60.7c-4.9 4.9-12.7 4.9-17.6 0l-21.9-21.9c-11.9 6.5-24.5 11.7-37.8 15.6v30.9c0 6.9-5.6 12.4-12.4 12.4h-17.9l-121.2-215.1 40.7-129.6 146.7 146.7 4.3-115.9z" fill="url(#SVGID_1_)"/><path d="m383 256c0-50.3-29.2-93.7-71.6-114.3v119.7l-55.4 21.6-55.4-21.6v-119.7c-42.4 20.6-71.6 64-71.6 114.3s29.2 93.7 71.6 114.3v99.7c0 6.8 5.5 12.4 12.4 12.4h85.9c4.9 0 9.1-2.8 11.1-6.8.9-1.7 1.4-3.6 1.4-5.6v-99.7c42.4-20.5 71.6-64 71.6-114.3z" fill="#fff"/><path d="m298.9 482.4h-85.9c-6.9 0-12.4-5.6-12.4-12.4v5c0 6.8 5.5 12.4 12.4 12.4h85.9c4.9 0 9.1-2.8 11.1-6.8.9-1.7 1.4-3.6 1.4-5.6v-5c0 2-.5 3.9-1.4 5.6-2 4-6.2 6.8-11.1 6.8z" fill="#d1d1d1"/><path d="m256 383.3c-19.7 0-38.3-4.5-54.9-12.4l108.9 108.7c.9-1.7 1.4-3.6 1.4-5.6v-103.4c-16.7 8.1-35.5 12.7-55.4 12.7z" fill="url(#SVGID_2_)"/></svg>