<?xml version="1.0" encoding="utf-8"?>
<!-- Generator: Adobe Illustrator 25.2.1, SVG Export Plug-In . SVG Version: 6.00 Build 0)  -->
<svg version="1.1" id="Layer_1" xmlns="http://www.w3.org/2000/svg" xmlns:xlink="http://www.w3.org/1999/xlink" x="0px" y="0px"
	 viewBox="0 0 512 512" style="enable-background:new 0 0 512 512;" xml:space="preserve">
<style type="text/css">
	.st0{fill-rule:evenodd;clip-rule:evenodd;fill:#E9C845;}
	.st1{fill-rule:evenodd;clip-rule:evenodd;fill:#E3BA16;}
	.st2{fill-rule:evenodd;clip-rule:evenodd;fill:#EED673;}
	.st3{fill-rule:evenodd;clip-rule:evenodd;fill:#F2F4F5;}
	.st4{fill-rule:evenodd;clip-rule:evenodd;fill:#E4E9EA;}
</style>
<g>
	<g>
		<path class="st0" d="M480,134.8l-151.5,16.1L256,214.4l-45.6,120L256,456.8l224-79.6V134.8z"/>
		<path class="st1" d="M32,134.8l162.4,10.7l61.7,68.9v242.4L32,377.2L32,134.8z"/>
		<path class="st2" d="M32,134.8l224-79.6l224,79.6l-224,79.6L32,134.8z"/>
	</g>
	<g>
		<g>
			<path class="st3" d="M114,105.5l59.9-21.3L397.7,164l-59.6,21.1L114,105.5z"/>
			<path class="st4" d="M114,105.5L144,94.9l220.9,80.7l-26.7,9.5L114,105.5z"/>
		</g>
		<g>
			<path class="st3" d="M395.2,165l-57.1,20.2v85.7l57.1-20.4V165z"/>
			<path class="st4" d="M364.8,175.6l-26.7,9.5v85.7l28.6-10.2L364.8,175.6z"/>
		</g>
	</g>
</g>
</svg>
