<svg id="Layer_1" height="512" viewBox="0 0 512 512" width="512" xmlns="http://www.w3.org/2000/svg" data-name="Layer 1"><g fill-rule="evenodd"><path d="m256 16c-132.336 0-240 107.664-240 240s107.664 240 240 240 240-107.661 240-240-107.664-240-240-240z" fill="#ff5a54"/><path d="m314.443 488.791a238.175 238.175 0 0 0 34.666-11.591l.2-.086q3.93-1.667 7.788-3.468l.108-.05q1.156-.541 2.308-1.1l.675-.326q.8-.386 1.588-.777.956-.471 1.906-.952l.039-.019a241.493 241.493 0 0 0 113.684-121.812 237.994 237.994 0 0 0 11.295-33.81l.037-.149-120.675-138.482.322.371.314.383.307.393.3.407.292.418 1.445 2.155 1.4 2.178 1.359 2.2 1.313 2.221 1.271 2.242 1.225 2.263 1.182 2.282 1.138 2.3 1.093 2.321 1.048 2.338 1 2.358.958 2.373.914 2.39.868 2.407.822 2.422.778 2.437.73 2.451.685 2.466.639 2.479.592 2.491.547 2.5.5 2.516.453 2.527.406 2.539.358 2.547.312 2.558.263 2.568.217 2.576.167 2.584.122 2.591.072 2.6.024 2.605-.152 6-123.846-136.636.586.677.554.7.521.732.486.758.45.781.412.8.374.828.335.846.293.867.252.884.209.9.164.917.119.933.071.947.025.959v94.093l-.025.959-.073.945-.118.934-.164.917-.209.9-.253.885-.292.866-.336.847-.374.827-.413.8-.449.781-.486.757-.521.732-.554.705-.586.677-.619.648-.649.618-.677.588-.7.554-.731.52-.758.486-.781.45-.805.413-.827.374-.846.334-.867.294-.884.252-.9.208-.917.165-.933.119-.947.071-.958.025-.958-.025-.947-.071-.933-.119-.919-.165-.9-.208-.886-.252-.866-.294-.847-.334-.827-.374-.8-.413-.782-.45-.757-.486-.733-.52-.7-.554-.678-.588-.648-.618 109.382 109.238-2.175 2.074-180.795-179.925.381.38.55.572.518.591.489.608.459.622.428.637.4.65.367.664.336.674.305.685.274.695.244.7.212.711.18.718.15.725.119.729.086.732.055.737.023.738-.008.739-.04.741-.072.738-.1.737-.137.735-.168.731-.2.727-.233.72-.267.715-.3.707-.331.7-.365.69-.4.679-.43.669-1.047 1.585-1.016 1.6-.985 1.618-.953 1.633-.922 1.649-.889 1.662-.857 1.677-.825 1.69-.792 1.706-.761 1.716-.728 1.731-.695 1.744-.662 1.754-.629 1.765-.6 1.778-.564 1.788-.531 1.8-.5 1.809-.463 1.817-.43 1.828-.4 1.836-.362 1.845-.329 1.852-.294 1.861-.259 1.866-.227 1.876-.191 1.88-.156 1.886-.122 1.894-.089 1.9-.052 1.9-.017 1.907.133 5.235.394 5.167.649 5.092.9 5.012 1.138 4.925 1.375 4.832 1.605 4.73 1.827 4.624 2.042 4.513 2.253 4.391 2.456 4.267 2.652 4.134 2.843 4 3.028 3.849 3.2 3.7 3.376 3.54 3.539 3.375 68.775 62.112-.307.008-7.065-.18-6.973-.532-6.872-.876-6.765-1.211-6.646-1.538-6.52-1.857-6.386-2.164-6.241-2.465-6.089-2.758-5.927-3.04-5.758-3.315-5.58-3.581-5.392-3.837-5.2-4.085-4.991-4.326z" fill="#db3a3c"/><path d="m256 393.132c-75.813 0-137.5-61.685-137.5-137.5a136.8 136.8 0 0 1 23.482-76.869 16.814 16.814 0 0 1 12.866-7.639 18.549 18.549 0 0 1 1.9-.095 16.7 16.7 0 0 1 12.185 5.15l.381.379a17.366 17.366 0 0 1 2.144 22.219 101.874 101.874 0 1 0 168.782-.474 17.348 17.348 0 0 1 2.091-22.3l.374-.373a17.539 17.539 0 0 1 26.895 2.507 136.694 136.694 0 0 1 23.9 77.491c0 75.815-61.685 137.5-137.5 137.5zm-18.965-255.6v94.093a18.662 18.662 0 0 0 37.323 0v-94.093a18.66 18.66 0 1 0 -37.32 0z" fill="#fff"/></g></svg>