<svg id="Layer_1" height="512" viewBox="0 0 512 512" width="512" xmlns="http://www.w3.org/2000/svg" data-name="Layer 1"><path d="m390.855 484.12h-365.255l4.1-59.471c13.564-86.715 86.108-98.415 146.3-116.857l32.183 22.9 32.257-22.9c56.12 17.194 132.471 28.554 146.3 116.857z" fill="#edebf2"/><path d="m208.362 269.514h-33.498l1.141 38.303 32.218 22.893 32.497-22.893 1.141-38.303z" fill="#f6ccaf"/><path d="m241.887 269.488-1.151 38.3-32.545 22.9-12.24-8.711 4.937-3.475a62.228 62.228 0 0 0 26.384-49.014z" fill="#f3ba93"/><path d="m290.424 322.591v.021l-32.389 43.481-49.812-35.383 32.217-22.893c12.476 3.759 43.244 13.029 49.984 14.774z" fill="#c6c3d8"/><path d="m390.855 484.12h-365.255l4.1-59.471c13.564-86.715 86.108-98.415 146.3-116.857l32.183 22.9 32.257-22.9c56.12 17.194 132.471 28.554 146.3 116.857z" fill="#edebf2"/><path d="m290.424 322.591v.021l-32.389 43.481-49.812-35.383 32.217-22.893c12.476 3.759 43.244 13.029 49.984 14.774z" fill="#c6c3d8"/><path d="m390.855 484.12h-22.1l-3.6-52.271c-13.177-84.126-81.962-97.3-137.664-114.265a1.687 1.687 0 0 1 -.575-.143v-.073l13.536-9.576c57.083 17.848 132.51 28.5 146.3 116.857z" fill="#dcd8e6"/><path d="m290.416 322.624-8.857 11.88c-13.646-5.551-13-4.408-54.072-16.92a1.687 1.687 0 0 1 -.575-.143v-.073l13.536-9.576c27.077 8.466 49.214 14.582 49.968 14.832z" fill="#b4b0cc"/><path d="m227.487 317.584a1.687 1.687 0 0 1 -.575-.143v-.073c.215.073.36.145.575.216z" fill="#dcd8e6"/><path d="m208.223 330.71c-12.426 8.815-37.422 26.563-49.834 35.383l-32.368-43.5c6.719-1.745 37.507-11.016 49.984-14.774z" fill="#c6c3d8"/><path d="m176.587 484.13 19.296-118.037-12.663-17.638 25.003-17.745 24.981 17.745-12.663 17.638 19.296 118.037z" fill="#db5669"/><path d="m141.677 225.357c-50.485-6.514-42.06-42.248-31.765-66.782a78.328 78.328 0 0 0 28.147 18.5z" fill="#f6ccaf"/><path d="m306.194 157.731-1.333 1.333" fill="none" stroke="#231f20" stroke-linecap="round" stroke-linejoin="round" stroke-width="10"/><path d="m306.145 157.692c-3.63 2.374-24.339 15.971-27.479 17.961-10.854 5.47-26.295-23.991-27.372-24.853-41.069 22.548-94.391-10.294-94.391-10.294l-18.844 36.568a78.328 78.328 0 0 1 -28.147-18.5c-21.562-66.127 38.419-128.346 107.766-118.164 25.282 2.841 50.586 15.116 61.2 49.057 17.358-1.017 40.188 8.452 27.267 68.225z" fill="#374f68"/><path d="m278.666 175.653c0 .112-3.459 45.112-3.726 49.7-1.847 32.1-26.41 59.458-65.576 61.635-36.351.632-65.046-27.788-67.687-61.635l-3.618-48.283 18.841-36.564s53.322 32.842 94.391 10.294c1.08.862 16.521 30.323 27.375 24.853z" fill="#ffdec7"/><path d="m278.68 175.672c0 .073-3.457 45.073-3.744 49.68-1.873 32.112-26.424 59.472-65.592 61.632a66.079 66.079 0 0 1 -37.8-11.016 65.97 65.97 0 0 0 23.4 3.816c39.168-2.16 63.719-29.52 65.592-61.632.287-4.32 3.312-44.135 3.672-49.175 4.679 5.255 9.936 9 14.472 6.695z" fill="#ffcca8"/><path d="m264.28 168.472a2.314 2.314 0 0 1 -.072.5c-.145-.145-.289-.217-.36-.36a1.016 1.016 0 0 0 .432-.14z" fill="#ffdec7"/><path d="m306.112 157.672c-3.6 2.377-24.336 15.984-27.432 18-4.464 2.232-9.721-1.44-14.4-6.623a2.443 2.443 0 0 1 -.432-.432 1.016 1.016 0 0 0 .432-.145c3.1-2.016 23.832-15.623 27.432-18 7.415-34.272 3.1-51.984-5.257-60.7 15.481 2.38 30.817 16.564 19.657 67.9z" fill="#2c4054"/><path d="m264.28 168.472v.577a2.443 2.443 0 0 1 -.432-.432 1.016 1.016 0 0 0 .432-.145z" fill="#ffdec7"/><path d="m308.773 209.27c-5.573 7.99-15.873 14.13-33.833 16.087.108-1.852.323-4.695.539-8.205.237-1.744.344-3.726.452-5.707 0-.323.108-.646.108-.969.167-3.668.551-7.408.861-11.177.129-2.089.237-4.049.453-6.03a3 3 0 0 1 .107-.969 21.213 21.213 0 0 1 .215-2.628c.082-3.949.908-11.1.991-14.019 3.028-1.916 23.972-15.668 27.479-17.961 0 .021.022.043.022.064a95.723 95.723 0 0 1 4.242 10.23v.108c4.071 12.038 7.021 28.793-1.636 41.176z" fill="#f3ba93"/><path d="m486.4 132.84c.379 92.141-111.972 139.436-177.627 76.43 8.657-12.383 5.707-29.138 1.636-41.176v-.108a95.723 95.723 0 0 0 -4.242-10.23c0-.021-.022-.043-.022-.064 12.814-56.941-9.3-66.8-20.911-68.225 47.045-101.887 199.623-70.425 201.166 43.373z" fill="#fc6"/><path d="m415.9 147.843a25.84 25.84 0 0 0 -25.811-25.811h-18.268c-4.112-.111-4.55-3.974-4.278-7.242a4.329 4.329 0 0 1 4.467-4.279l30.728-.537c14.024-.461 13.84-21.317-.185-21.534-.13-.066-10.4.229-10.562.184v-16a10.768 10.768 0 1 0 -21.535 0v16.422c-33.41 2.213-32.3 54.036 1.365 54.522h18.267a4.276 4.276 0 1 1 0 8.552h-32.064c-14.145.23-14.156 21.3 0 21.536h12.431v14.944a10.768 10.768 0 1 0 21.535 0v-15.041a25.828 25.828 0 0 0 23.91-25.716z" fill="#edebf2"/><path d="m402.663 110.009-7.919.143c13.464-.575 14.543-20.232 1.8-21.6 2.807-.071 5.832-.143 5.9-.143 14.043.215 14.188 21.091.219 21.6z" fill="#dcd8e6"/><path d="m415.768 147.809a25.85 25.85 0 0 1 -23.9 25.775v15.048a10.754 10.754 0 0 1 -10.727 10.728 9.974 9.974 0 0 1 -3.6-.647 10.68 10.68 0 0 0 7.127-10.081v-15.048a25.811 25.811 0 0 0 -1.872-51.552h7.2a25.8 25.8 0 0 1 25.772 25.777z" fill="#dcd8e6"/><path d="m396.544 88.552c-2.376.072-4.608.072-4.681.072v-.143c1.873 0 3.313-.072 3.385-.072a8.043 8.043 0 0 1 1.296.143z" fill="#edebf2"/><path d="m486.4 132.832c.359 90.145-107.137 137.377-173.3 80.352 65.521 32.472 151.992-13.9 151.7-94.752-.432-34.2-14.545-60.912-35.352-78.768 32.039 15.985 56.375 48.168 56.952 93.168z" fill="#ffc247"/><g fill="#dad7e5"><path d="m113.013 418.425v65.7h-21.535v-65.7c.241-14.149 21.293-14.154 21.535 0z"/><path d="m321.07 418.425v65.7h-21.536v-65.7c.242-14.149 21.294-14.154 21.536 0z"/></g></svg>