<svg id="Layer_1" enable-background="new 0 0 512 512" height="512" viewBox="0 0 512 512" width="512" xmlns="http://www.w3.org/2000/svg"><g clip-rule="evenodd" fill-rule="evenodd"><path d="m25.686 112.666-19.688-24.978 54.623-81.69h334.637l54.623 81.69-19.561 24.978z" fill="#fb9e20"/><path d="m5.998 87.688h444.006v330.205h-444.006z" fill="#febf10"/><path d="m184.141 187.34h87.721c13.533 0 24.604 11.072 24.604 24.605 0 13.533-11.07 24.605-24.604 24.605h-87.721c-13.531 0-24.604-11.072-24.604-24.605 0-13.533 11.072-24.605 24.604-24.605z" fill="#fb9e20"/><path d="m208.867 112.666h38.143l13.779-24.978-8.121-81.69h-49.455l-7.998 81.69z" fill="#ca200a"/><path d="m195.215 417.893h65.574v-62.004l-16.363 13.041-16.363-13.041-16.487 13.041-16.361-13.041z" fill="#f2501b"/><path d="m195.215 87.688h65.574v62.007l-16.363-13.043-16.363 13.043-16.487-13.043-16.361 13.043z" fill="#f2501b"/><path d="m414.203 434.627 40.6-30.512 46.131 61.268c8.369 11.197 6.154 27.193-5.039 35.555-11.197 8.365-27.191 6.15-35.557-5.049z" fill="#0d92ba"/><path d="m269.152 199.523c61.27-46.014 148.125-33.715 194.26 27.555 46.014 61.143 33.709 148.125-27.432 194.137-61.27 46.137-148.25 33.832-194.264-27.432-46.013-61.265-33.831-148.129 27.436-194.26z" fill="#29b2db"/><path d="m287.979 224.496c47.365-35.682 114.785-26.084 150.461 21.281 35.678 47.49 26.082 114.783-21.281 150.465-47.494 35.676-114.785 26.201-150.467-21.283-35.676-47.365-26.206-114.785 21.287-150.463z" fill="#bbecff"/><path d="m275.553 296.098c-.863 4.553-5.168 7.504-9.721 6.764-4.551-.859-7.506-5.168-6.645-9.717 2.094-11.689 6.4-22.764 12.549-32.725 6.152-9.967 14.148-18.701 23.744-25.838 3.691-2.828 8.859-2.09 11.568 1.602 2.828 3.689 2.088 8.859-1.604 11.563-7.871 5.908-14.518 13.164-19.561 21.408-5.041 8.122-8.612 17.349-10.33 26.943z" fill="#56c5e6"/></g></svg>