<?xml version="1.0" encoding="iso-8859-1"?>
<!-- Generator: Adobe Illustrator 19.0.0, SVG Export Plug-In . SVG Version: 6.00 Build 0)  -->
<svg version="1.1" id="Layer_1" xmlns="http://www.w3.org/2000/svg" xmlns:xlink="http://www.w3.org/1999/xlink" x="0px" y="0px"
	 viewBox="0 0 512 512" style="enable-background:new 0 0 512 512;" xml:space="preserve">
<g>
	<g>
		<path d="M256,0C114.837,0,0,114.837,0,256s114.837,256,256,256s256-114.837,256-256S397.163,0,256,0z M249.749,377.749
			c-4.16,4.16-9.621,6.251-15.083,6.251c-5.461,0-10.923-2.091-15.083-6.251L112.917,271.083c-8.341-8.341-8.341-21.824,0-30.165
			l106.667-106.667c8.341-8.341,21.824-8.341,30.165,0s8.341,21.824,0,30.165L158.165,256l91.584,91.584
			C258.091,355.925,258.091,369.408,249.749,377.749z M377.749,347.584c8.341,8.341,8.341,21.824,0,30.165
			c-4.16,4.16-9.621,6.251-15.083,6.251c-5.462,0-10.923-2.091-15.083-6.251L240.917,271.083c-8.341-8.341-8.341-21.824,0-30.165
			l106.667-106.667c8.341-8.341,21.824-8.341,30.165,0s8.341,21.824,0,30.165L286.165,256L377.749,347.584z"/>
	</g>
</g>
<g>
</g>
<g>
</g>
<g>
</g>
<g>
</g>
<g>
</g>
<g>
</g>
<g>
</g>
<g>
</g>
<g>
</g>
<g>
</g>
<g>
</g>
<g>
</g>
<g>
</g>
<g>
</g>
<g>
</g>
</svg>
