<svg enable-background="new 0 0 512 512" height="512" viewBox="0 0 512 512" width="512" xmlns="http://www.w3.org/2000/svg"><g id="_x31_38_x2C__building_x2C__office_x2C__house"><g><path d="m226 96h20v20h-20z"/><path d="m266 96h20v20h-20z"/><path d="m306 96h20v20h-20z"/><path d="m346 96h20v20h-20z"/><path d="m386 96h20v20h-20z"/><path d="m226 136h20v20h-20z"/><path d="m266 136h20v20h-20z"/><path d="m306 136h20v20h-20z"/><path d="m346 136h20v20h-20z"/><path d="m386 136h20v20h-20z"/><path d="m226 176h20v20h-20z"/><path d="m266 176h20v20h-20z"/><path d="m306 176h20v20h-20z"/><path d="m346 176h20v20h-20z"/><path d="m386 176h20v20h-20z"/><path d="m226 216h20v20h-20z"/><path d="m266 216h20v20h-20z"/><path d="m306 216h20v20h-20z"/><path d="m346 216h20v20h-20z"/><path d="m386 216h20v20h-20z"/><path d="m226 256h20v20h-20z"/><path d="m266 256h20v20h-20z"/><path d="m306 256h20v20h-20z"/><path d="m346 256h20v20h-20z"/><path d="m386 256h20v20h-20z"/><path d="m226 296h20v20h-20z"/><path d="m266 296h20v20h-20z"/><path d="m306 296h20v20h-20z"/><path d="m346 296h20v20h-20z"/><path d="m386 296h20v20h-20z"/><path d="m226 336h20v20h-20z"/><path d="m266 336h20v20h-20z"/><path d="m306 336h20v20h-20z"/><path d="m346 336h20v20h-20z"/><path d="m386 336h20v20h-20z"/><path d="m486 476h-30v-410c0-5.523-4.478-10-10-10h-30v-30c0-5.523-4.478-10-10-10h-180c-5.523 0-10 4.477-10 10v30h-30c-5.523 0-10 4.477-10 10v90h-110c-5.523 0-10 4.477-10 10v310h-30c-5.523 0-10 4.478-10 10s4.477 10 10 10h460c5.522 0 10-4.478 10-10s-4.478-10-10-10zm-250-440h160v20h-160zm-160 140h100v300h-20v-270c0-5.523-4.477-10-10-10s-10 4.477-10 10v270h-20v-270c0-5.523-4.477-10-10-10s-10 4.477-10 10v270h-20zm210 300v-80h60v80zm80 0v-90c0-5.522-4.478-10-10-10h-80c-5.522 0-10 4.478-10 10v90h-70c0-10.735 0-389.256 0-400h240v400z"/></g></g></svg>