<svg id="Capa_1" enable-background="new 0 0 510 510" height="512" viewBox="0 0 510 510" width="512" xmlns="http://www.w3.org/2000/svg" xmlns:xlink="http://www.w3.org/1999/xlink"><linearGradient id="lg1"><stop offset="0" stop-color="#60b7ff"/><stop offset="1" stop-color="#0268b4"/></linearGradient><linearGradient id="SVGID_1_" gradientUnits="userSpaceOnUse" x1="171.264" x2="522.776" xlink:href="#lg1" y1="30.821" y2="382.334"/><linearGradient id="lg2"><stop offset="0" stop-color="#024c67" stop-opacity="0"/><stop offset="1" stop-color="#024c67"/></linearGradient><linearGradient id="SVGID_2_" gradientUnits="userSpaceOnUse" x1="218.496" x2="178.37" xlink:href="#lg2" y1="294.561" y2="350.955"/><linearGradient id="SVGID_3_" gradientUnits="userSpaceOnUse" x1="378.483" x2="260.258" xlink:href="#lg1" y1="331.66" y2="144.931"/><linearGradient id="SVGID_4_" gradientUnits="userSpaceOnUse" x1="152.206" x2="186.206" y1="348.237" y2="386.237"><stop offset="0" stop-color="#d8ecfe"/><stop offset="1" stop-color="#9acfe5"/></linearGradient><linearGradient id="SVGID_5_" gradientUnits="userSpaceOnUse" x1="186.872" x2="208.774" xlink:href="#lg2" y1="346.917" y2="313.176"/><g><path d="m493.47 45.824-482.995 111.149c-11.286 2.597-14.271 17.271-4.897 24.071l387.216 280.905c7.762 5.631 18.755 1.596 21.031-7.72l95.778-392.054c2.384-9.756-6.346-18.603-16.133-16.351z" fill="url(#SVGID_1_)"/><path d="m162.854 121.907-152.379 35.066c-11.286 2.597-14.271 17.271-4.897 24.071l387.216 280.905c7.762 5.631 18.755 1.596 21.031-7.72l31.443-128.709z" fill="url(#SVGID_2_)"/><path d="m125.472 268.034v135.852c0 5.333 3.535 9.206 7.862 10.483 3.565 1.052 6.938-1.012 10.044-4.118l65.19-77.432-23.991-21.922 316.825-256.586c2.031-2.031-.487-5.297-2.968-3.85z" fill="url(#SVGID_3_)"/><path d="m133.336 414.362c3.565 1.052 7.666.349 10.772-2.757l75.382-75.382-34.913-25.326z" fill="url(#SVGID_4_)"/><path d="m160.237 360.044 20.535 14.897 38.718-38.718-34.913-25.326z" fill="url(#SVGID_5_)"/></g></svg>