<svg id="Layer_1" enable-background="new 0 0 512 512" height="512" viewBox="0 0 512 512" width="512" xmlns="http://www.w3.org/2000/svg"><path d="m239.634 198.595c44.884 0 81.4-36.516 81.4-81.4s-36.516-81.4-81.4-81.4-81.4 36.516-81.4 81.4 36.516 81.4 81.4 81.4zm0-142.801c33.856 0 61.4 27.544 61.4 61.4s-27.544 61.4-61.4 61.4-61.4-27.544-61.4-61.4 27.544-61.4 61.4-61.4zm236.42 11.647h-130.327c-18.746-39.813-59.25-67.441-106.093-67.441-46.842 0-87.347 27.628-106.093 67.441h-88.22c-24.99 0-45.321 20.331-45.321 45.321v282.423c0 24.99 20.331 45.32 45.321 45.32h140.435c1.711 15.303.648 33.611-2.956 51.495h-56.338c-5.523 0-10 4.477-10 10s4.477 10 10 10h259.082c5.523 0 10-4.477 10-10s-4.477-10-10-10h-56.891c-3.926-18.051-5.192-36.366-3.52-51.495h141.547c24.99 0 45.321-20.331 45.321-45.32v-291.792c-.001-19.824-16.126-35.952-35.947-35.952zm-236.42-47.441c53.593 0 97.195 43.601 97.195 97.194 0 53.594-43.602 97.195-97.195 97.195s-97.194-43.602-97.194-97.195 43.601-97.194 97.194-97.194zm99.404 212.785 16.188-16.187c.941-.941 2.064-1.081 2.65-1.081s1.709.141 2.65 1.082l74.386 74.386c1.437 1.437 1.437 3.864 0 5.3l-16.187 16.187c-1.437 1.436-3.865 1.437-5.301 0l-74.386-74.386c-.941-.941-1.082-2.064-1.082-2.65s.142-1.71 1.082-2.651zm-9.569-18.715-10.603-10.603c2.445-2.247 4.794-4.597 7.042-7.042l10.603 10.603zm-284.148-126.629h80.95c-2.497 9.505-3.831 19.476-3.831 29.753 0 64.622 52.573 117.195 117.194 117.195 23.29 0 45.014-6.831 63.277-18.592l15.427 15.426c-1.323 7.396.854 15.301 6.558 21.004l74.386 74.386c4.63 4.63 10.71 6.944 16.792 6.944 6.081 0 12.164-2.315 16.793-6.944l16.187-16.188c9.259-9.26 9.259-24.326 0-33.585l-74.386-74.386c-4.475-4.475-10.439-6.939-16.793-6.939-1.43 0-2.838.131-4.216.376l-15.422-15.422c11.761-18.263 18.591-39.987 18.591-63.277 0-10.277-1.335-20.248-3.831-29.753h123.056c8.792 0 15.946 7.156 15.946 15.951v246.855h-471.999v-237.483c0-13.962 11.359-25.321 25.321-25.321zm262.916 404.559h-105.082c3.226-17.77 4.197-35.842 2.713-51.495h99.157c-1.436 15.525-.289 33.595 3.212 51.495zm158.442-71.495h-421.358c-13.962 0-25.321-11.359-25.321-25.32v-24.937h472v24.937c0 13.961-11.359 25.32-25.321 25.32z"/></svg>