<svg xmlns="http://www.w3.org/2000/svg" xmlns:xlink="http://www.w3.org/1999/xlink" viewBox="0 0 480.01 199.88"><defs><style>.cls-1{isolation:isolate;}.cls-2,.cls-3{opacity:0.1;mix-blend-mode:darken;}.cls-2{fill:url(#Degradado_sin_nombre_20);}.cls-4{fill:url(#Degradado_sin_nombre_20-2);}.cls-5,.cls-9{font-size:87.9px;font-family:Arial-BoldMT, Arial;font-weight:700;}.cls-5{fill:#393837;}.cls-6{font-size:78.75px;font-family:ArialMT, Arial;font-weight:400;}.cls-7{letter-spacing:-0.02em;}.cls-8{fill:url(#linear-gradient);}.cls-9{fill:#3c3c3b;}</style><linearGradient id="Degradado_sin_nombre_20" x1="7.43" y1="100.36" x2="201.91" y2="100.36" gradientUnits="userSpaceOnUse"><stop offset="0" stop-color="#fff"/><stop offset="0" stop-color="#fdfdfd"/><stop offset="0" stop-color="#f6f6f6"/><stop offset="0" stop-color="#ebebeb"/><stop offset="0" stop-color="#dadada"/><stop offset="0" stop-color="#c4c4c4"/><stop offset="0" stop-color="#a8a8a8"/><stop offset="0" stop-color="#888"/><stop offset="0" stop-color="#626262"/><stop offset="0" stop-color="#373737"/><stop offset="0" stop-color="#090909"/><stop offset="0"/></linearGradient><linearGradient id="Degradado_sin_nombre_20-2" x1="214.51" y1="111.85" x2="524.48" y2="111.85" xlink:href="#Degradado_sin_nombre_20"/><linearGradient id="linear-gradient" x1="101.86" y1="193.55" x2="92.67" y2="2.06" gradientUnits="userSpaceOnUse"><stop offset="0" stop-color="#3c7d84"/><stop offset="0.06" stop-color="#3b878d"/><stop offset="0.25" stop-color="#399da2"/><stop offset="0.44" stop-color="#37acb1"/><stop offset="0.67" stop-color="#36b5b9"/><stop offset="1" stop-color="#36b8bc"/></linearGradient></defs><g class="cls-1"><g id="Layer_2" data-name="Layer 2"><g id="contenedor"><path class="cls-2" d="M104.67,3.12a97.24,97.24,0,1,0,97.24,97.24A97.23,97.23,0,0,0,104.67,3.12Zm17.72,176.8-8.24-5.11V124.36h12.36v19h14.42V110.21H71.84V143.3H87.4V124.57H98.75v50.26l-8.24,5.71A81.79,81.79,0,0,1,90,19.66l9.26,5.82-.42,49.84H87.07l-.15-19.27-15.22.13V89.89h69V56.16H126.28l.21,19.53H114.12l-.2-50,9.83-5.19a81.77,81.77,0,0,1-1.42,159.47Z"/><g class="cls-3"><path class="cls-4" d="M235.07,99.23V47H216.4V36.31h50V47H247.78V99.23Z"/><path class="cls-4" d="M274.6,99.23V36.31h46.66V47H287.31V60.9H318.9V71.5H287.31V88.63h35.15v10.6Z"/><path class="cls-4" d="M373.49,76.1,385.81,80Q383,90.31,376.39,95.3t-16.72,5q-12.53,0-20.6-8.56T331,68.33q0-15.72,8.11-24.4t21.33-8.69q11.55,0,18.76,6.82,4.29,4,6.44,11.59l-12.58,3A13,13,0,0,0,359.8,46.1a14.29,14.29,0,0,0-11.35,5q-4.36,5-4.36,16.26,0,11.94,4.29,17a13.92,13.92,0,0,0,11.16,5.06,12.73,12.73,0,0,0,8.71-3.21Q371.91,83,373.49,76.1Z"/><path class="cls-4" d="M396.84,99.23V36.31H409.2l25.75,42v-42h11.81V99.23H434l-25.37-41v41Z"/><path class="cls-4" d="M459.8,99.23V36.31h12.71V99.23Z"/><path class="cls-4" d="M234.93,174.31V124.6H216.36V118H261v6.65H242.39v49.71Z"/><path class="cls-4" d="M265,146.86q0-14,7.53-22T292,117a27,27,0,0,1,14.07,3.73,24.3,24.3,0,0,1,9.56,10.4,33.78,33.78,0,0,1,3.28,15.13,33.18,33.18,0,0,1-3.46,15.34,23.59,23.59,0,0,1-9.8,10.25A28,28,0,0,1,292,175.27a26.69,26.69,0,0,1-14.23-3.84,24.72,24.72,0,0,1-9.49-10.5A31.69,31.69,0,0,1,265,146.86Zm7.69.12q0,10.19,5.48,16.05a19.11,19.11,0,0,0,27.6-.06q5.44-5.92,5.44-16.8a28.9,28.9,0,0,0-2.32-12,17.9,17.9,0,0,0-6.81-8A18.47,18.47,0,0,0,292,123.37a19,19,0,0,0-13.63,5.44Q272.68,134.26,272.69,147Z"/><path class="cls-4" d="M326.25,146.86q0-14,7.53-22T353.24,117a27,27,0,0,1,14.07,3.73,24.3,24.3,0,0,1,9.56,10.4,33.78,33.78,0,0,1,3.28,15.13,33.18,33.18,0,0,1-3.46,15.34,23.59,23.59,0,0,1-9.8,10.25,28,28,0,0,1-13.69,3.47A26.65,26.65,0,0,1,339,171.43a24.68,24.68,0,0,1-9.5-10.5A31.69,31.69,0,0,1,326.25,146.86Zm7.69.12q0,10.19,5.48,16.05A19.11,19.11,0,0,0,367,163q5.44-5.92,5.44-16.8a28.9,28.9,0,0,0-2.32-12,17.9,17.9,0,0,0-6.81-8,18.47,18.47,0,0,0-10.05-2.82,19,19,0,0,0-13.63,5.44Q333.93,134.26,333.94,147Z"/><path class="cls-4" d="M389.46,174.31V118h7.46v49.71h27.76v6.65Z"/><path class="cls-4" d="M431,156.2l7-.61a15.48,15.48,0,0,0,2.33,6.94,12.56,12.56,0,0,0,5.67,4.38,21.36,21.36,0,0,0,8.65,1.67,20.91,20.91,0,0,0,7.54-1.26,10.58,10.58,0,0,0,4.86-3.48A8.12,8.12,0,0,0,468.7,159a7.35,7.35,0,0,0-1.53-4.63,11.46,11.46,0,0,0-5.08-3.33,101.14,101.14,0,0,0-10-2.75q-7.77-1.86-10.89-3.52a15.22,15.22,0,0,1-6-5.24,12.87,12.87,0,0,1-2-7,14.27,14.27,0,0,1,2.42-8,15,15,0,0,1,7.07-5.63A26.88,26.88,0,0,1,453,117a28.36,28.36,0,0,1,11.05,2,16,16,0,0,1,7.37,5.94,17.17,17.17,0,0,1,2.76,8.89l-7.15.53q-.57-5.34-3.9-8.07t-9.83-2.73q-6.76,0-9.86,2.48a7.44,7.44,0,0,0-3.09,6,6.43,6.43,0,0,0,2.19,5q2.15,1.95,11.25,4a74.66,74.66,0,0,1,12.47,3.59,17.07,17.07,0,0,1,7.27,5.75,14,14,0,0,1,2.35,8,15.28,15.28,0,0,1-2.58,8.47,16.94,16.94,0,0,1-7.4,6.19,25.71,25.71,0,0,1-10.86,2.21,32.58,32.58,0,0,1-12.83-2.22,18,18,0,0,1-8.11-6.71A19.14,19.14,0,0,1,431,156.2Z"/><text class="cls-5" transform="translate(214.51 99.23)">TECNI<tspan class="cls-6"><tspan class="cls-7" x="0" y="75.08">T</tspan><tspan x="46.68" y="75.08">OOLS</tspan></tspan></text></g><path class="cls-8" d="M97.24,0a97.24,97.24,0,1,0,97.24,97.24A97.25,97.25,0,0,0,97.24,0ZM115,176.8l-8.24-5.11V121.25h12.36v19h14.43V107.09H64.41v33.09H80V121.45H91.33v50.26l-8.25,5.71a81.79,81.79,0,0,1-.53-160.87l9.25,5.81L91.39,72.2H79.64L79.5,52.94l-15.23.12V86.77h69V53H118.86l.2,19.53H106.7l-.21-50,9.83-5.19A81.77,81.77,0,0,1,114.9,176.8Z"/><text class="cls-9" transform="translate(207.32 97.24)">TECNI<tspan class="cls-6"><tspan class="cls-7" x="0" y="75.08">T</tspan><tspan x="46.68" y="75.08">OOLS</tspan></tspan></text></g></g></g></svg>