<svg height="512" viewBox="0 0 32 32" width="512" xmlns="http://www.w3.org/2000/svg"><g id="_x31_4"><path d="m27.293 20.293-3.293 3.293-1.293-1.293c-.391-.391-1.023-.391-1.414 0s-.391 1.023 0 1.414l2 2c.195.195.451.293.707.293s.512-.098.707-.293l4-4c.391-.391.391-1.023 0-1.414s-1.023-.391-1.414 0z"/><path d="m29 23c-.553 0-1 .447-1 1 0 2.206-1.794 4-4 4s-4-1.794-4-4 1.794-4 4-4c.553 0 1-.447 1-1s-.447-1-1-1c-3.309 0-6 2.691-6 6 0 .768.15 1.5.414 2.175l-2.414 1.207v-13.715l10-4.167v8.5c0 .553.447 1 1 1s1-.447 1-1v-10c0-.122-.029-.238-.07-.348-.013-.035-.03-.065-.047-.098-.037-.074-.083-.141-.137-.204-.024-.027-.045-.055-.072-.08-.077-.072-.164-.133-.263-.177-.009-.004-.016-.011-.025-.015 0 0-.001 0-.001-.001l-12-5c-.246-.104-.523-.104-.77 0l-12 5s-.001 0-.001.001c-.009.004-.015.011-.024.015-.1.045-.187.106-.264.177-.027.025-.048.053-.072.08-.054.063-.1.13-.137.204-.017.033-.034.063-.047.098-.041.11-.07.226-.07.348v15c0 .379.214.725.553.895l12 6c.14.07.294.105.447.105s.307-.035.447-.105l3.998-1.999c1.102 1.285 2.733 2.104 4.555 2.104 3.309 0 6-2.691 6-6 0-.553-.447-1-1-1zm-14-18.917 9.4 3.917-9.4 3.917-9.4-3.917zm-11 5.417 10 4.167v13.715l-10-5z"/></g></svg>