<svg xmlns="http://www.w3.org/2000/svg" height="512pt" version="1.1" viewBox="-23 0 512 512.00072" width="512pt">
<g id="surface1">
<path d="M 348.945312 221.640625 L 348.945312 124.746094 C 348.945312 121.972656 347.664062 119.410156 345.851562 117.382812 L 237.21875 3.308594 C 235.191406 1.175781 232.308594 0 229.429688 0 L 57.195312 0 C 25.398438 0 0 25.929688 0 57.730469 L 0 383.414062 C 0 415.214844 25.398438 440.71875 57.195312 440.71875 L 193.148438 440.71875 C 218.863281 483.402344 265.605469 512 318.851562 512 C 399.738281 512 465.792969 446.265625 465.792969 365.273438 C 465.902344 294.523438 415.105469 235.40625 348.945312 221.640625 Z M 240.101562 37.457031 L 312.984375 114.179688 L 265.710938 114.179688 C 251.625 114.179688 240.101562 102.550781 240.101562 88.464844 Z M 57.195312 419.375 C 37.242188 419.375 21.34375 403.367188 21.34375 383.414062 L 21.34375 57.730469 C 21.34375 37.667969 37.242188 21.34375 57.195312 21.34375 L 218.757812 21.34375 L 218.757812 88.464844 C 218.757812 114.394531 239.78125 135.523438 265.710938 135.523438 L 327.601562 135.523438 L 327.601562 218.863281 C 324.402344 218.757812 321.839844 218.4375 319.066406 218.4375 C 281.824219 218.4375 247.570312 232.738281 221.746094 255.148438 L 86.222656 255.148438 C 80.351562 255.148438 75.550781 259.949219 75.550781 265.816406 C 75.550781 271.6875 80.351562 276.488281 86.222656 276.488281 L 201.898438 276.488281 C 194.320312 287.160156 188.023438 297.832031 183.117188 309.570312 L 86.222656 309.570312 C 80.351562 309.570312 75.550781 314.371094 75.550781 320.242188 C 75.550781 326.109375 80.351562 330.914062 86.222656 330.914062 L 176.179688 330.914062 C 173.511719 341.585938 172.125 353.429688 172.125 365.273438 C 172.125 384.480469 175.859375 403.476562 182.582031 419.484375 L 57.195312 419.484375 Z M 318.960938 490.765625 C 249.8125 490.765625 193.574219 434.527344 193.574219 365.378906 C 193.574219 296.230469 249.703125 239.992188 318.960938 239.992188 C 388.214844 239.992188 444.34375 296.230469 444.34375 365.378906 C 444.34375 434.527344 388.109375 490.765625 318.960938 490.765625 Z M 318.960938 490.765625 " style=" stroke:none;fill-rule:nonzero;fill:rgb(0%,0%,0%);fill-opacity:1;" />
<path d="M 86.222656 223.027344 L 194.320312 223.027344 C 200.191406 223.027344 204.992188 218.222656 204.992188 212.355469 C 204.992188 206.484375 200.191406 201.683594 194.320312 201.683594 L 86.222656 201.683594 C 80.351562 201.683594 75.550781 206.484375 75.550781 212.355469 C 75.550781 218.222656 80.351562 223.027344 86.222656 223.027344 Z M 86.222656 223.027344 " style=" stroke:none;fill-rule:nonzero;fill:rgb(0%,0%,0%);fill-opacity:1;" />
<path d="M 315.4375 299.539062 C 316.292969 299.75 317.144531 299.859375 318 299.859375 C 319.066406 299.859375 320.027344 299.75 320.988281 299.429688 C 335.074219 300.605469 346.066406 312.34375 346.066406 326.644531 C 346.066406 332.511719 350.867188 337.3125 356.734375 337.3125 C 362.605469 337.3125 367.40625 332.511719 367.40625 326.644531 C 367.40625 303.167969 350.761719 283.53125 328.671875 278.941406 L 328.671875 272.113281 C 328.671875 266.242188 323.867188 261.441406 318 261.441406 C 312.128906 261.441406 307.328125 266.242188 307.328125 272.113281 L 307.328125 279.371094 C 285.984375 284.492188 270.085938 303.808594 270.085938 326.644531 C 270.085938 353.535156 291.960938 375.304688 318.746094 375.304688 C 333.792969 375.304688 346.066406 387.574219 346.066406 402.621094 C 346.066406 417.667969 333.898438 430.046875 318.746094 430.046875 C 303.699219 430.046875 291.429688 417.773438 291.429688 402.726562 C 291.429688 396.859375 286.625 392.054688 280.757812 392.054688 C 274.886719 392.054688 270.085938 396.859375 270.085938 402.726562 C 270.085938 425.671875 285.984375 444.878906 307.328125 450 L 307.328125 460.992188 C 307.328125 466.863281 312.128906 471.664062 318 471.664062 C 323.867188 471.664062 328.671875 466.863281 328.671875 460.992188 L 328.671875 450.320312 C 350.761719 445.730469 367.40625 426.097656 367.40625 402.621094 C 367.40625 375.730469 345.53125 353.960938 318.746094 353.960938 C 303.699219 353.960938 291.429688 341.6875 291.429688 326.644531 C 291.429688 312.769531 301.886719 301.140625 315.4375 299.539062 Z M 315.4375 299.539062 " style=" stroke:none;fill-rule:nonzero;fill:rgb(0%,0%,0%);fill-opacity:1;" />
</g>
</svg>