<svg id="Layer_1" enable-background="new 0 0 512 512" height="512" viewBox="0 0 512 512" width="512" xmlns="http://www.w3.org/2000/svg"><g id="Layer_2_00000067931539173149339600000009908631060723508387_"><g id="InterfaceIcon"><path id="_09.Group" d="m472.7 229.6c-10.9-11-23.7-20-37.7-26.6 34.7-31.6 37.2-85.3 5.6-120s-85.3-37.2-120-5.6c-25 22.8-34.1 58.1-23.2 90.1-25.7-14.4-57-14.4-82.7 0 15.2-44.4-8.6-92.7-53-107.9s-92.7 8.6-107.9 53c-10.9 32.1-1.8 67.5 23.3 90.3-47.1 22.4-77 69.6-77.1 121.6 0 16.9 13.7 30.7 30.7 30.7h111.4c-13.3 21.2-20.3 45.8-20.3 70.9 0 16.9 13.7 30.6 30.7 30.7h207.1c16.9 0 30.6-13.7 30.6-30.7 0-25.1-7-49.6-20.3-70.9h111.4c16.9 0 30.7-13.7 30.7-30.7.1-35.6-14.1-69.8-39.3-94.9zm-94.9-154.3c35.9 0 65 29.1 65 65s-29.1 65-65 65-65-29.1-65-65 29.1-65 65-65zm-121.8 101.5c35.9 0 65 29.1 65 65s-29.1 65-65 65-65-29.1-65-65 29.1-65 65-65zm-186.8-36.5c0-35.9 29.1-65 65-65s65 29.1 65 65-29.1 65-65 65-65-29.1-65-65zm-38.5 194.9c-5.9 0-10.7-4.8-10.7-10.6 0-48.7 30.9-92 76.8-107.9 23.5 11.6 51.1 11.6 74.7 0 1 .4 2 .7 3 1.1-9.3 31.3.2 65.1 24.3 87-15.7 7.4-29.8 17.8-41.5 30.5zm339.5 90.8c0 5.9-4.8 10.7-10.6 10.7h-207.1c-5.9 0-10.7-4.8-10.7-10.7 0-48.7 30.9-92 76.9-107.9 23.6 11.6 51.1 11.6 74.7 0 45.9 15.9 76.8 59.2 76.8 107.9zm118.7-94c-2 2-4.7 3.1-7.5 3.1h-126.7c-11.8-12.8-25.9-23.1-41.5-30.5 24.2-21.9 33.6-55.7 24.3-87 1-.4 2-.7 3-1.1 23.5 11.6 51.1 11.6 74.7 0 46 16 76.9 59.3 76.9 108-.1 2.8-1.2 5.6-3.2 7.5z"/></g></g></svg>