<svg height="511pt" viewBox="-10 0 511 511.99994" width="511pt" xmlns="http://www.w3.org/2000/svg"><path d="m490.5 267c0 135.308594-109.691406 245-245 245s-245-109.691406-245-245 109.691406-245 245-245 245 109.691406 245 245zm0 0" fill="#2d4cad"/><path d="m418.578125 369.96875c-6.242187-1.160156-12.332031-3.015625-18.167969-5.519531l-51.085937-21.910157c-37.363281 27.195313-73.011719 36.074219-103.445313 36.199219-38.265625.15625-75.21875-13.757812-105.109375-35.21875l-50.601562 22.195313c-5.847657 2.5625-11.953125 4.460937-18.222657 5.6875-8.890624 1.738281-24.179687 6.222656-38.976562 17.5625 42.242188 73.457031 121.472656 122.9375 212.269531 123.03125.132813 0 .269531.003906.402344.003906 89.320313-.054688 169.910156-48.304688 213.003906-124.125-15.210937-11.738281-31.011719-16.222656-40.066406-17.90625zm0 0" fill="#a0b3ef"/><path d="m203.347656 446.242188c0-29.671876 17.214844-55.3125 42.191406-67.507813-38.144531.074219-74.964843-13.820313-104.769531-35.214844l-50.601562 22.191407c-5.847657 2.566406-11.953125 4.464843-18.222657 5.6875-8.890624 1.742187-24.179687 6.226562-38.976562 17.566406 41.761719 72.613281 119.667969 121.792968 209.160156 123.003906-23.121094-12.800781-38.78125-37.429688-38.78125-65.726562zm0 0" fill="#7f93e6"/><path d="m245.265625 363.546875c29.117187-.121094 57.574219-10.230469 80.246094-28.476563-1.71875-.4375-3.445313-.855468-5.183594-1.257812-11.570313-11.574219-14.503906-33.515625-15.03125-48.867188-6.042969 7.035157-12.382813 12.917969-18.4375 17.625-11.800781 9.160157-26.363281 14.140626-41.359375 14.140626-15 0-29.5625-4.976563-41.359375-14.140626-6.058594-4.707031-12.398437-10.589843-18.4375-17.625-.527344 15.351563-3.460937 37.292969-15.035156 48.867188-2.128907.492188-4.230469 1.015625-6.324219 1.554688 22.890625 18.292968 51.613281 28.296874 80.921875 28.179687zm0 0" fill="#f9bd91"/><path d="m255.855469 315.902344c-3.410157.527344-6.871094.804687-10.355469.804687-14.996094 0-29.558594-4.976562-41.359375-14.140625-6.058594-4.703125-12.394531-10.585937-18.433594-17.621094-.53125 15.351563-3.464843 37.292969-15.035156 48.867188-2.128906.488281-4.234375 1.015625-6.328125 1.554688 22.894531 18.289062 51.617188 28.296874 80.925781 28.179687 5.578125-.023437 11.132813-.417969 16.625-1.160156-17.472656-9.300781-20.558593-33.039063-6.039062-46.484375zm0 0" fill="#f4ad7d"/><path d="m225.5 1.246094c-60.054688 8.183594-65.761719 42.230468-65.789062 54.726562-.003907 2.617188-1.457032 5.046875-3.8125 6.191406-31.238282 15.195313-14.394532 88.4375-14.394532 88.4375 3.136719.210938 6.417969 1.480469 8.867188 2.667969.601562-3.734375 1.578125-7.410156 2.960937-10.960937 1.054688-2.707032 2.371094-5.4375 4.019531-8.023438 2.855469-4.480468 4.15625-9.765625 3.769532-15.054687-1.125-15.277344-.582032-45.386719 19.585937-54.460938 17.085938-7.6875 38.046875-3.234375 51.410157 1.207031 8.679687 2.886719 18.082031 2.886719 26.765624 0 13.363282-4.445312 34.324219-8.894531 51.410157-1.207031 20.109375 9.050781 20.703125 39.011719 19.59375 54.332031-.382813 5.324219.882812 10.667969 3.761719 15.183594 1.699218 2.664063 3.046874 5.492188 4.117187 8.285156 1.328125 3.46875 2.273437 7.054688 2.859375 10.695313 3.089844-1.492187 7.5-3.121094 11.273438-2.589844.460937-16.015625 1.941406-33.277343 1.941406-33.277343 17.796875-87.164063-63.675782-124.960938-128.339844-116.152344zm0 0" fill="#633"/><path d="m245.378906 386.855469c-35.746094.144531-70.78125-12.105469-98.644531-34.5-5.949219-4.78125-6.898437-13.484375-2.117187-19.433594 4.785156-5.953125 13.484374-6.898437 19.433593-2.113281 22.941407 18.433594 51.785157 28.523437 81.214844 28.402344 29.433594-.117188 58.191406-10.441407 80.980469-29.0625 5.914062-4.832032 14.621094-3.957032 19.453125 1.957031 4.828125 5.910156 3.953125 14.617187-1.957031 19.449219-27.683594 22.617187-62.613282 35.15625-98.363282 35.300781zm0 0" fill="#d7dff7"/><path d="m205.453125 33.238281c0-13.136719 6.679687-24.710937 16.828125-31.515625-57.035156 8.941406-62.542969 41.984375-62.566406 54.25-.007813 2.617188-1.457032 5.046875-3.816406 6.191406-31.238282 15.195313-14.394532 88.4375-14.394532 88.4375 3.136719.210938 6.421875 1.480469 8.871094 2.667969.597656-3.734375 1.578125-7.410156 2.960938-10.960937 1.054687-2.703125 2.371093-5.4375 4.015624-8.023438 2.855469-4.480468 4.160157-9.765625 3.769532-15.054687-1.121094-15.277344-.582032-45.386719 19.585937-54.460938 12.261719-5.515625 26.515625-4.78125 38.527344-2.285156-8.417969-6.957031-13.78125-17.472656-13.78125-29.246094zm0 0" fill="#542727"/><path d="m357.652344 151.757812c-4.679688-4.289062-13.996094-2.117187-18.023438.507813.882813 5.496094.933594 11.121094.167969 16.671875l-4.753906 34.621094c0 2.792968-.085938 5.53125-.25 8.222656 11.59375 3.496094 17.351562-6.910156 18.320312-14.054688.417969-3.074218 1.101563-6.105468 2.046875-9.058593 3.085938-9.632813 14.210938-26.171875 2.492188-36.910157zm0 0" fill="#f9bd91"/><path d="m133.347656 151.757812c4.679688-4.289062 13.996094-2.117187 18.023438.507813-.882813 5.496094-.933594 11.121094-.167969 16.671875l4.753906 34.621094c0 2.792968.085938 5.53125.25 8.222656-11.59375 3.496094-17.351562-6.910156-18.320312-14.054688-.417969-3.074218-1.101563-6.105468-2.046875-9.058593-3.085938-9.632813-14.210938-26.171875-2.492188-36.910157zm0 0" fill="#f9bd91"/><path d="m337.765625 142.570312c-1.070313-2.792968-2.417969-5.621093-4.117187-8.285156-2.878907-4.515625-4.144532-9.859375-3.757813-15.183594 1.109375-15.320312.511719-45.285156-19.597656-54.332031-17.085938-7.6875-38.042969-3.238281-51.410157 1.207031-8.679687 2.886719-18.085937 2.886719-26.765624 0-13.367188-4.445312-34.324219-8.894531-51.410157-1.207031-20.167969 9.074219-20.710937 39.179688-19.585937 54.460938.386718 5.285156-.914063 10.574219-3.769532 15.054687-1.648437 2.582032-2.964843 5.316406-4.019531 8.023438-3.414062 8.777344-4.410156 18.300781-3.132812 27.621094l4.757812 34.632812c0 49.785156 26.574219 83.625 49.183594 101.179688 11.800781 9.164062 26.363281 14.144531 41.359375 14.144531s29.558594-4.980469 41.359375-14.144531c22.609375-17.554688 49.183594-51.394532 49.183594-101.179688l4.753906-34.625c1.269531-9.230469.308594-18.660156-3.03125-27.367188zm0 0" fill="#fcd2ae"/><path d="m348.847656 184.515625c-4.300781 0-8.105468-2.109375-10.457031-5.339844l-3.347656 24.382813c0 2.792968-.085938 5.53125-.246094 8.222656 11.589844 3.496094 17.347656-6.910156 18.316406-14.054688.417969-3.074218 1.101563-6.105468 2.046875-9.058593.800782-2.492188 2.136719-5.449219 3.476563-8.644531-2.375 2.746093-5.875 4.492187-9.789063 4.492187zm0 0" fill="#f4ad7d"/><path d="m142.152344 184.515625c4.300781 0 8.105468-2.109375 10.457031-5.339844l3.347656 24.382813c0 2.792968.085938 5.53125.246094 8.222656-11.589844 3.496094-17.347656-6.910156-18.316406-14.054688-.417969-3.074218-1.101563-6.105468-2.046875-9.058593-.800782-2.492188-2.136719-5.449219-3.476563-8.644531 2.375 2.746093 5.875 4.492187 9.789063 4.492187zm0 0" fill="#f4ad7d"/><path d="m232.570312 305.742188c-17.921874-17.554688-38.992187-51.394532-38.992187-101.183594l-3.769531-34.628906c-1.511719-13.867188 1.195312-26.789063 5.667968-35.644532 2.265626-4.480468 3.296876-9.769531 2.988282-15.054687-.890625-15.28125-.460938-45.386719 15.527344-54.460938 1.667968-.949219 3.382812-1.707031 5.125-2.3125-11.984376-2.476562-26.1875-3.1875-38.410157 2.3125-20.167969 9.074219-20.707031 39.179688-19.585937 54.460938.390625 5.285156-.914063 10.570312-3.769532 15.054687-5.71875 8.972656-9.035156 21.917969-7.148437 35.644532l4.753906 34.628906c0 49.789062 26.578125 83.628906 49.183594 101.183594 14.816406 11.507812 33.847656 16.3125 52.4375 13.230468-8.71875-1.824218-16.980469-6.34375-24.007813-13.230468zm0 0" fill="#f9bd91"/><path d="m250.660156 371c0-4.988281 2.304688-9.429688 5.90625-12.339844-3.75.351563-7.519531.535156-11.300781.550782-29.429687.121093-58.273437-9.96875-81.214844-28.402344-5.949219-4.785156-14.648437-3.839844-19.433593 2.113281-4.78125 5.949219-3.835938 14.652344 2.117187 19.433594 27.863281 22.394531 62.894531 34.644531 98.644531 34.5 5.335938-.023438 10.652344-.324219 15.929688-.890625-6.195313-2.15625-10.648438-8.035156-10.648438-14.964844zm0 0" fill="#bbc7f9"/></svg>